<svg xmlns="http://www.w3.org/2000/svg" xmlns:xlink="http://www.w3.org/1999/xlink" width="359" height="280" contentScriptType="application/ecmascript" contentStyleType="text/css" style="width:359px;height:280px" preserveAspectRatio="none" version="1.1" viewBox="0 0 359 280" zoomAndPan="magnify"><defs><filter id="f86piaijiism8" width="300%" height="300%" x="-1" y="-1"><feGaussianBlur result="blurOut" stdDeviation="2"/><feColorMatrix in="blurOut" result="blurOut2" type="matrix" values="0 0 0 0 0 0 0 0 0 0 0 0 0 0 0 0 0 0 .4 0"/><feOffset dx="4" dy="4" in="blurOut2" result="blurOut3"/><feBlend in="SourceGraphic" in2="blurOut3" mode="normal"/></filter></defs><g><line style="stroke:#a80036;stroke-width:1;stroke-dasharray:5,5" x1="25" x2="25" y1="86.297" y2="193.695"/><line style="stroke:#a80036;stroke-width:1;stroke-dasharray:5,5" x1="208" x2="208" y1="86.297" y2="193.695"/><line style="stroke:#a80036;stroke-width:1;stroke-dasharray:5,5" x1="297" x2="297" y1="86.297" y2="193.695"/><text x="8" y="82.995" fill="#000" font-family="sans-serif" font-size="14" lengthAdjust="spacingAndGlyphs" textLength="28">Bob</text><ellipse cx="25" cy="13" fill="red" filter="url(#f86piaijiism8)" rx="8" ry="8" style="stroke:#a80036;stroke-width:2"/><path fill="none" d="M25,21 L25,48 M12,29 L38,29 M25,48 L12,63 M25,48 L38,63" filter="url(#f86piaijiism8)" style="stroke:#a80036;stroke-width:2"/><text x="8" y="205.69" fill="#000" font-family="sans-serif" font-size="14" lengthAdjust="spacingAndGlyphs" textLength="28">Bob</text><ellipse cx="25" cy="218.992" fill="red" filter="url(#f86piaijiism8)" rx="8" ry="8" style="stroke:#a80036;stroke-width:2"/><path fill="none" d="M25,226.9922 L25,253.9922 M12,234.9922 L38,234.9922 M25,253.9922 L12,268.9922 M25,253.9922 L38,268.9922" filter="url(#f86piaijiism8)" style="stroke:#a80036;stroke-width:2"/><rect style="stroke:#a80036;stroke-width:1.5" width="46" height="30.297" x="183" y="51" fill="#FEFECE" filter="url(#f86piaijiism8)"/><text x="190" y="70.995" fill="#000" font-family="sans-serif" font-size="14" lengthAdjust="spacingAndGlyphs" textLength="32">Alice</text><rect style="stroke:#a80036;stroke-width:1.5" width="46" height="30.297" x="183" y="192.695" fill="#FEFECE" filter="url(#f86piaijiism8)"/><text x="190" y="212.69" fill="#000" font-family="sans-serif" font-size="14" lengthAdjust="spacingAndGlyphs" textLength="32">Alice</text><rect style="stroke:#a80036;stroke-width:1.5" width="105" height="46.594" x="243" y="34.703" fill="#9F9" filter="url(#f86piaijiism8)"/><text x="250" y="54.698" fill="#000" font-family="sans-serif" font-size="14" lengthAdjust="spacingAndGlyphs" textLength="91">I have a really</text><text x="259" y="70.995" fill="#000" font-family="sans-serif" font-size="14" lengthAdjust="spacingAndGlyphs" textLength="73">long name</text><rect style="stroke:#a80036;stroke-width:1.5" width="105" height="46.594" x="243" y="192.695" fill="#9F9" filter="url(#f86piaijiism8)"/><text x="250" y="212.69" fill="#000" font-family="sans-serif" font-size="14" lengthAdjust="spacingAndGlyphs" textLength="91">I have a really</text><text x="259" y="228.987" fill="#000" font-family="sans-serif" font-size="14" lengthAdjust="spacingAndGlyphs" textLength="73">long name</text><polygon fill="#A80036" points="36 113.43 26 117.43 36 121.43 32 117.43" style="stroke:#a80036;stroke-width:1"/><line style="stroke:#a80036;stroke-width:1" x1="30" x2="207" y1="117.43" y2="117.43"/><text x="42" y="112.364" fill="#000" font-family="sans-serif" font-size="13" lengthAdjust="spacingAndGlyphs" textLength="149">Authentication Request</text><polygon fill="#A80036" points="196 142.563 206 146.563 196 150.563 200 146.563" style="stroke:#a80036;stroke-width:1"/><line style="stroke:#a80036;stroke-width:1" x1="25" x2="202" y1="146.563" y2="146.563"/><text x="32" y="141.497" fill="#000" font-family="sans-serif" font-size="13" lengthAdjust="spacingAndGlyphs" textLength="159">Authentication Response</text><polygon fill="#A80036" points="285.5 171.695 295.5 175.695 285.5 179.695 289.5 175.695" style="stroke:#a80036;stroke-width:1"/><line style="stroke:#a80036;stroke-width:1" x1="25" x2="291.5" y1="175.695" y2="175.695"/><text x="32" y="170.629" fill="#000" font-family="sans-serif" font-size="13" lengthAdjust="spacingAndGlyphs" textLength="99">Log transaction</text></g></svg>