<svg xmlns="http://www.w3.org/2000/svg" xmlns:xlink="http://www.w3.org/1999/xlink" width="484" height="227" contentScriptType="application/ecmascript" contentStyleType="text/css" style="width:484px;height:227px" preserveAspectRatio="none" version="1.1" viewBox="0 0 484 227" zoomAndPan="magnify"><defs><filter id="f1h1p21ln4fzhk" width="300%" height="300%" x="-1" y="-1"><feGaussianBlur result="blurOut" stdDeviation="2"/><feColorMatrix in="blurOut" result="blurOut2" type="matrix" values="0 0 0 0 0 0 0 0 0 0 0 0 0 0 0 0 0 0 .4 0"/><feOffset dx="4" dy="4" in="blurOut2" result="blurOut3"/><feBlend in="SourceGraphic" in2="blurOut3" mode="normal"/></filter></defs><g><ellipse cx="149" cy="20" fill="#000" filter="url(#f1h1p21ln4fzhk)" rx="10" ry="10" style="stroke:none;stroke-width:1"/><path fill="#FBFB77" d="M10,54.418 L10,79.5508 L115,79.5508 L115,64.418 L105,54.418 L10,54.418" filter="url(#f1h1p21ln4fzhk)" style="stroke:#a80036;stroke-width:1"/><path fill="#FBFB77" d="M105,54.418 L105,64.418 L115,64.418 L105,54.418" style="stroke:#a80036;stroke-width:1"/><text x="16" y="71.485" fill="#000" font-family="sans-serif" font-size="13" lengthAdjust="spacingAndGlyphs" textLength="84">This is a note</text><rect style="stroke:#a80036;stroke-width:1.5" width="48" height="33.969" x="125" y="50" fill="#FEFECE" filter="url(#f1h1p21ln4fzhk)" rx="12.5" ry="12.5"/><text x="135" y="71.139" fill="#000" font-family="sans-serif" font-size="12" lengthAdjust="spacingAndGlyphs" textLength="28">foo1</text><path fill="#FBFB77" d="M193,93.9688 L193,130.2344 L173,134.2344 L193,138.2344 L193,174.5 A0,0 0 0 0 193,174.5 L472,174.5 A0,0 0 0 0 472,174.5 L472,103.9688 L462,93.9688 L193,93.9688 A0,0 0 0 0 193,93.9688" filter="url(#f1h1p21ln4fzhk)" style="stroke:#a80036;stroke-width:1"/><path fill="#FBFB77" d="M462,93.9688 L462,103.9688 L472,103.9688 L462,93.9688" style="stroke:#a80036;stroke-width:1"/><text x="199" y="111.036" fill="#000" font-family="sans-serif" font-size="13" lengthAdjust="spacingAndGlyphs" textLength="142">This note is on several</text><text x="199" y="126.168" fill="#000" font-family="sans-serif" font-size="13" font-style="italic" lengthAdjust="spacingAndGlyphs" textLength="29">lines</text><text x="232" y="126.168" fill="#000" font-family="sans-serif" font-size="13" lengthAdjust="spacingAndGlyphs" textLength="51">and can</text><text x="199" y="141.301" fill="#000" font-family="sans-serif" font-size="13" lengthAdjust="spacingAndGlyphs" textLength="47">contain</text><text x="250" y="141.301" fill="#000" font-family="sans-serif" font-size="13" font-weight="bold" lengthAdjust="spacingAndGlyphs" textLength="40">HTML</text><line style="stroke:#a80036;stroke-width:1" x1="193" x2="472" y1="149.367" y2="149.367"/><line style="stroke:#a80036;stroke-width:1" x1="193" x2="472" y1="151.367" y2="151.367"/><ellipse cx="204.5" cy="162" fill="#000" rx="2.5" ry="2.5" style="stroke:#000;stroke-width:0"/><text x="210" y="166.434" fill="#000" font-family="sans-serif" font-size="13" lengthAdjust="spacingAndGlyphs" textLength="121">Calling the method</text><text x="335" y="166.434" fill="#000" font-family="monospace" font-size="13" lengthAdjust="spacingAndGlyphs" textLength="40">foo()</text><text x="379" y="166.434" fill="#000" font-family="sans-serif" font-size="13" lengthAdjust="spacingAndGlyphs" textLength="78">is prohibited</text><rect style="stroke:#a80036;stroke-width:1.5" width="48" height="33.969" x="125" y="117.25" fill="#FEFECE" filter="url(#f1h1p21ln4fzhk)" rx="12.5" ry="12.5"/><text x="135" y="138.389" fill="#000" font-family="sans-serif" font-size="12" lengthAdjust="spacingAndGlyphs" textLength="28">foo2</text><ellipse cx="149" cy="205.5" fill="#FFF" filter="url(#f1h1p21ln4fzhk)" rx="11" ry="11" style="stroke:#000;stroke-width:1"/><ellipse cx="149" cy="205.5" fill="#000" rx="6" ry="6" style="stroke:#7f7f7f;stroke-width:1"/><line style="stroke:#a80036;stroke-width:1.5" x1="149" x2="149" y1="30" y2="50"/><polygon fill="#A80036" points="145 40 149 50 153 40 149 44" style="stroke:#a80036;stroke-width:1"/><line style="stroke:#a80036;stroke-width:1.5" x1="149" x2="149" y1="83.969" y2="117.25"/><polygon fill="#A80036" points="145 107.25 149 117.25 153 107.25 149 111.25" style="stroke:#a80036;stroke-width:1"/><line style="stroke:#a80036;stroke-width:1.5" x1="149" x2="149" y1="151.219" y2="194.5"/><polygon fill="#A80036" points="145 184.5 149 194.5 153 184.5 149 188.5" style="stroke:#a80036;stroke-width:1"/></g></svg>