<svg xmlns="http://www.w3.org/2000/svg" xmlns:xlink="http://www.w3.org/1999/xlink" width="521" height="168" contentScriptType="application/ecmascript" contentStyleType="text/css" style="width:521px;height:168px" preserveAspectRatio="none" version="1.1" viewBox="0 0 521 168" zoomAndPan="magnify"><g><line style="stroke:#000;stroke-width:1.7" x1="10" x2="10" y1="10" y2="137.875"/><line style="stroke:#000;stroke-width:1.7" x1="491" x2="491" y1="10" y2="137.875"/><line style="stroke:#aaa;stroke-width:.5;stroke-dasharray:3,5" x1="86" x2="86" y1="10" y2="137.875"/><line style="stroke:#aaa;stroke-width:.5;stroke-dasharray:3,5" x1="136" x2="136" y1="10" y2="137.875"/><line style="stroke:#aaa;stroke-width:.5;stroke-dasharray:3,5" x1="186" x2="186" y1="10" y2="137.875"/><line style="stroke:#aaa;stroke-width:.5;stroke-dasharray:3,5" x1="236" x2="236" y1="10" y2="137.875"/><line style="stroke:#aaa;stroke-width:.5;stroke-dasharray:3,5" x1="286" x2="286" y1="10" y2="137.875"/><line style="stroke:#aaa;stroke-width:.5;stroke-dasharray:3,5" x1="336" x2="336" y1="10" y2="137.875"/><line style="stroke:#aaa;stroke-width:.5;stroke-dasharray:3,5" x1="386" x2="386" y1="10" y2="137.875"/><line style="stroke:#aaa;stroke-width:.5;stroke-dasharray:3,5" x1="436" x2="436" y1="10" y2="137.875"/><line style="stroke:#aaa;stroke-width:.5;stroke-dasharray:3,5" x1="486" x2="486" y1="10" y2="137.875"/><text x="15" y="21.139" fill="#000" font-family="sans-serif" font-size="12" lengthAdjust="spacingAndGlyphs" textLength="14">LR</text><line style="stroke:#000;stroke-width:1" x1="10" x2="30" y1="24.969" y2="24.969"/><line style="stroke:#000;stroke-width:1" x1="30" x2="40" y1="24.969" y2="10"/><polygon fill="#98FB98" points="15 31.938 74 31.938 86 43.938 74 55.938 15 55.938" style="stroke:#98fb98;stroke-width:1.5"/><path fill="#98FB98" d="M15,31.9375 L74,31.9375 L86,43.9375 L74,55.9375 L15,55.9375" style="stroke:#038048;stroke-width:1.5"/><polygon fill="#D7E0F2" points="98 31.938 174 31.938 186 43.938 174 55.938 98 55.938 86 43.938" style="stroke:#038048;stroke-width:1.5"/><polygon fill="pink" points="198 31.938 424 31.938 436 43.938 424 55.938 198 55.938 186 43.938" style="stroke:#038048;stroke-width:1.5"/><polygon fill="#D7E0F2" points="448 31.938 486 31.938 486 55.938 448 55.938 436 43.938" style="stroke:#d7e0f2;stroke-width:1.5"/><path fill="#D7E0F2" d="M486,31.9375 L448,31.9375 L436,43.9375 L448,55.9375 L486,55.9375" style="stroke:#038048;stroke-width:1.5"/><text x="27" y="48.092" fill="#000" font-family="sans-serif" font-size="12" lengthAdjust="spacingAndGlyphs" textLength="47">AtPlace</text><text x="108.5" y="48.092" fill="#000" font-family="sans-serif" font-size="12" lengthAdjust="spacingAndGlyphs" textLength="55">Lowering</text><text x="285" y="48.092" fill="#000" font-family="sans-serif" font-size="12" lengthAdjust="spacingAndGlyphs" textLength="52">Lowered</text><text x="448" y="48.092" fill="#000" font-family="sans-serif" font-size="12" lengthAdjust="spacingAndGlyphs" textLength="61">Releasing</text><line style="stroke:#000;stroke-width:1.7" x1="10" x2="491" y1="10" y2="10"/><text x="15" y="85.076" fill="#000" font-family="sans-serif" font-size="12" lengthAdjust="spacingAndGlyphs" textLength="15">ST</text><line style="stroke:#000;stroke-width:1" x1="10" x2="31" y1="88.906" y2="88.906"/><line style="stroke:#000;stroke-width:1" x1="31" x2="41" y1="88.906" y2="73.938"/><polygon fill="gray" points="19 95.875 274 95.875 286 107.875 274 119.875 19 119.875" style="stroke:gray;stroke-width:1.5"/><path fill="gray" d="M19,95.875 L274,95.875 L286,107.875 L274,119.875 L19,119.875" style="stroke:#038048;stroke-width:1.5"/><polygon fill="#D7E0F2" points="298 95.875 486 95.875 486 119.875 298 119.875 286 107.875" style="stroke:#d7e0f2;stroke-width:1.5"/><path fill="#D7E0F2" d="M486,95.875 L298,95.875 L286,107.875 L298,119.875 L486,119.875" style="stroke:#038048;stroke-width:1.5"/><text x="31" y="112.029" fill="#000" font-family="sans-serif" font-size="12" lengthAdjust="spacingAndGlyphs" textLength="43">AtLoad</text><text x="298" y="112.029" fill="#000" font-family="sans-serif" font-size="12" lengthAdjust="spacingAndGlyphs" textLength="43">Moving</text><line style="stroke:#000;stroke-width:1.7" x1="10" x2="491" y1="73.938" y2="73.938"/><line style="stroke:#000;stroke-width:2" x1="86" x2="86" y1="137.875" y2="142.875"/><line style="stroke:#000;stroke-width:2" x1="136" x2="136" y1="137.875" y2="142.875"/><line style="stroke:#000;stroke-width:2" x1="186" x2="186" y1="137.875" y2="142.875"/><line style="stroke:#000;stroke-width:2" x1="236" x2="236" y1="137.875" y2="142.875"/><line style="stroke:#000;stroke-width:2" x1="286" x2="286" y1="137.875" y2="142.875"/><line style="stroke:#000;stroke-width:2" x1="336" x2="336" y1="137.875" y2="142.875"/><line style="stroke:#000;stroke-width:2" x1="386" x2="386" y1="137.875" y2="142.875"/><line style="stroke:#000;stroke-width:2" x1="436" x2="436" y1="137.875" y2="142.875"/><line style="stroke:#000;stroke-width:2" x1="486" x2="486" y1="137.875" y2="142.875"/><line style="stroke:#000;stroke-width:2" x1="86" x2="486" y1="137.875" y2="137.875"/><text x="82" y="155.014" fill="#000" font-family="sans-serif" font-size="12" lengthAdjust="spacingAndGlyphs" textLength="8">0</text><text x="174" y="155.014" fill="#000" font-family="sans-serif" font-size="12" lengthAdjust="spacingAndGlyphs" textLength="24">100</text><text x="274" y="155.014" fill="#000" font-family="sans-serif" font-size="12" lengthAdjust="spacingAndGlyphs" textLength="24">200</text><text x="424" y="155.014" fill="#000" font-family="sans-serif" font-size="12" lengthAdjust="spacingAndGlyphs" textLength="24">350</text></g></svg>