<svg xmlns="http://www.w3.org/2000/svg" xmlns:xlink="http://www.w3.org/1999/xlink" width="101" height="118" contentScriptType="application/ecmascript" contentStyleType="text/css" style="width:101px;height:118px" preserveAspectRatio="none" version="1.1" viewBox="0 0 101 118" zoomAndPan="magnify"><defs><filter id="f1dt5besu8e2qu" width="300%" height="300%" x="-1" y="-1"><feGaussianBlur result="blurOut" stdDeviation="2"/><feColorMatrix in="blurOut" result="blurOut2" type="matrix" values="0 0 0 0 0 0 0 0 0 0 0 0 0 0 0 0 0 0 .4 0"/><feOffset dx="4" dy="4" in="blurOut2" result="blurOut3"/><feBlend in="SourceGraphic" in2="blurOut3" mode="normal"/></filter></defs><g><rect id="Dummy" width="84" height="99.219" x="6" y="8" fill="#FEFECE" filter="url(#f1dt5besu8e2qu)" style="stroke:#a80036;stroke-width:1.5"/><ellipse cx="24.15" cy="24" fill="#ADD1B2" rx="11" ry="11" style="stroke:#a80036;stroke-width:1"/><path d="M27.1188,29.6406 Q26.5406,29.9375 25.9,30.0781 Q25.2594,30.2344 24.5563,30.2344 Q22.0563,30.2344 20.7281,28.5938 Q19.4156,26.9375 19.4156,23.8125 Q19.4156,20.6875 20.7281,19.0313 Q22.0563,17.375 24.5563,17.375 Q25.2594,17.375 25.9,17.5313 Q26.5563,17.6875 27.1188,17.9844 L27.1188,20.7031 Q26.4938,20.125 25.9,19.8594 Q25.3063,19.5781 24.6813,19.5781 Q23.3375,19.5781 22.65,20.6563 Q21.9625,21.7188 21.9625,23.8125 Q21.9625,25.9063 22.65,26.9844 Q23.3375,28.0469 24.6813,28.0469 Q25.3063,28.0469 25.9,27.7813 Q26.4938,27.5 27.1188,26.9219 L27.1188,29.6406 Z"/><text x="38.85" y="28.154" fill="#000" font-family="sans-serif" font-size="12" lengthAdjust="spacingAndGlyphs" textLength="45">Dummy</text><line style="stroke:#a80036;stroke-width:1.5" x1="7" x2="89" y1="40" y2="40"/><rect style="stroke:#c82930;stroke-width:1" width="6" height="6" x="14" y="48.902" fill="none"/><text x="26" y="54.21" fill="#000" font-family="sans-serif" font-size="11" lengthAdjust="spacingAndGlyphs" textLength="31">field1</text><polygon fill="none" points="17 59.707 21 63.707 17 67.707 13 63.707" style="stroke:#b38d22;stroke-width:1"/><text x="26" y="67.015" fill="#000" font-family="sans-serif" font-size="11" lengthAdjust="spacingAndGlyphs" textLength="31">field2</text><line style="stroke:#a80036;stroke-width:1.5" x1="7" x2="89" y1="73.609" y2="73.609"/><polygon fill="#4177AF" points="17 81.512 13 87.512 21 87.512" style="stroke:#1963a0;stroke-width:1"/><text x="26" y="87.82" fill="#000" font-family="sans-serif" font-size="11" lengthAdjust="spacingAndGlyphs" textLength="58">method1()</text><ellipse cx="17" cy="98.316" fill="#84BE84" rx="3" ry="3" style="stroke:#038048;stroke-width:1"/><text x="26" y="100.624" fill="#000" font-family="sans-serif" font-size="11" lengthAdjust="spacingAndGlyphs" textLength="58">method2()</text></g></svg>