<svg xmlns="http://www.w3.org/2000/svg" xmlns:xlink="http://www.w3.org/1999/xlink" width="175" height="238" contentScriptType="application/ecmascript" contentStyleType="text/css" style="width:175px;height:238px" preserveAspectRatio="none" version="1.1" viewBox="0 0 175 238" zoomAndPan="magnify"><defs><filter id="f60cv29rf2lht" width="300%" height="300%" x="-1" y="-1"><feGaussianBlur result="blurOut" stdDeviation="2"/><feColorMatrix in="blurOut" result="blurOut2" type="matrix" values="0 0 0 0 0 0 0 0 0 0 0 0 0 0 0 0 0 0 .4 0"/><feOffset dx="4" dy="4" in="blurOut2" result="blurOut3"/><feBlend in="SourceGraphic" in2="blurOut3" mode="normal"/></filter></defs><g><line style="stroke:#a80036;stroke-width:1;stroke-dasharray:5,5" x1="35" x2="35" y1="38.297" y2="197.961"/><line style="stroke:#a80036;stroke-width:1;stroke-dasharray:5,5" x1="110.5" x2="110.5" y1="38.297" y2="197.961"/><rect style="stroke:#a80036;stroke-width:1.5" width="50" height="30.297" x="8" y="3" fill="#FEFECE" filter="url(#f60cv29rf2lht)"/><text x="15" y="22.995" fill="#000" font-family="sans-serif" font-size="14" lengthAdjust="spacingAndGlyphs" textLength="36">caller</text><rect style="stroke:#a80036;stroke-width:1.5" width="50" height="30.297" x="8" y="196.961" fill="#FEFECE" filter="url(#f60cv29rf2lht)"/><text x="15" y="216.956" fill="#000" font-family="sans-serif" font-size="14" lengthAdjust="spacingAndGlyphs" textLength="36">caller</text><rect style="stroke:#a80036;stroke-width:1.5" width="57" height="30.297" x="80.5" y="3" fill="#FEFECE" filter="url(#f60cv29rf2lht)"/><text x="87.5" y="22.995" fill="#000" font-family="sans-serif" font-size="14" lengthAdjust="spacingAndGlyphs" textLength="43">server</text><rect style="stroke:#a80036;stroke-width:1.5" width="57" height="30.297" x="80.5" y="196.961" fill="#FEFECE" filter="url(#f60cv29rf2lht)"/><text x="87.5" y="216.956" fill="#000" font-family="sans-serif" font-size="14" lengthAdjust="spacingAndGlyphs" textLength="43">server</text><polygon fill="#A80036" points="99 65.43 109 69.43 99 73.43 103 69.43" style="stroke:#a80036;stroke-width:1"/><line style="stroke:#a80036;stroke-width:1" x1="35" x2="105" y1="69.43" y2="69.43"/><text x="42" y="64.364" fill="#000" font-family="sans-serif" font-size="13" lengthAdjust="spacingAndGlyphs" textLength="47">conReq</text><polygon fill="#FBFB77" points="22 82.43 48 82.43 58 93.43 48 105.43 22 105.43 12 93.43 22 82.43" filter="url(#f60cv29rf2lht)" style="stroke:#a80036;stroke-width:1"/><text x="24" y="98.497" fill="#000" font-family="sans-serif" font-size="13" lengthAdjust="spacingAndGlyphs" textLength="22">idle</text><polygon fill="#A80036" points="46 127.695 36 131.695 46 135.695 42 131.695" style="stroke:#a80036;stroke-width:1"/><line style="stroke:#a80036;stroke-width:1" x1="40" x2="110" y1="131.695" y2="131.695"/><text x="52" y="126.629" fill="#000" font-family="sans-serif" font-size="13" lengthAdjust="spacingAndGlyphs" textLength="52">conConf</text><rect style="stroke:#a80036;stroke-width:1" width="106" height="38" x="58" y="144.695" fill="#FBFB77" filter="url(#f60cv29rf2lht)"/><text x="62" y="160.762" fill="#000" font-family="sans-serif" font-size="13" lengthAdjust="spacingAndGlyphs" textLength="98">&quot;r&quot; as rectangle</text><text x="62" y="175.895" fill="#000" font-family="sans-serif" font-size="13" lengthAdjust="spacingAndGlyphs" textLength="96">&quot;h&quot; as hexagon</text></g></svg>