<svg xmlns="http://www.w3.org/2000/svg" xmlns:xlink="http://www.w3.org/1999/xlink" width="121" height="238" contentScriptType="application/ecmascript" contentStyleType="text/css" style="width:121px;height:238px" preserveAspectRatio="none" version="1.1" viewBox="0 0 121 238" zoomAndPan="magnify"><defs><filter id="f1tjs5mj38vscv" width="300%" height="300%" x="-1" y="-1"><feGaussianBlur result="blurOut" stdDeviation="2"/><feColorMatrix in="blurOut" result="blurOut2" type="matrix" values="0 0 0 0 0 0 0 0 0 0 0 0 0 0 0 0 0 0 .4 0"/><feOffset dx="4" dy="4" in="blurOut2" result="blurOut3"/><feBlend in="SourceGraphic" in2="blurOut3" mode="normal"/></filter></defs><g><line style="stroke:#a80036;stroke-width:1;stroke-dasharray:5,5" x1="31" x2="31" y1="38.297" y2="198.297"/><line style="stroke:#a80036;stroke-width:1;stroke-dasharray:5,5" x1="89" x2="89" y1="38.297" y2="198.297"/><rect style="stroke:#a80036;stroke-width:1.5" width="42" height="30.297" x="8" y="3" fill="#FEFECE" filter="url(#f1tjs5mj38vscv)"/><text x="15" y="22.995" fill="#000" font-family="sans-serif" font-size="14" lengthAdjust="spacingAndGlyphs" textLength="28">Bob</text><rect style="stroke:#a80036;stroke-width:1.5" width="42" height="30.297" x="8" y="197.297" fill="#FEFECE" filter="url(#f1tjs5mj38vscv)"/><text x="15" y="217.292" fill="#000" font-family="sans-serif" font-size="14" lengthAdjust="spacingAndGlyphs" textLength="28">Bob</text><rect style="stroke:#a80036;stroke-width:1.5" width="46" height="30.297" x="64" y="3" fill="#FEFECE" filter="url(#f1tjs5mj38vscv)"/><text x="71" y="22.995" fill="#000" font-family="sans-serif" font-size="14" lengthAdjust="spacingAndGlyphs" textLength="32">Alice</text><rect style="stroke:#a80036;stroke-width:1.5" width="46" height="30.297" x="64" y="197.297" fill="#FEFECE" filter="url(#f1tjs5mj38vscv)"/><text x="71" y="217.292" fill="#000" font-family="sans-serif" font-size="14" lengthAdjust="spacingAndGlyphs" textLength="32">Alice</text><line style="stroke:#a80036;stroke-width:2" x1="71" x2="81" y1="49.297" y2="59.297"/><line style="stroke:#a80036;stroke-width:2" x1="71" x2="81" y1="59.297" y2="49.297"/><line style="stroke:#a80036;stroke-width:1" x1="31" x2="76" y1="54.297" y2="54.297"/><polygon fill="#A80036" points="77 64.297 87 68.297 77 72.297 81 68.297" style="stroke:#a80036;stroke-width:1"/><line style="stroke:#a80036;stroke-width:1" x1="31" x2="83" y1="68.297" y2="68.297"/><line style="stroke:#a80036;stroke-width:1" x1="87" x2="77" y1="82.297" y2="78.297"/><line style="stroke:#a80036;stroke-width:1" x1="87" x2="77" y1="82.297" y2="86.297"/><line style="stroke:#a80036;stroke-width:1" x1="31" x2="88" y1="82.297" y2="82.297"/><polygon fill="#A80036" points="77 92.297 87 96.297 77 96.297" style="stroke:#a80036;stroke-width:1"/><line style="stroke:#a80036;stroke-width:1" x1="31" x2="88" y1="96.297" y2="96.297"/><line style="stroke:#a80036;stroke-width:1" x1="31" x2="41" y1="110.297" y2="114.297"/><line style="stroke:#a80036;stroke-width:1" x1="31" x2="88" y1="110.297" y2="110.297"/><line style="stroke:#a80036;stroke-width:1" x1="31" x2="41" y1="124.297" y2="120.297"/><line style="stroke:#a80036;stroke-width:1;stroke-dasharray:2,2" x1="31" x2="88" y1="124.297" y2="124.297"/><ellipse cx="88.5" cy="137.547" fill="none" rx="4" ry="4" style="stroke:#a80036;stroke-width:1.5"/><polygon fill="#A80036" points="71.5 134.297 81.5 138.297 71.5 142.297 75.5 138.297" style="stroke:#a80036;stroke-width:1"/><line style="stroke:#a80036;stroke-width:1" x1="31" x2="77.5" y1="138.297" y2="138.297"/><ellipse cx="30.5" cy="151.547" fill="none" rx="4" ry="4" style="stroke:#a80036;stroke-width:1.5"/><line style="stroke:#a80036;stroke-width:1" x1="36.5" x2="46.5" y1="152.297" y2="156.297"/><line style="stroke:#a80036;stroke-width:1;stroke-dasharray:2,2" x1="31" x2="88" y1="152.297" y2="152.297"/><polygon fill="#A80036" points="42 162.297 32 166.297 42 170.297 38 166.297" style="stroke:#a80036;stroke-width:1"/><polygon fill="#A80036" points="77 162.297 87 166.297 77 170.297 81 166.297" style="stroke:#a80036;stroke-width:1"/><line style="stroke:#a80036;stroke-width:1" x1="36" x2="83" y1="166.297" y2="166.297"/><polygon fill="#A80036" points="42 176.297 32 180.297 42 184.297 38 180.297" style="stroke:#a80036;stroke-width:1"/><ellipse cx="88.5" cy="179.547" fill="none" rx="4" ry="4" style="stroke:#a80036;stroke-width:1.5"/><polygon fill="#A80036" points="71.5 176.297 81.5 180.297 71.5 184.297 75.5 180.297" style="stroke:#a80036;stroke-width:1"/><line style="stroke:#a80036;stroke-width:1" x1="36" x2="77.5" y1="180.297" y2="180.297"/></g></svg>