<svg xmlns="http://www.w3.org/2000/svg" xmlns:xlink="http://www.w3.org/1999/xlink" width="649" height="405" contentScriptType="application/ecmascript" contentStyleType="text/css" style="width:649px;height:405px" preserveAspectRatio="none" version="1.1" viewBox="0 0 649 405" zoomAndPan="magnify"><defs><filter id="f1mkl9ypx0ee41" width="300%" height="300%" x="-1" y="-1"><feGaussianBlur result="blurOut" stdDeviation="2"/><feColorMatrix in="blurOut" result="blurOut2" type="matrix" values="0 0 0 0 0 0 0 0 0 0 0 0 0 0 0 0 0 0 .4 0"/><feOffset dx="4" dy="4" in="blurOut2" result="blurOut3"/><feBlend in="SourceGraphic" in2="blurOut3" mode="normal"/></filter></defs><g><ellipse cx="350.998" cy="49.524" fill="#FEFECE" filter="url(#f1mkl9ypx0ee41)" rx="52.498" ry="14.524" style="stroke:#a80036;stroke-width:1.5"/><text x="315.998" y="54.172" fill="#000" font-family="sans-serif" font-size="14" lengthAdjust="spacingAndGlyphs" textLength="70">第一个用例</text><ellipse cx="490.998" cy="49.524" fill="#FEFECE" filter="url(#f1mkl9ypx0ee41)" rx="52.498" ry="14.524" style="stroke:#a80036;stroke-width:1.5"/><text x="455.998" y="54.172" fill="#000" font-family="sans-serif" font-size="14" lengthAdjust="spacingAndGlyphs" textLength="70">另一个用例</text><ellipse cx="602.006" cy="49.524" fill="#FEFECE" filter="url(#f1mkl9ypx0ee41)" rx="23.506" ry="14.524" style="stroke:#a80036;stroke-width:1.5"/><text x="587.506" y="54.172" fill="#000" font-family="sans-serif" font-size="14" lengthAdjust="spacingAndGlyphs" textLength="29">UC3</text><ellipse cx="351.014" cy="193.703" fill="#FEFECE" filter="url(#f1mkl9ypx0ee41)" rx="61.514" ry="14.703" style="stroke:#a80036;stroke-width:1.5"/><text x="309.014" y="198.351" fill="#000" font-family="sans-serif" font-size="14" lengthAdjust="spacingAndGlyphs" textLength="84">最后一个用例</text><ellipse cx="483" cy="162" fill="#FEFECE" filter="url(#f1mkl9ypx0ee41)" rx="8" ry="8" style="stroke:#a80036;stroke-width:2"/><path fill="none" d="M483,170 L483,197 M470,178 L496,178 M483,197 L470,212 M483,197 L496,212" filter="url(#f1mkl9ypx0ee41)" style="stroke:#a80036;stroke-width:2"/><text x="448" y="231.995" fill="#000" font-family="sans-serif" font-size="14" lengthAdjust="spacingAndGlyphs" textLength="70">一个参与者</text><ellipse cx="595" cy="162" fill="#FEFECE" filter="url(#f1mkl9ypx0ee41)" rx="8" ry="8" style="stroke:#a80036;stroke-width:2"/><path fill="none" d="M595,170 L595,197 M582,178 L608,178 M595,197 L582,212 M595,197 L608,212" filter="url(#f1mkl9ypx0ee41)" style="stroke:#a80036;stroke-width:2"/><text x="553" y="231.995" fill="#000" font-family="sans-serif" font-size="14" lengthAdjust="spacingAndGlyphs" textLength="84">另一个参与者</text><ellipse cx="351" cy="322" fill="#FEFECE" filter="url(#f1mkl9ypx0ee41)" rx="8" ry="8" style="stroke:#a80036;stroke-width:2"/><path fill="none" d="M351,330 L351,357 M338,338 L364,338 M351,357 L338,372 M351,357 L364,372" filter="url(#f1mkl9ypx0ee41)" style="stroke:#a80036;stroke-width:2"/><text x="331.5" y="391.995" fill="#000" font-family="sans-serif" font-size="14" lengthAdjust="spacingAndGlyphs" textLength="39">Men3</text><ellipse cx="455" cy="322" fill="#FEFECE" filter="url(#f1mkl9ypx0ee41)" rx="8" ry="8" style="stroke:#a80036;stroke-width:2"/><path fill="none" d="M455,330 L455,357 M442,338 L468,338 M455,357 L442,372 M455,357 L468,372" filter="url(#f1mkl9ypx0ee41)" style="stroke:#a80036;stroke-width:2"/><text x="406" y="391.995" fill="#000" font-family="sans-serif" font-size="14" lengthAdjust="spacingAndGlyphs" textLength="98">最后一个参与者</text><ellipse cx="21" cy="162" fill="#FEFECE" filter="url(#f1mkl9ypx0ee41)" rx="8" ry="8" style="stroke:#a80036;stroke-width:2"/><path fill="none" d="M21,170 L21,197 M8,178 L34,178 M21,197 L8,212 M21,197 L34,212" filter="url(#f1mkl9ypx0ee41)" style="stroke:#a80036;stroke-width:2"/><text x="7" y="231.995" fill="#000" font-family="sans-serif" font-size="14" lengthAdjust="spacingAndGlyphs" textLength="28">用户</text><ellipse cx="93.799" cy="193.524" fill="#FEFECE" filter="url(#f1mkl9ypx0ee41)" rx="22.799" ry="14.524" style="stroke:#a80036;stroke-width:1.5"/><text x="79.799" y="198.172" fill="#000" font-family="sans-serif" font-size="14" lengthAdjust="spacingAndGlyphs" textLength="28">开始</text><ellipse cx="127.184" cy="353.524" fill="#FEFECE" filter="url(#f1mkl9ypx0ee41)" rx="41.184" ry="14.524" style="stroke:#a80036;stroke-width:1.5"/><text x="100.184" y="358.172" fill="#000" font-family="sans-serif" font-size="14" lengthAdjust="spacingAndGlyphs" textLength="54">使用app</text><ellipse cx="187" cy="18" fill="#FEFECE" filter="url(#f1mkl9ypx0ee41)" rx="8" ry="8" style="stroke:#a80036;stroke-width:2"/><path fill="none" d="M187,26 L187,53 M174,34 L200,34 M187,53 L174,68 M187,53 L200,68" filter="url(#f1mkl9ypx0ee41)" style="stroke:#a80036;stroke-width:2"/><text x="166" y="87.995" fill="#000" font-family="sans-serif" font-size="14" lengthAdjust="spacingAndGlyphs" textLength="42">管理员</text><path id="用户-开始" fill="none" d="M36.1133,193.5 C45.9978,193.5 55.8823,193.5 65.7668,193.5" style="stroke:#a80036;stroke-width:1"/><polygon fill="#A80036" points="70.936 193.5 61.936 189.5 65.936 193.5 61.936 197.5 70.936 193.5" style="stroke:#a80036;stroke-width:1"/><path id="用户-使用app" fill="none" d="M36.1872,216.4241 C57.2707,248.2483 95.012,305.2162 114.5368,334.6876" style="stroke:#a80036;stroke-width:1"/><polygon fill="#A80036" points="117.509 339.173 115.873 329.462 114.747 335.005 109.204 333.88 117.509 339.173" style="stroke:#a80036;stroke-width:1"/><text x="79" y="278.067" fill="#000" font-family="sans-serif" font-size="13" lengthAdjust="spacingAndGlyphs" textLength="52">用户入口</text><path id="管理员-使用app" fill="none" d="M178.7831,91.1325 C165.6533,157.6565 140.4459,285.374 130.8435,334.0263" style="stroke:#a80036;stroke-width:1"/><polygon fill="#A80036" points="129.857 339.023 135.524 330.968 130.826 334.118 127.676 329.419 129.857 339.023" style="stroke:#a80036;stroke-width:1"/><text x="168" y="198.067" fill="#000" font-family="sans-serif" font-size="13" lengthAdjust="spacingAndGlyphs" textLength="65">管理员入口</text></g></svg>