<svg xmlns="http://www.w3.org/2000/svg" xmlns:xlink="http://www.w3.org/1999/xlink" width="434" height="375" contentScriptType="application/ecmascript" contentStyleType="text/css" style="width:434px;height:375px;background:#eeebdc" preserveAspectRatio="none" version="1.1" viewBox="0 0 434 375" zoomAndPan="magnify"><defs><filter id="fvihy1l1vghv0" width="300%" height="300%" x="-1" y="-1"><feGaussianBlur result="blurOut" stdDeviation="2"/><feColorMatrix in="blurOut" result="blurOut2" type="matrix" values="0 0 0 0 0 0 0 0 0 0 0 0 0 0 0 0 0 0 .4 0"/><feOffset dx="4" dy="4" in="blurOut2" result="blurOut3"/><feBlend in="SourceGraphic" in2="blurOut3" mode="normal"/></filter></defs><g><polygon fill="#A9DCDF" points="108.5 120.922 108.5 120.992 110.5 120.784 112.5 120.986 114.5 121.055 116.5 120.684 118.5 120.922 118.422 120.922 118.073 130.633 118.117 140.344 118.432 150.055 117.809 159.766 119.054 169.477 117.87 179.188 118.302 188.898 118.932 198.609 118.414 208.32 118.568 218.031 118.468 227.742 118.678 237.453 118.739 247.164 119.086 256.875 118.5 266.586 118.5 266.81 116.5 266.812 114.5 266.671 112.5 266.74 110.5 266.82 108.5 266.586 107.779 266.586 109.178 256.875 108.204 247.164 109.034 237.453 108.005 227.742 108.431 218.031 109.242 208.32 108.451 198.609 108.605 188.898 108.839 179.188 108.916 169.477 108.496 159.766 108.787 150.055 107.928 140.344 108.784 130.633 108.5 120.922" filter="url(#fvihy1l1vghv0)" style="stroke:#00f;stroke-width:1"/><polygon fill="#A9DCDF" points="249.5 150.055 249.5 150.125 251.5 149.917 253.5 150.119 255.5 150.188 257.5 149.817 259.5 150.055 259.422 150.055 259.074 159.766 259.116 169.477 259.432 179.188 258.809 188.898 260.054 198.609 258.87 208.32 259.302 218.031 259.932 227.742 259.5 237.453 259.5 237.424 257.5 237.476 255.5 237.442 253.5 237.513 251.5 237.533 249.5 237.453 250.086 237.453 250.171 227.742 250.179 218.031 249.755 208.32 249.964 198.609 250.202 188.898 248.779 179.188 250.179 169.477 249.203 159.766 249.5 150.055" filter="url(#fvihy1l1vghv0)" style="stroke:#00f;stroke-width:1"/><polygon fill="#A9DCDF" points="372.5 179.188 372.5 179.258 374.5 179.049 376.5 179.252 378.5 179.321 380.5 178.95 382.5 179.188 382.474 179.188 382.358 185.014 382.372 190.841 382.477 196.667 382.269 202.494 382.5 208.32 382.5 208.505 380.5 208.11 378.5 208.254 376.5 208.464 374.5 208.292 372.5 208.32 372.523 208.32 372.489 202.494 372.56 196.667 372.58 190.841 372.695 185.014 372.5 179.188" filter="url(#fvihy1l1vghv0)" style="stroke:#00f;stroke-width:1"/><path fill="none" d="M30,89.7891 L30.2802,89.7891 L29.4476,100.0415 L30.2577,110.294 L30.5329,120.5465 L29.0488,130.7989 L29.8964,141.0514 L29.4313,151.3039 L29.4887,161.5563 L29.9091,171.8088 L29.0782,182.0613 L30.7382,192.3137 L29.1596,202.5662 L29.7363,212.8187 L30.5759,223.0711 L29.8856,233.3236 L30.091,243.5761 L29.9574,253.8285 L30.238,264.081 L30.3188,274.3335 L30,284.5859" style="stroke:#00f;stroke-width:1;stroke-dasharray:5,5"/><path fill="none" d="M113,89.7891 L113.2802,89.7891 L112.4476,100.0415 L113.2577,110.294 L113.5329,120.5465 L112.0488,130.7989 L112.8964,141.0514 L112.4313,151.3039 L112.4887,161.5563 L112.9091,171.8088 L112.0782,182.0613 L113.7382,192.3137 L112.1596,202.5662 L112.7363,212.8187 L113.5759,223.0711 L112.8856,233.3236 L113.091,243.5761 L112.9574,253.8285 L113.238,264.081 L113.3188,274.3335 L113,284.5859" style="stroke:#00f;stroke-width:1;stroke-dasharray:5,5"/><path fill="none" d="M254.5,89.7891 L254.7802,89.7891 L253.9476,100.0415 L254.7577,110.294 L255.0329,120.5465 L253.5488,130.7989 L254.3964,141.0514 L253.9313,151.3039 L253.9887,161.5563 L254.4091,171.8088 L253.5782,182.0613 L255.2382,192.3137 L253.6596,202.5662 L254.2363,212.8187 L255.0759,223.0711 L254.3856,233.3236 L254.591,243.5761 L254.4574,253.8285 L254.738,264.081 L254.8188,274.3335 L254.5,284.5859" style="stroke:#00f;stroke-width:1;stroke-dasharray:5,5"/><path fill="none" d="M377.5,89.7891 L377.7802,89.7891 L376.9476,100.0415 L377.7577,110.294 L378.0329,120.5465 L376.5488,130.7989 L377.3964,141.0514 L376.9313,151.3039 L376.9887,161.5563 L377.4091,171.8088 L376.5782,182.0613 L378.2382,192.3137 L376.6596,202.5662 L377.2363,212.8187 L378.0759,223.0711 L377.3856,233.3236 L377.591,243.5761 L377.4574,253.8285 L377.738,264.081 L377.8188,274.3335 L377.5,284.5859" style="stroke:#00f;stroke-width:1;stroke-dasharray:5,5"/><text x="8" y="85.78" fill="#00BFFF" font-family="Aapex" font-size="17" lengthAdjust="spacingAndGlyphs" textLength="38">User</text><polygon fill="#0FF" points="38.044 14.946 36.871 16.548 35.484 18.895 33.501 20.477 31.416 21.341 29.754 21.417 27.618 20.335 25.602 19.628 24.072 18.194 23.27 16.551 22.794 15.243 22.328 13.535 21.571 12.065 22.152 10.63 22.662 9.058 24.574 7.814 25.919 6.201 27.584 5.665 29.564 5.204 32.102 5.478 33.492 6.133 35.109 6.431 37.074 8.444 37.76 10.57 38.057 12.021 37.72 14.411" filter="url(#fvihy1l1vghv0)" style="stroke:#00bfff;stroke-width:2"/><path fill="none" d="M30,21 L30.1868,21 L29.6317,26.4 L30.1718,31.8 L30.3553,37.2 L29.3659,42.6 L30,48 M17,29 L17,28.9309 L22.2,28.6209 L27.4,28.6591 L32.6,28.9394 L37.8,28.3854 L43,29 M30,48 L30.3719,48.3223 L26.9766,50.6331 L24.6672,53.8849 L22.4901,57.2515 L19.5424,59.9501 L17,63 M30,48 L30.0458,48.0397 L32.5785,50.9814 L35.3199,54.1039 L37.9606,57.1392 L40.7934,60.341 L43,63" filter="url(#fvihy1l1vghv0)" style="stroke:#00bfff;stroke-width:2"/><text x="8" y="299.366" fill="#00BFFF" font-family="Aapex" font-size="17" lengthAdjust="spacingAndGlyphs" textLength="38">User</text><polygon fill="#0FF" points="38.044 315.321 36.871 316.923 35.484 319.27 33.501 320.852 31.416 321.716 29.754 321.792 27.618 320.71 25.602 320.003 24.072 318.569 23.27 316.926 22.794 315.618 22.328 313.91 21.571 312.44 22.152 311.005 22.662 309.433 24.574 308.189 25.919 306.576 27.584 306.04 29.564 305.579 32.102 305.853 33.492 306.509 35.109 306.806 37.074 308.819 37.76 310.945 38.057 312.396 37.72 314.786" filter="url(#fvihy1l1vghv0)" style="stroke:#00bfff;stroke-width:2"/><path fill="none" d="M30,321.375 L30.1868,321.375 L29.6317,326.775 L30.1718,332.175 L30.3553,337.575 L29.3659,342.975 L30,348.375 M17,329.375 L17,329.3059 L22.2,328.9959 L27.4,329.0341 L32.6,329.3144 L37.8,328.7604 L43,329.375 M30,348.375 L30.3719,348.6973 L26.9766,351.0081 L24.6672,354.2599 L22.4901,357.6265 L19.5424,360.3251 L17,363.375 M30,348.375 L30.0458,348.4147 L32.5785,351.3564 L35.3199,354.4789 L37.9606,357.5142 L40.7934,360.716 L43,363.375" filter="url(#fvihy1l1vghv0)" style="stroke:#00bfff;stroke-width:2"/><polygon fill="#1E90FF" points="62 51 62 51.21 71.9 50.586 81.8 51.193 91.7 51.4 101.6 50.287 111.5 50.922 121.4 50.574 131.3 50.617 141.2 50.932 151.1 50.309 161 51 161.185 51 160.79 57.758 160.934 64.516 161.144 71.273 160.971 78.031 161 84.789 161 84.857 151.1 84.757 141.2 84.968 131.3 85.028 121.4 85.375 111.5 85.46 101.6 85.468 91.7 85.044 81.8 85.253 71.9 85.491 62 84.789 61.76 84.789 62.226 78.031 61.901 71.273 62.178 64.516 61.835 57.758 62 51" filter="url(#fvihy1l1vghv0)" style="stroke:#00bfff;stroke-width:1.5"/><text x="69" y="73.78" fill="#A9DCDF" font-family="Impact" font-size="17" lengthAdjust="spacingAndGlyphs" textLength="85">First Class</text><polygon fill="#1E90FF" points="62 283.586 62 283.796 71.9 283.172 81.8 283.779 91.7 283.986 101.6 282.873 111.5 283.508 121.4 283.159 131.3 283.202 141.2 283.518 151.1 282.895 161 283.586 161.185 283.586 160.79 290.344 160.934 297.102 161.144 303.859 160.971 310.617 161 317.375 161 317.443 151.1 317.343 141.2 317.553 131.3 317.614 121.4 317.961 111.5 318.046 101.6 318.054 91.7 317.63 81.8 317.839 71.9 318.077 62 317.375 61.76 317.375 62.226 310.617 61.901 303.859 62.178 297.102 61.835 290.344 62 283.586" filter="url(#fvihy1l1vghv0)" style="stroke:#00bfff;stroke-width:1.5"/><text x="69" y="306.366" fill="#A9DCDF" font-family="Impact" font-size="17" lengthAdjust="spacingAndGlyphs" textLength="85">First Class</text><polygon fill="#1E90FF" points="191.5 51 191.5 51.21 201.667 50.586 211.833 51.193 222 51.4 232.167 50.287 242.333 50.922 252.5 50.574 262.667 50.617 272.833 50.932 283 50.309 293.167 51.554 303.333 50.37 313.5 51 313.434 51 313.644 57.758 313.471 64.516 313.523 71.273 313.489 78.031 313.5 84.789 313.5 84.968 303.333 85.028 293.167 85.375 283 85.46 272.833 85.468 262.667 85.044 252.5 85.253 242.333 85.491 232.167 84.068 222 85.468 211.833 84.493 201.667 85.323 191.5 84.789 191.335 84.789 191.477 78.031 191.747 71.273 191.484 64.516 191.535 57.758 191.5 51" filter="url(#fvihy1l1vghv0)" style="stroke:#00bfff;stroke-width:1.5"/><text x="198.5" y="73.78" fill="#A9DCDF" font-family="Impact" font-size="17" lengthAdjust="spacingAndGlyphs" textLength="108">Second Class</text><polygon fill="#1E90FF" points="191.5 283.586 191.5 283.796 201.667 283.172 211.833 283.779 222 283.986 232.167 282.873 242.333 283.508 252.5 283.159 262.667 283.202 272.833 283.518 283 282.895 293.167 284.14 303.333 282.956 313.5 283.586 313.434 283.586 313.644 290.344 313.471 297.102 313.523 303.859 313.489 310.617 313.5 317.375 313.5 317.553 303.333 317.614 293.167 317.961 283 318.046 272.833 318.054 262.667 317.63 252.5 317.839 242.333 318.077 232.167 316.654 222 318.053 211.833 317.079 201.667 317.909 191.5 317.375 191.335 317.375 191.477 310.617 191.747 303.859 191.484 297.102 191.535 290.344 191.5 283.586" filter="url(#fvihy1l1vghv0)" style="stroke:#00bfff;stroke-width:1.5"/><text x="198.5" y="306.366" fill="#A9DCDF" font-family="Impact" font-size="17" lengthAdjust="spacingAndGlyphs" textLength="108">Second Class</text><polygon fill="#1E90FF" points="327.5 51 327.5 51.21 337.1 50.586 346.7 51.193 356.3 51.4 365.9 50.287 375.5 50.922 385.1 50.574 394.7 50.617 404.3 50.932 413.9 50.309 423.5 51 423.685 51 423.29 57.758 423.434 64.516 423.644 71.273 423.471 78.031 423.5 84.789 423.5 84.857 413.9 84.757 404.3 84.968 394.7 85.028 385.1 85.375 375.5 85.46 365.9 85.468 356.3 85.044 346.7 85.253 337.1 85.491 327.5 84.789 327.26 84.789 327.726 78.031 327.401 71.273 327.678 64.516 327.335 57.758 327.5 51" filter="url(#fvihy1l1vghv0)" style="stroke:#00bfff;stroke-width:1.5"/><text x="334.5" y="73.78" fill="#A9DCDF" font-family="Impact" font-size="17" lengthAdjust="spacingAndGlyphs" textLength="82">Last Class</text><polygon fill="#1E90FF" points="327.5 283.586 327.5 283.796 337.1 283.172 346.7 283.779 356.3 283.986 365.9 282.873 375.5 283.508 385.1 283.159 394.7 283.202 404.3 283.518 413.9 282.895 423.5 283.586 423.685 283.586 423.29 290.344 423.434 297.102 423.644 303.859 423.471 310.617 423.5 317.375 423.5 317.443 413.9 317.343 404.3 317.553 394.7 317.614 385.1 317.961 375.5 318.046 365.9 318.054 356.3 317.63 346.7 317.839 337.1 318.077 327.5 317.375 327.26 317.375 327.726 310.617 327.401 303.859 327.678 297.102 327.335 290.344 327.5 283.586" filter="url(#fvihy1l1vghv0)" style="stroke:#00bfff;stroke-width:1.5"/><text x="334.5" y="306.366" fill="#A9DCDF" font-family="Impact" font-size="17" lengthAdjust="spacingAndGlyphs" textLength="82">Last Class</text><polygon fill="#A9DCDF" points="108.5 120.922 108.5 120.992 110.5 120.784 112.5 120.986 114.5 121.055 116.5 120.684 118.5 120.922 118.422 120.922 118.073 130.633 118.117 140.344 118.432 150.055 117.809 159.766 119.054 169.477 117.87 179.188 118.302 188.898 118.932 198.609 118.414 208.32 118.568 218.031 118.468 227.742 118.678 237.453 118.739 247.164 119.086 256.875 118.5 266.586 118.5 266.81 116.5 266.812 114.5 266.671 112.5 266.74 110.5 266.82 108.5 266.586 107.779 266.586 109.178 256.875 108.204 247.164 109.034 237.453 108.005 227.742 108.431 218.031 109.242 208.32 108.451 198.609 108.605 188.898 108.839 179.188 108.916 169.477 108.496 159.766 108.787 150.055 107.928 140.344 108.784 130.633 108.5 120.922" filter="url(#fvihy1l1vghv0)" style="stroke:#00f;stroke-width:1"/><polygon fill="#A9DCDF" points="249.5 150.055 249.5 150.125 251.5 149.917 253.5 150.119 255.5 150.188 257.5 149.817 259.5 150.055 259.422 150.055 259.074 159.766 259.116 169.477 259.432 179.188 258.809 188.898 260.054 198.609 258.87 208.32 259.302 218.031 259.932 227.742 259.5 237.453 259.5 237.424 257.5 237.476 255.5 237.442 253.5 237.513 251.5 237.533 249.5 237.453 250.086 237.453 250.171 227.742 250.179 218.031 249.755 208.32 249.964 198.609 250.202 188.898 248.779 179.188 250.179 169.477 249.203 159.766 249.5 150.055" filter="url(#fvihy1l1vghv0)" style="stroke:#00f;stroke-width:1"/><polygon fill="#A9DCDF" points="372.5 179.188 372.5 179.258 374.5 179.049 376.5 179.252 378.5 179.321 380.5 178.95 382.5 179.188 382.474 179.188 382.358 185.014 382.372 190.841 382.477 196.667 382.269 202.494 382.5 208.32 382.5 208.505 380.5 208.11 378.5 208.254 376.5 208.464 374.5 208.292 372.5 208.32 372.523 208.32 372.489 202.494 372.56 196.667 372.58 190.841 372.695 185.014 372.5 179.188" filter="url(#fvihy1l1vghv0)" style="stroke:#00f;stroke-width:1"/><polygon fill="#00BFFF" points="96.5 116.922 96.526 116.987 98.449 117.594 100.524 118.582 102.549 119.446 104.412 119.901 106.5 120.922 106.49 120.898 104.447 121.59 102.453 122.403 100.492 123.301 98.414 123.908 96.5 124.922 96.63 125.052 97.151 123.973 98.053 123.275 99.002 122.624 99.68 121.702 100.5 120.922 100.516 120.938 99.692 120.114 98.942 119.364 98.156 118.578 97.438 117.86 96.5 116.922" style="stroke:#00bfff;stroke-width:1"/><path fill="none" d="M30,120.9219 L30,121.2021 L40.3571,120.3694 L50.7143,121.1796 L61.0714,121.4548 L71.4286,119.9707 L81.7857,120.8183 L92.1429,120.3532 L102.5,120.9219" style="stroke:#00bfff;stroke-width:1"/><text x="37" y="115.856" fill="#000" font-family="sans-serif" font-size="13" lengthAdjust="spacingAndGlyphs" textLength="49">DoWork</text><polygon fill="#00BFFF" points="237.5 146.055 237.526 146.12 239.449 146.726 241.524 147.714 243.549 148.578 245.412 149.034 247.5 150.055 247.49 150.031 245.447 150.723 243.452 151.536 241.492 152.434 239.414 153.041 237.5 154.055 237.631 154.185 238.151 153.106 239.053 152.408 240.002 151.756 240.68 150.834 241.5 150.055 241.516 150.071 240.692 149.247 239.942 148.497 239.156 147.711 238.438 146.993 237.5 146.055" style="stroke:#00bfff;stroke-width:1"/><path fill="none" d="M118.5,150.0547 L118.5,150.3349 L128.1154,149.5023 L137.7308,150.3124 L147.3462,150.5876 L156.9615,149.1035 L166.5769,149.9511 L176.1923,149.486 L185.8077,149.5434 L195.4231,149.9638 L205.0385,149.1329 L214.6538,150.7929 L224.2692,149.2143 L233.8846,149.791 L243.5,150.0547" style="stroke:#00bfff;stroke-width:1"/><text x="125.5" y="144.989" fill="#000" font-family="sans-serif" font-size="13" lengthAdjust="spacingAndGlyphs" textLength="99">Create Request</text><polygon fill="#00BFFF" points="360.5 175.188 360.526 175.252 362.449 175.859 364.524 176.847 366.55 177.711 368.412 178.167 370.5 179.188 370.49 179.163 368.447 179.856 366.452 180.669 364.492 181.566 362.414 182.173 360.5 183.188 360.63 183.318 361.151 182.239 362.053 181.541 363.002 180.889 363.68 179.967 364.5 179.188 364.516 179.204 363.692 178.38 362.942 177.63 362.156 176.844 361.438 176.125 360.5 175.188" style="stroke:#00bfff;stroke-width:1"/><path fill="none" d="M259.5,179.1875 L259.5,179.4677 L269.2273,178.6351 L278.9545,179.4452 L288.6818,179.7204 L298.4091,178.2363 L308.1364,179.0839 L317.8636,178.6188 L327.5909,178.6762 L337.3182,179.0966 L347.0455,178.2657 L356.7727,179.9257 L366.5,179.1875" style="stroke:#00bfff;stroke-width:1"/><text x="266.5" y="174.122" fill="#000" font-family="sans-serif" font-size="13" lengthAdjust="spacingAndGlyphs" textLength="49">DoWork</text><polygon fill="#00BFFF" points="270.5 204.32 270.526 204.385 268.449 204.992 266.524 205.98 264.55 206.844 262.412 207.299 260.5 208.32 260.49 208.296 262.447 208.988 264.452 209.802 266.492 210.699 268.414 211.306 270.5 212.32 270.63 212.451 269.551 211.372 268.853 210.674 268.202 210.022 267.28 209.1 266.5 208.32 266.516 208.336 267.293 207.513 268.142 206.762 268.956 205.977 269.838 205.258 270.5 204.32" style="stroke:#00bfff;stroke-width:1"/><path fill="none" d="M264.5,208.3203 L264.5,208.6006 L274.6818,207.7679 L284.8636,208.578 L295.0455,208.8532 L305.2273,207.3691 L315.4091,208.2167 L325.5909,207.7517 L335.7727,207.809 L345.9545,208.2294 L356.1364,207.3985 L366.3182,209.0585 L376.5,208.3203" style="stroke:#00bfff;stroke-width:1;stroke-dasharray:2,2"/><text x="276.5" y="203.254" fill="#000" font-family="sans-serif" font-size="13" lengthAdjust="spacingAndGlyphs" textLength="65">WorkDone</text><path fill="none" d="M368.5,199.3203 L368.5661,199.3864 L371.9698,202.7901 L375.7607,206.5811 L379.4256,210.2459 L382.6758,213.4961 L386.5,217.3203" style="stroke:#00f;stroke-width:2"/><path fill="none" d="M368.5,217.3203 L368.5661,217.3864 L371.9698,213.5901 L375.7607,210.1811 L379.4256,206.6459 L382.6758,202.6961 L386.5,199.3203" style="stroke:#00f;stroke-width:2"/><polygon fill="#00BFFF" points="129.5 233.453 129.526 233.518 127.449 234.125 125.524 235.113 123.549 235.977 121.412 236.432 119.5 237.453 119.49 237.429 121.447 238.121 123.453 238.934 125.492 239.832 127.414 240.439 129.5 241.453 129.631 241.584 128.551 240.505 127.853 239.806 127.202 239.155 126.28 238.233 125.5 237.453 125.516 237.469 126.293 236.646 127.142 235.895 127.956 235.109 128.838 234.391 129.5 233.453" style="stroke:#00bfff;stroke-width:1"/><path fill="none" d="M123.5,237.4531 L123.5,237.7334 L133.5,236.9007 L143.5,237.7108 L153.5,237.986 L163.5,236.5019 L173.5,237.3495 L183.5,236.8845 L193.5,236.9418 L203.5,237.3622 L213.5,236.5313 L223.5,238.1913 L233.5,236.6128 L243.5,237.1894 L253.5,237.4531" style="stroke:#00bfff;stroke-width:1;stroke-dasharray:2,2"/><text x="135.5" y="232.387" fill="#000" font-family="sans-serif" font-size="13" lengthAdjust="spacingAndGlyphs" textLength="107">Request Created</text><polygon fill="#00BFFF" points="41 262.586 41.026 262.651 38.949 263.258 37.024 264.246 35.05 265.11 32.912 265.565 31 266.586 30.99 266.562 32.947 267.254 34.953 268.067 36.992 268.965 38.914 269.572 41 270.586 41.13 270.716 40.051 269.637 39.353 268.939 38.702 268.288 37.78 267.366 37 266.586 37.016 266.602 37.792 265.778 38.642 265.028 39.456 264.242 40.338 263.524 41 262.586" style="stroke:#00bfff;stroke-width:1"/><path fill="none" d="M35,266.5859 L35,266.8662 L44.6875,266.0335 L54.375,266.8437 L64.0625,267.1188 L73.75,265.6347 L83.4375,266.4823 L93.125,266.0173 L102.8125,266.0746 L112.5,266.5859" style="stroke:#00bfff;stroke-width:1;stroke-dasharray:2,2"/><text x="47" y="261.52" fill="#000" font-family="sans-serif" font-size="13" lengthAdjust="spacingAndGlyphs" textLength="34">Done</text></g></svg>