<svg xmlns="http://www.w3.org/2000/svg" xmlns:xlink="http://www.w3.org/1999/xlink" width="309" height="301" contentScriptType="application/ecmascript" contentStyleType="text/css" style="width:309px;height:301px" preserveAspectRatio="none" version="1.1" viewBox="0 0 309 301" zoomAndPan="magnify"><defs><filter id="f15jm48bviitw6" width="300%" height="300%" x="-1" y="-1"><feGaussianBlur result="blurOut" stdDeviation="2"/><feColorMatrix in="blurOut" result="blurOut2" type="matrix" values="0 0 0 0 0 0 0 0 0 0 0 0 0 0 0 0 0 0 .4 0"/><feOffset dx="4" dy="4" in="blurOut2" result="blurOut3"/><feBlend in="SourceGraphic" in2="blurOut3" mode="normal"/></filter></defs><g><line style="stroke:#a80036;stroke-width:1;stroke-dasharray:5,5" x1="33" x2="33" y1="38.297" y2="261.094"/><line style="stroke:#a80036;stroke-width:1;stroke-dasharray:5,5" x1="269" x2="269" y1="38.297" y2="261.094"/><rect style="stroke:#a80036;stroke-width:1.5" width="46" height="30.297" x="8" y="3" fill="#FEFECE" filter="url(#f15jm48bviitw6)"/><text x="15" y="22.995" fill="#000" font-family="sans-serif" font-size="14" lengthAdjust="spacingAndGlyphs" textLength="32">Alice</text><rect style="stroke:#a80036;stroke-width:1.5" width="46" height="30.297" x="8" y="260.094" fill="#FEFECE" filter="url(#f15jm48bviitw6)"/><text x="15" y="280.089" fill="#000" font-family="sans-serif" font-size="14" lengthAdjust="spacingAndGlyphs" textLength="32">Alice</text><rect style="stroke:#a80036;stroke-width:1.5" width="42" height="30.297" x="246" y="3" fill="#FEFECE" filter="url(#f15jm48bviitw6)"/><text x="253" y="22.995" fill="#000" font-family="sans-serif" font-size="14" lengthAdjust="spacingAndGlyphs" textLength="28">Bob</text><rect style="stroke:#a80036;stroke-width:1.5" width="42" height="30.297" x="246" y="260.094" fill="#FEFECE" filter="url(#f15jm48bviitw6)"/><text x="253" y="280.089" fill="#000" font-family="sans-serif" font-size="14" lengthAdjust="spacingAndGlyphs" textLength="28">Bob</text><rect style="stroke:#eee;stroke-width:1" width="294" height="3" x="3" y="68.863" fill="#EEE" filter="url(#f15jm48bviitw6)"/><line style="stroke:#000;stroke-width:1" x1="3" x2="297" y1="68.863" y2="68.863"/><line style="stroke:#000;stroke-width:1" x1="3" x2="297" y1="71.863" y2="71.863"/><rect style="stroke:#000;stroke-width:2" width="108" height="23.133" x="96" y="58.297" fill="#EEE" filter="url(#f15jm48bviitw6)"/><text x="102" y="74.364" fill="#000" font-family="sans-serif" font-size="13" font-weight="bold" lengthAdjust="spacingAndGlyphs" textLength="89">Initialization</text><polygon fill="#A80036" points="257 108.563 267 112.563 257 116.563 261 112.563" style="stroke:#a80036;stroke-width:1"/><line style="stroke:#a80036;stroke-width:1" x1="33" x2="263" y1="112.563" y2="112.563"/><text x="40" y="107.497" fill="#000" font-family="sans-serif" font-size="13" lengthAdjust="spacingAndGlyphs" textLength="149">Authentication Request</text><polygon fill="#A80036" points="44 137.695 34 141.695 44 145.695 40 141.695" style="stroke:#a80036;stroke-width:1"/><line style="stroke:#a80036;stroke-width:1;stroke-dasharray:2,2" x1="38" x2="268" y1="141.695" y2="141.695"/><text x="50" y="136.629" fill="#000" font-family="sans-serif" font-size="13" lengthAdjust="spacingAndGlyphs" textLength="159">Authentication Response</text><rect style="stroke:#eee;stroke-width:1" width="294" height="3" x="3" y="170.262" fill="#EEE" filter="url(#f15jm48bviitw6)"/><line style="stroke:#000;stroke-width:1" x1="3" x2="297" y1="170.262" y2="170.262"/><line style="stroke:#000;stroke-width:1" x1="3" x2="297" y1="173.262" y2="173.262"/><rect style="stroke:#000;stroke-width:2" width="95" height="23.133" x="102.5" y="159.695" fill="#EEE" filter="url(#f15jm48bviitw6)"/><text x="108.5" y="175.762" fill="#000" font-family="sans-serif" font-size="13" font-weight="bold" lengthAdjust="spacingAndGlyphs" textLength="76">Repetition</text><polygon fill="#A80036" points="257 209.961 267 213.961 257 217.961 261 213.961" style="stroke:#a80036;stroke-width:1"/><line style="stroke:#a80036;stroke-width:1" x1="33" x2="263" y1="213.961" y2="213.961"/><text x="40" y="208.895" fill="#000" font-family="sans-serif" font-size="13" lengthAdjust="spacingAndGlyphs" textLength="203">Another authentication Request</text><polygon fill="#A80036" points="44 239.094 34 243.094 44 247.094 40 243.094" style="stroke:#a80036;stroke-width:1"/><line style="stroke:#a80036;stroke-width:1;stroke-dasharray:2,2" x1="38" x2="268" y1="243.094" y2="243.094"/><text x="50" y="238.028" fill="#000" font-family="sans-serif" font-size="13" lengthAdjust="spacingAndGlyphs" textLength="212">another authentication Response</text></g></svg>