<svg xmlns="http://www.w3.org/2000/svg" xmlns:xlink="http://www.w3.org/1999/xlink" width="127" height="150" contentScriptType="application/ecmascript" contentStyleType="text/css" style="width:127px;height:150px" preserveAspectRatio="none" version="1.1" viewBox="0 0 127 150" zoomAndPan="magnify"><defs><filter id="f1dqaxu5lff7u2" width="300%" height="300%" x="-1" y="-1"><feGaussianBlur result="blurOut" stdDeviation="2"/><feColorMatrix in="blurOut" result="blurOut2" type="matrix" values="0 0 0 0 0 0 0 0 0 0 0 0 0 0 0 0 0 0 .4 0"/><feOffset dx="4" dy="4" in="blurOut2" result="blurOut3"/><feBlend in="SourceGraphic" in2="blurOut3" mode="normal"/></filter></defs><g><line style="stroke:none;stroke-width:1.5" x1="24" x2="101" y1="10" y2="10"/><rect style="stroke:#a80036;stroke-width:1.5" width="28" height="33.969" x="10" y="31.5" fill="#FEFECE" filter="url(#f1dqaxu5lff7u2)" rx="12.5" ry="12.5"/><text x="20" y="52.639" fill="#000" font-family="sans-serif" font-size="12" lengthAdjust="spacingAndGlyphs" textLength="8">A</text><rect style="stroke:#a80036;stroke-width:1.5" width="28" height="33.969" x="48.5" y="31.5" fill="#FEFECE" filter="url(#f1dqaxu5lff7u2)" rx="12.5" ry="12.5"/><text x="58.5" y="52.639" fill="#000" font-family="sans-serif" font-size="12" lengthAdjust="spacingAndGlyphs" textLength="8">B</text><rect style="stroke:#a80036;stroke-width:1.5" width="28" height="33.969" x="87" y="31.5" fill="#FEFECE" filter="url(#f1dqaxu5lff7u2)" rx="12.5" ry="12.5"/><text x="97" y="52.639" fill="#000" font-family="sans-serif" font-size="12" lengthAdjust="spacingAndGlyphs" textLength="8">C</text><line style="stroke:#a80036;stroke-width:1.5" x1="24" x2="101" y1="85.469" y2="85.469"/><rect style="stroke:#a80036;stroke-width:1.5" width="29" height="33.969" x="48" y="105.469" fill="#FEFECE" filter="url(#f1dqaxu5lff7u2)" rx="12.5" ry="12.5"/><text x="58" y="126.607" fill="#000" font-family="sans-serif" font-size="12" lengthAdjust="spacingAndGlyphs" textLength="9">D</text><line style="stroke:#a80036;stroke-width:1.5" x1="24" x2="24" y1="65.469" y2="85.469"/><polygon fill="#A80036" points="20 75.469 24 85.469 28 75.469 24 79.469" style="stroke:#a80036;stroke-width:1"/><line style="stroke:#a80036;stroke-width:1.5" x1="62.5" x2="62.5" y1="65.469" y2="85.469"/><polygon fill="#A80036" points="58.5 75.469 62.5 85.469 66.5 75.469 62.5 79.469" style="stroke:#a80036;stroke-width:1"/><line style="stroke:#a80036;stroke-width:1.5" x1="101" x2="101" y1="65.469" y2="85.469"/><polygon fill="#A80036" points="97 75.469 101 85.469 105 75.469 101 79.469" style="stroke:#a80036;stroke-width:1"/><line style="stroke:#a80036;stroke-width:1.5" x1="62.5" x2="62.5" y1="86.969" y2="105.469"/><polygon fill="#A80036" points="58.5 95.469 62.5 105.469 66.5 95.469 62.5 99.469" style="stroke:#a80036;stroke-width:1"/></g></svg>