<svg xmlns="http://www.w3.org/2000/svg" xmlns:xlink="http://www.w3.org/1999/xlink" width="121" height="156" contentScriptType="application/ecmascript" contentStyleType="text/css" style="width:121px;height:156px" preserveAspectRatio="none" version="1.1" viewBox="0 0 121 156" zoomAndPan="magnify"><defs><filter id="f1n2drr15k98rc" width="300%" height="300%" x="-1" y="-1"><feGaussianBlur result="blurOut" stdDeviation="2"/><feColorMatrix in="blurOut" result="blurOut2" type="matrix" values="0 0 0 0 0 0 0 0 0 0 0 0 0 0 0 0 0 0 .4 0"/><feOffset dx="4" dy="4" in="blurOut2" result="blurOut3"/><feBlend in="SourceGraphic" in2="blurOut3" mode="normal"/></filter></defs><g><line style="stroke:#a80036;stroke-width:1;stroke-dasharray:5,5" x1="31" x2="31" y1="38.297" y2="116.563"/><line style="stroke:#a80036;stroke-width:1;stroke-dasharray:5,5" x1="89" x2="89" y1="38.297" y2="116.563"/><rect style="stroke:#a80036;stroke-width:1.5" width="42" height="30.297" x="8" y="3" fill="#FEFECE" filter="url(#f1n2drr15k98rc)"/><text x="15" y="22.995" fill="#000" font-family="sans-serif" font-size="14" lengthAdjust="spacingAndGlyphs" textLength="28">Bob</text><rect style="stroke:#a80036;stroke-width:1.5" width="42" height="30.297" x="8" y="115.563" fill="#FEFECE" filter="url(#f1n2drr15k98rc)"/><text x="15" y="135.558" fill="#000" font-family="sans-serif" font-size="14" lengthAdjust="spacingAndGlyphs" textLength="28">Bob</text><rect style="stroke:#a80036;stroke-width:1.5" width="46" height="30.297" x="64" y="3" fill="#FEFECE" filter="url(#f1n2drr15k98rc)"/><text x="71" y="22.995" fill="#000" font-family="sans-serif" font-size="14" lengthAdjust="spacingAndGlyphs" textLength="32">Alice</text><rect style="stroke:#a80036;stroke-width:1.5" width="46" height="30.297" x="64" y="115.563" fill="#FEFECE" filter="url(#f1n2drr15k98rc)"/><text x="71" y="135.558" fill="#000" font-family="sans-serif" font-size="14" lengthAdjust="spacingAndGlyphs" textLength="32">Alice</text><polygon fill="red" points="77 65.43 87 69.43 77 73.43 81 69.43" style="stroke:red;stroke-width:1"/><line style="stroke:red;stroke-width:1" x1="31" x2="83" y1="69.43" y2="69.43"/><text x="38" y="64.364" fill="#000" font-family="sans-serif" font-size="13" lengthAdjust="spacingAndGlyphs" textLength="30">hello</text><polygon fill="#00F" points="42 94.563 32 98.563 42 102.563 38 98.563" style="stroke:#00f;stroke-width:1"/><line style="stroke:#00f;stroke-width:1;stroke-dasharray:2,2" x1="36" x2="88" y1="98.563" y2="98.563"/><text x="48" y="93.497" fill="#000" font-family="sans-serif" font-size="13" lengthAdjust="spacingAndGlyphs" textLength="15">ok</text></g></svg>