<svg xmlns="http://www.w3.org/2000/svg" xmlns:xlink="http://www.w3.org/1999/xlink" width="431" height="501" contentScriptType="application/ecmascript" contentStyleType="text/css" style="width:431px;height:501px" preserveAspectRatio="none" version="1.1" viewBox="0 0 431 501" zoomAndPan="magnify"><defs><filter id="f12d2rj4tk64op" width="300%" height="300%" x="-1" y="-1"><feGaussianBlur result="blurOut" stdDeviation="2"/><feColorMatrix in="blurOut" result="blurOut2" type="matrix" values="0 0 0 0 0 0 0 0 0 0 0 0 0 0 0 0 0 0 .4 0"/><feOffset dx="4" dy="4" in="blurOut2" result="blurOut3"/><feBlend in="SourceGraphic" in2="blurOut3" mode="normal"/></filter></defs><g><rect style="stroke:#a80036;stroke-width:1.5" width="58" height="33.969" x="199.5" y="10" fill="#FEFECE" filter="url(#f12d2rj4tk64op)" rx="12.5" ry="12.5"/><text x="209.5" y="31.139" fill="#000" font-family="sans-serif" font-size="12" lengthAdjust="spacingAndGlyphs" textLength="38">Ready</text><rect style="stroke:#a80036;stroke-width:1.5" width="65" height="33.969" x="196" y="63.969" fill="#FEFECE" filter="url(#f12d2rj4tk64op)"/><line style="stroke:#a80036;stroke-width:1.5" x1="201" x2="201" y1="63.969" y2="97.938"/><line style="stroke:#a80036;stroke-width:1.5" x1="256" x2="256" y1="63.969" y2="97.938"/><text x="206" y="85.107" fill="#000" font-family="sans-serif" font-size="12" lengthAdjust="spacingAndGlyphs" textLength="45">next(o)</text><rect style="stroke:#a80036;stroke-width:1.5" width="79" height="33.969" x="189" y="117.938" fill="#FEFECE" filter="url(#f12d2rj4tk64op)" rx="12.5" ry="12.5"/><text x="199" y="139.076" fill="#000" font-family="sans-serif" font-size="12" lengthAdjust="spacingAndGlyphs" textLength="59">Receiving</text><line style="stroke:#a80036;stroke-width:1.5" x1="50" x2="394.5" y1="171.906" y2="171.906"/><polygon fill="#FEFECE" points="22 252.859 88 252.859 78 269.844 88 286.828 22 286.828" filter="url(#f12d2rj4tk64op)" style="stroke:#a80036;stroke-width:1.5"/><text x="32" y="273.998" fill="#000" font-family="sans-serif" font-size="12" lengthAdjust="spacingAndGlyphs" textLength="36">nak(i)</text><polygon fill="#FEFECE" points="20 321.828 80 321.828 90 338.813 80 355.797 20 355.797" filter="url(#f12d2rj4tk64op)" style="stroke:#a80036;stroke-width:1.5"/><text x="30" y="342.967" fill="#000" font-family="sans-serif" font-size="12" lengthAdjust="spacingAndGlyphs" textLength="40">ack(o)</text><polygon fill="#FEFECE" points="128 191.906 193 191.906 183 208.891 193 225.875 128 225.875" filter="url(#f12d2rj4tk64op)" style="stroke:#a80036;stroke-width:1.5"/><text x="138" y="213.045" fill="#000" font-family="sans-serif" font-size="12" lengthAdjust="spacingAndGlyphs" textLength="35">ack(i)</text><rect style="stroke:#a80036;stroke-width:1.5" width="111" height="47.938" x="100" y="245.875" fill="#FEFECE" filter="url(#f12d2rj4tk64op)"/><line style="stroke:#a80036;stroke-width:1.5" x1="105" x2="105" y1="245.875" y2="293.813"/><line style="stroke:#a80036;stroke-width:1.5" x1="206" x2="206" y1="245.875" y2="293.813"/><text x="110" y="267.014" fill="#000" font-family="sans-serif" font-size="12" lengthAdjust="spacingAndGlyphs" textLength="45">next(o)</text><text x="110" y="280.982" fill="#000" font-family="sans-serif" font-size="12" lengthAdjust="spacingAndGlyphs" textLength="91">on several line</text><rect style="stroke:#a80036;stroke-width:1.5" width="74" height="33.969" x="118.5" y="328.813" fill="#FEFECE" filter="url(#f12d2rj4tk64op)"/><text x="128.5" y="349.951" fill="#000" font-family="sans-serif" font-size="12" lengthAdjust="spacingAndGlyphs" textLength="54">i := i + 1</text><polygon fill="#FEFECE" points="125.5 382.781 185.5 382.781 195.5 399.766 185.5 416.75 125.5 416.75" filter="url(#f12d2rj4tk64op)" style="stroke:#a80036;stroke-width:1.5"/><text x="135.5" y="403.92" fill="#000" font-family="sans-serif" font-size="12" lengthAdjust="spacingAndGlyphs" textLength="40">ack(o)</text><polygon fill="#FEFECE" points="244 252.859 305 252.859 295 269.844 305 286.828 244 286.828" filter="url(#f12d2rj4tk64op)" style="stroke:#a80036;stroke-width:1.5"/><text x="254" y="273.998" fill="#000" font-family="sans-serif" font-size="12" lengthAdjust="spacingAndGlyphs" textLength="31">err(i)</text><polygon fill="#FEFECE" points="239 321.828 300 321.828 310 338.813 300 355.797 239 355.797" filter="url(#f12d2rj4tk64op)" style="stroke:#a80036;stroke-width:1.5"/><text x="249" y="342.967" fill="#000" font-family="sans-serif" font-size="12" lengthAdjust="spacingAndGlyphs" textLength="41">nak(o)</text><polygon fill="#FEFECE" points="330 287.344 360 287.344 350 321.313 320 321.313" filter="url(#f12d2rj4tk64op)" style="stroke:#a80036;stroke-width:1.5"/><text x="330" y="308.482" fill="#000" font-family="sans-serif" font-size="12" lengthAdjust="spacingAndGlyphs" textLength="20">foo</text><path fill="#FEFECE" d="M375,258.8438 L370,275.8281 L375,292.8125 M414,258.8438 L419,275.8281 L414,292.8125" filter="url(#f12d2rj4tk64op)" style="stroke:#a80036;stroke-width:1.5"/><text x="380" y="279.982" fill="#000" font-family="sans-serif" font-size="12" lengthAdjust="spacingAndGlyphs" textLength="29">i &gt; 5</text><ellipse cx="394.5" cy="338.813" fill="#FFF" filter="url(#f12d2rj4tk64op)" rx="11" ry="11" style="stroke:#000;stroke-width:1"/><ellipse cx="394.5" cy="338.813" fill="#000" rx="6" ry="6" style="stroke:#7f7f7f;stroke-width:1"/><line style="stroke:#a80036;stroke-width:1.5" x1="50" x2="340" y1="436.75" y2="436.75"/><rect style="stroke:#a80036;stroke-width:1.5" width="53" height="33.969" x="202" y="456.75" fill="#FEFECE" filter="url(#f12d2rj4tk64op)" rx="12.5" ry="12.5"/><text x="212" y="477.889" fill="#000" font-family="sans-serif" font-size="12" lengthAdjust="spacingAndGlyphs" textLength="33">finish</text><line style="stroke:#a80036;stroke-width:1.5" x1="228.5" x2="228.5" y1="43.969" y2="63.969"/><polygon fill="#A80036" points="224.5 53.969 228.5 63.969 232.5 53.969 228.5 57.969" style="stroke:#a80036;stroke-width:1"/><line style="stroke:#a80036;stroke-width:1.5" x1="228.5" x2="228.5" y1="97.938" y2="117.938"/><polygon fill="#A80036" points="224.5 107.938 228.5 117.938 232.5 107.938 228.5 111.938" style="stroke:#a80036;stroke-width:1"/><line style="stroke:#a80036;stroke-width:1.5" x1="50" x2="50" y1="286.828" y2="321.828"/><polygon fill="#A80036" points="46 311.828 50 321.828 54 311.828 50 315.828" style="stroke:#a80036;stroke-width:1"/><line style="stroke:#a80036;stroke-width:1.5" x1="155.5" x2="155.5" y1="225.875" y2="245.875"/><polygon fill="#A80036" points="151.5 235.875 155.5 245.875 159.5 235.875 155.5 239.875" style="stroke:#a80036;stroke-width:1"/><line style="stroke:#a80036;stroke-width:1.5" x1="155.5" x2="155.5" y1="293.813" y2="328.813"/><polygon fill="#A80036" points="151.5 318.813 155.5 328.813 159.5 318.813 155.5 322.813" style="stroke:#a80036;stroke-width:1"/><line style="stroke:#a80036;stroke-width:1.5" x1="155.5" x2="155.5" y1="362.781" y2="382.781"/><polygon fill="#A80036" points="151.5 372.781 155.5 382.781 159.5 372.781 155.5 376.781" style="stroke:#a80036;stroke-width:1"/><line style="stroke:#a80036;stroke-width:1.5" x1="269.5" x2="269.5" y1="286.828" y2="321.828"/><polygon fill="#A80036" points="265.5 311.828 269.5 321.828 273.5 311.828 269.5 315.828" style="stroke:#a80036;stroke-width:1"/><line style="stroke:#a80036;stroke-width:1.5" x1="394.5" x2="394.5" y1="292.813" y2="327.813"/><polygon fill="#A80036" points="390.5 317.813 394.5 327.813 398.5 317.813 394.5 321.813" style="stroke:#a80036;stroke-width:1"/><line style="stroke:#a80036;stroke-width:1.5" x1="50" x2="50" y1="173.406" y2="252.859"/><polygon fill="#A80036" points="46 242.859 50 252.859 54 242.859 50 246.859" style="stroke:#a80036;stroke-width:1"/><line style="stroke:#a80036;stroke-width:1.5" x1="155.5" x2="155.5" y1="173.406" y2="191.906"/><polygon fill="#A80036" points="151.5 181.906 155.5 191.906 159.5 181.906 155.5 185.906" style="stroke:#a80036;stroke-width:1"/><line style="stroke:#a80036;stroke-width:1.5" x1="269.5" x2="269.5" y1="173.406" y2="252.859"/><polygon fill="#A80036" points="265.5 242.859 269.5 252.859 273.5 242.859 269.5 246.859" style="stroke:#a80036;stroke-width:1"/><line style="stroke:#a80036;stroke-width:1.5" x1="340" x2="340" y1="173.406" y2="287.344"/><polygon fill="#A80036" points="336 277.344 340 287.344 344 277.344 340 281.344" style="stroke:#a80036;stroke-width:1"/><line style="stroke:#a80036;stroke-width:1.5" x1="394.5" x2="394.5" y1="173.406" y2="258.844"/><polygon fill="#A80036" points="390.5 248.844 394.5 258.844 398.5 248.844 394.5 252.844" style="stroke:#a80036;stroke-width:1"/><line style="stroke:#a80036;stroke-width:1.5" x1="50" x2="50" y1="355.797" y2="436.75"/><polygon fill="#A80036" points="46 426.75 50 436.75 54 426.75 50 430.75" style="stroke:#a80036;stroke-width:1"/><line style="stroke:#a80036;stroke-width:1.5" x1="155.5" x2="155.5" y1="416.75" y2="436.75"/><polygon fill="#A80036" points="151.5 426.75 155.5 436.75 159.5 426.75 155.5 430.75" style="stroke:#a80036;stroke-width:1"/><line style="stroke:#a80036;stroke-width:1.5" x1="269.5" x2="269.5" y1="355.797" y2="436.75"/><polygon fill="#A80036" points="265.5 426.75 269.5 436.75 273.5 426.75 269.5 430.75" style="stroke:#a80036;stroke-width:1"/><line style="stroke:#a80036;stroke-width:1.5" x1="340" x2="340" y1="321.313" y2="436.75"/><polygon fill="#A80036" points="336 426.75 340 436.75 344 426.75 340 430.75" style="stroke:#a80036;stroke-width:1"/><line style="stroke:#a80036;stroke-width:1.5" x1="228.5" x2="228.5" y1="151.906" y2="171.906"/><polygon fill="#A80036" points="224.5 161.906 228.5 171.906 232.5 161.906 228.5 165.906" style="stroke:#a80036;stroke-width:1"/><line style="stroke:#a80036;stroke-width:1.5" x1="228.5" x2="228.5" y1="438.25" y2="456.75"/><polygon fill="#A80036" points="224.5 446.75 228.5 456.75 232.5 446.75 228.5 450.75" style="stroke:#a80036;stroke-width:1"/></g></svg>