<svg xmlns="http://www.w3.org/2000/svg" xmlns:xlink="http://www.w3.org/1999/xlink" width="369" height="354" contentScriptType="application/ecmascript" contentStyleType="text/css" style="width:369px;height:354px" preserveAspectRatio="none" version="1.1" viewBox="0 0 369 354" zoomAndPan="magnify"><defs><filter id="f13e7gu0h35jq4" width="300%" height="300%" x="-1" y="-1"><feGaussianBlur result="blurOut" stdDeviation="2"/><feColorMatrix in="blurOut" result="blurOut2" type="matrix" values="0 0 0 0 0 0 0 0 0 0 0 0 0 0 0 0 0 0 .4 0"/><feOffset dx="4" dy="4" in="blurOut2" result="blurOut3"/><feBlend in="SourceGraphic" in2="blurOut3" mode="normal"/></filter></defs><g><line style="stroke:#a80036;stroke-width:1;stroke-dasharray:5,5" x1="141" x2="141" y1="38.297" y2="314.492"/><line style="stroke:#a80036;stroke-width:1;stroke-dasharray:5,5" x1="199" x2="199" y1="38.297" y2="314.492"/><rect style="stroke:#a80036;stroke-width:1.5" width="46" height="30.297" x="116" y="3" fill="#FEFECE" filter="url(#f13e7gu0h35jq4)"/><text x="123" y="22.995" fill="#000" font-family="sans-serif" font-size="14" lengthAdjust="spacingAndGlyphs" textLength="32">Alice</text><rect style="stroke:#a80036;stroke-width:1.5" width="46" height="30.297" x="116" y="313.492" fill="#FEFECE" filter="url(#f13e7gu0h35jq4)"/><text x="123" y="333.487" fill="#000" font-family="sans-serif" font-size="14" lengthAdjust="spacingAndGlyphs" textLength="32">Alice</text><rect style="stroke:#a80036;stroke-width:1.5" width="42" height="30.297" x="176" y="3" fill="#FEFECE" filter="url(#f13e7gu0h35jq4)"/><text x="183" y="22.995" fill="#000" font-family="sans-serif" font-size="14" lengthAdjust="spacingAndGlyphs" textLength="28">Bob</text><rect style="stroke:#a80036;stroke-width:1.5" width="42" height="30.297" x="176" y="313.492" fill="#FEFECE" filter="url(#f13e7gu0h35jq4)"/><text x="183" y="333.487" fill="#000" font-family="sans-serif" font-size="14" lengthAdjust="spacingAndGlyphs" textLength="28">Bob</text><path fill="#0FF" d="M8,53.2969 L8,93.2969 L132,93.2969 L132,63.2969 L122,53.2969 L8,53.2969" filter="url(#f13e7gu0h35jq4)" style="stroke:#a80036;stroke-width:1"/><path fill="#0FF" d="M122,53.2969 L122,63.2969 L132,63.2969 L122,53.2969" style="stroke:#a80036;stroke-width:1"/><text x="14" y="70.364" fill="#000" font-family="sans-serif" font-size="13" lengthAdjust="spacingAndGlyphs" textLength="103">This is displayed</text><text x="14" y="85.497" fill="#000" font-family="sans-serif" font-size="13" lengthAdjust="spacingAndGlyphs" textLength="74">left of Alice.</text><path fill="#FBFB77" d="M146,107.5625 L146,132.5625 L357,132.5625 L357,117.5625 L347,107.5625 L146,107.5625" filter="url(#f13e7gu0h35jq4)" style="stroke:#a80036;stroke-width:1"/><path fill="#FBFB77" d="M347,107.5625 L347,117.5625 L357,117.5625 L347,107.5625" style="stroke:#a80036;stroke-width:1"/><text x="152" y="124.629" fill="#000" font-family="sans-serif" font-size="13" lengthAdjust="spacingAndGlyphs" textLength="190">This is displayed right of Alice.</text><path fill="#FBFB77" d="M42,146.6953 L42,171.6953 L236,171.6953 L236,156.6953 L226,146.6953 L42,146.6953" filter="url(#f13e7gu0h35jq4)" style="stroke:#a80036;stroke-width:1"/><path fill="#FBFB77" d="M226,146.6953 L226,156.6953 L236,156.6953 L226,146.6953" style="stroke:#a80036;stroke-width:1"/><text x="48" y="163.762" fill="#000" font-family="sans-serif" font-size="13" lengthAdjust="spacingAndGlyphs" textLength="173">This is displayed over Alice.</text><path fill="#FAA" d="M94,185.8281 L94,225.8281 L242,225.8281 L242,195.8281 L232,185.8281 L94,185.8281" filter="url(#f13e7gu0h35jq4)" style="stroke:#a80036;stroke-width:1"/><path fill="#FAA" d="M232,185.8281 L232,195.8281 L242,195.8281 L232,185.8281" style="stroke:#a80036;stroke-width:1"/><text x="100" y="202.895" fill="#000" font-family="sans-serif" font-size="13" lengthAdjust="spacingAndGlyphs" textLength="103">This is displayed</text><text x="104" y="218.028" fill="#000" font-family="sans-serif" font-size="13" lengthAdjust="spacingAndGlyphs" textLength="123">over Bob and Alice.</text><path fill="#FBFB77" d="M99,240.0938 L99,295.0938 L237,295.0938 L237,250.0938 L227,240.0938 L99,240.0938" filter="url(#f13e7gu0h35jq4)" style="stroke:#a80036;stroke-width:1"/><path fill="#FBFB77" d="M227,240.0938 L227,250.0938 L237,250.0938 L227,240.0938" style="stroke:#a80036;stroke-width:1"/><text x="105" y="257.161" fill="#000" font-family="sans-serif" font-size="13" lengthAdjust="spacingAndGlyphs" textLength="117">This is yet another</text><text x="105" y="272.293" fill="#000" font-family="sans-serif" font-size="13" lengthAdjust="spacingAndGlyphs" textLength="71">example of</text><text x="105" y="287.426" fill="#000" font-family="sans-serif" font-size="13" lengthAdjust="spacingAndGlyphs" textLength="76">a long note.</text></g></svg>