<svg xmlns="http://www.w3.org/2000/svg" xmlns:xlink="http://www.w3.org/1999/xlink" width="556" height="516" contentScriptType="application/ecmascript" contentStyleType="text/css" style="width:556px;height:516px" preserveAspectRatio="none" version="1.1" viewBox="0 0 556 516" zoomAndPan="magnify"><defs><filter id="f60wr1xvulbnq" width="300%" height="300%" x="-1" y="-1"><feGaussianBlur result="blurOut" stdDeviation="2"/><feColorMatrix in="blurOut" result="blurOut2" type="matrix" values="0 0 0 0 0 0 0 0 0 0 0 0 0 0 0 0 0 0 .4 0"/><feOffset dx="4" dy="4" in="blurOut2" result="blurOut3"/><feBlend in="SourceGraphic" in2="blurOut3" mode="normal"/></filter></defs><g><ellipse cx="50.5" cy="18" fill="#FEFECE" filter="url(#f60wr1xvulbnq)" rx="8" ry="8" style="stroke:#a80036;stroke-width:2"/><path fill="none" d="M50.5,26 L50.5,53 M37.5,34 L63.5,34 M50.5,53 L37.5,68 M50.5,53 L63.5,68" filter="url(#f60wr1xvulbnq)" style="stroke:#a80036;stroke-width:2"/><text x="36.5" y="87.995" fill="#000" font-family="sans-serif" font-size="14" lengthAdjust="spacingAndGlyphs" textLength="28">用户</text><rect style="stroke:#a80036;stroke-width:1.5" width="48" height="36.297" x="100.5" y="31.5" fill="#FEFECE" filter="url(#f60wr1xvulbnq)"/><text x="110.5" y="54.495" fill="#000" font-family="sans-serif" font-size="14" lengthAdjust="spacingAndGlyphs" textLength="28">代理</text><rect style="stroke:#000;stroke-width:1.5" width="76" height="39.297" x="183.5" y="30" fill="#FEFECE" filter="url(#f60wr1xvulbnq)"/><polygon fill="#FEFECE" points="242.5 35 242.5 49 254.5 49 254.5 41 248.5 35 242.5 35" style="stroke:#000;stroke-width:1.5"/><line style="stroke:#000;stroke-width:1.5" x1="248.5" x2="248.5" y1="35" y2="41"/><line style="stroke:#000;stroke-width:1.5" x1="254.5" x2="248.5" y1="41" y2="41"/><text x="193.5" y="55.995" fill="#000" font-family="sans-serif" font-size="14" lengthAdjust="spacingAndGlyphs" textLength="46">artifact</text><path fill="none" d="M307,29.5 L307,53.5 M307,41.5 L324,41.5" filter="url(#f60wr1xvulbnq)" style="stroke:#a80036;stroke-width:2"/><ellipse cx="336" cy="41.5" fill="#FEFECE" filter="url(#f60wr1xvulbnq)" rx="12" ry="12" style="stroke:#a80036;stroke-width:2"/><text x="295" y="70.495" fill="#000" font-family="sans-serif" font-size="14" lengthAdjust="spacingAndGlyphs" textLength="65">boundary</text><rect style="stroke:#000;stroke-width:1.5" width="48" height="22.297" x="395.5" y="38.5" fill="#FEFECE" filter="url(#f60wr1xvulbnq)"/><text x="405.5" y="54.495" fill="#000" font-family="sans-serif" font-size="14" lengthAdjust="spacingAndGlyphs" textLength="28">卡版</text><path fill="#FEFECE" d="M37.443,161.6908 C39.2977,153.5251 45.7246,152.9156 51.23,157.8482 C56.6307,152.3677 62.3039,153.3745 64.9707,160.7665 C73.2825,162.3028 75.849,169.7174 69.9327,175.9144 C75.2507,182.7296 75.0502,189.6418 65.1635,191.929 C61.2971,198.0473 56.6497,197.348 52.5008,192.2478 C47.5058,200.2659 41.0187,199.9144 36.7592,191.5415 C28.1566,189.1743 27.5021,181.5643 32.8204,175.7294 C28.0331,169.4757 28.8156,163.5274 37.443,161.6908" style="stroke:#000;stroke-width:1.5"/><text x="43.5" y="179.995" fill="#000" font-family="sans-serif" font-size="14" lengthAdjust="spacingAndGlyphs" textLength="14">云</text><rect style="stroke:#a80036;stroke-width:1.5" width="48" height="36.297" x="107.5" y="157" fill="#FEFECE" filter="url(#f60wr1xvulbnq)"/><rect style="stroke:#a80036;stroke-width:1.5" width="10" height="5" x="102.5" y="162" fill="#FEFECE"/><rect style="stroke:#a80036;stroke-width:1.5" width="10" height="5" x="102.5" y="183.297" fill="#FEFECE"/><text x="117.5" y="179.995" fill="#000" font-family="sans-serif" font-size="14" lengthAdjust="spacingAndGlyphs" textLength="28">组件</text><ellipse cx="206.5" cy="167" fill="#FEFECE" filter="url(#f60wr1xvulbnq)" rx="12" ry="12" style="stroke:#a80036;stroke-width:2"/><polygon fill="#A80036" points="202.5 155 208.5 150 206.5 155 208.5 160 202.5 155" style="stroke:#a80036;stroke-width:1"/><text x="192.5" y="195.995" fill="#000" font-family="sans-serif" font-size="14" lengthAdjust="spacingAndGlyphs" textLength="28">控制</text><path fill="#FEFECE" d="M257.5,162.5 C257.5,152.5 288.5,152.5 288.5,152.5 C288.5,152.5 319.5,152.5 319.5,162.5 L319.5,187.7969 C319.5,197.7969 288.5,197.7969 288.5,197.7969 C288.5,197.7969 257.5,197.7969 257.5,187.7969 L257.5,162.5" filter="url(#f60wr1xvulbnq)" style="stroke:#000;stroke-width:1.5"/><path fill="none" d="M257.5,162.5 C257.5,172.5 288.5,172.5 288.5,172.5 C288.5,172.5 319.5,172.5 319.5,162.5" style="stroke:#000;stroke-width:1.5"/><text x="267.5" y="189.495" fill="#000" font-family="sans-serif" font-size="14" lengthAdjust="spacingAndGlyphs" textLength="42">数据库</text><ellipse cx="370.5" cy="167" fill="#FEFECE" filter="url(#f60wr1xvulbnq)" rx="12" ry="12" style="stroke:#a80036;stroke-width:2"/><line style="stroke:#a80036;stroke-width:2" x1="358.5" x2="382.5" y1="181" y2="181"/><text x="356.5" y="195.995" fill="#000" font-family="sans-serif" font-size="14" lengthAdjust="spacingAndGlyphs" textLength="28">实例</text><polygon fill="#FEFECE" points="26.5 270 26.5 306.297 74.5 306.297 74.5 280 64.5 270 26.5 270" filter="url(#f60wr1xvulbnq)" style="stroke:#000;stroke-width:1.5"/><path fill="#FEFECE" d="M64.5,270 L64.5,280 L74.5,280" style="stroke:#000;stroke-width:1.5"/><text x="36.5" y="292.995" fill="#000" font-family="sans-serif" font-size="14" lengthAdjust="spacingAndGlyphs" textLength="28">文件</text><polygon fill="#FEFECE" points="109.5 260 155.5 260 162.5 281 181.5 281 181.5 315.594 109.5 315.594 109.5 260" filter="url(#f60wr1xvulbnq)" style="stroke:#000;stroke-width:1.5"/><line style="stroke:#000;stroke-width:1.5" x1="109.5" x2="162.5" y1="281" y2="281"/><text x="119.5" y="300.995" fill="#000" font-family="sans-serif" font-size="14" lengthAdjust="spacingAndGlyphs" textLength="42">文件夹</text><rect style="stroke:#000;stroke-width:1.5" width="79" height="46.297" x="217" y="265" fill="#FEFECE" filter="url(#f60wr1xvulbnq)"/><path fill="none" d="M243.3333,266 L243.3333,270 L236.3333,277 L217,277" style="stroke:#000;stroke-width:1.5"/><text x="232" y="297.995" fill="#000" font-family="sans-serif" font-size="14" lengthAdjust="spacingAndGlyphs" textLength="39">frame</text><ellipse cx="369.5" cy="288" fill="#FEFECE" filter="url(#f60wr1xvulbnq)" rx="8" ry="8" style="stroke:#a80036;stroke-width:2"/><text x="339.5" y="317.995" fill="#000" font-family="sans-serif" font-size="14" lengthAdjust="spacingAndGlyphs" textLength="60">interface</text><polygon fill="#FEFECE" points="442.5 275 452.5 265 518.5 265 518.5 301.297 508.5 311.297 442.5 311.297 442.5 275" filter="url(#f60wr1xvulbnq)" style="stroke:#000;stroke-width:1.5"/><line style="stroke:#000;stroke-width:1.5" x1="508.5" x2="517.5" y1="275" y2="266"/><line style="stroke:#000;stroke-width:1.5" x1="442.5" x2="508.5" y1="275" y2="275"/><line style="stroke:#000;stroke-width:1.5" x1="508.5" x2="508.5" y1="275" y2="311.297"/><text x="457.5" y="297.995" fill="#000" font-family="sans-serif" font-size="14" lengthAdjust="spacingAndGlyphs" textLength="36">node</text><polygon fill="#FEFECE" points="6 377 71 377 78 399.297 95 399.297 95 416.297 6 416.297 6 377" filter="url(#f60wr1xvulbnq)" style="stroke:#000;stroke-width:1.5"/><line style="stroke:#000;stroke-width:1.5" x1="6" x2="78" y1="399.297" y2="399.297"/><text x="10" y="392.995" fill="#000" font-family="sans-serif" font-size="14" lengthAdjust="spacingAndGlyphs" textLength="59">package</text><path fill="#FEFECE" d="M135,383.5 L190,383.5 C195,383.5 195,396.6484 195,396.6484 C195,396.6484 195,409.7969 190,409.7969 L135,409.7969 C130,409.7969 130,396.6484 130,396.6484 C130,396.6484 130,383.5 135,383.5" filter="url(#f60wr1xvulbnq)" style="stroke:#a80036;stroke-width:1.5"/><path fill="none" d="M190,383.5 C185,383.5 185,396.6484 185,396.6484 C185,409.7969 190,409.7969 190,409.7969" style="stroke:#a80036;stroke-width:1.5"/><text x="135" y="401.495" fill="#000" font-family="sans-serif" font-size="14" lengthAdjust="spacingAndGlyphs" textLength="45">queue</text><rect style="stroke:none;stroke-width:1.5" width="57" height="36.297" x="245" y="378.5" fill="#FEFECE" filter="url(#f60wr1xvulbnq)"/><path fill="none" d="M230,378.5 L245,378.5 L245,414.7969 L302,414.7969 L302,378.5 L317,378.5" style="stroke:#a80036;stroke-width:1.5"/><text x="255" y="401.495" fill="#000" font-family="sans-serif" font-size="14" lengthAdjust="spacingAndGlyphs" textLength="37">stack</text><rect style="stroke:#000;stroke-width:1.5" width="85" height="36.297" x="352" y="378.5" fill="#FEFECE" filter="url(#f60wr1xvulbnq)"/><text x="362" y="401.495" fill="#000" font-family="sans-serif" font-size="14" lengthAdjust="spacingAndGlyphs" textLength="65">rectangle</text><rect style="stroke:#000;stroke-width:1.5" width="73" height="36.297" x="472" y="378.5" fill="#FEFECE" filter="url(#f60wr1xvulbnq)" rx="35" ry="35"/><text x="482" y="401.495" fill="#000" font-family="sans-serif" font-size="14" lengthAdjust="spacingAndGlyphs" textLength="53">storage</text><ellipse cx="50.719" cy="490.524" fill="#FEFECE" filter="url(#f60wr1xvulbnq)" rx="44.719" ry="14.524" style="stroke:#a80036;stroke-width:1.5"/><text x="21.219" y="495.172" fill="#000" font-family="sans-serif" font-size="14" lengthAdjust="spacingAndGlyphs" textLength="59">usecase</text></g></svg>