<svg xmlns="http://www.w3.org/2000/svg" xmlns:xlink="http://www.w3.org/1999/xlink" width="342" height="193" contentScriptType="application/ecmascript" contentStyleType="text/css" style="width:342px;height:193px" preserveAspectRatio="none" version="1.1" viewBox="0 0 342 193" zoomAndPan="magnify"><defs><filter id="fwzvmr8bfjsld" width="300%" height="300%" x="-1" y="-1"><feGaussianBlur result="blurOut" stdDeviation="2"/><feColorMatrix in="blurOut" result="blurOut2" type="matrix" values="0 0 0 0 0 0 0 0 0 0 0 0 0 0 0 0 0 0 .4 0"/><feOffset dx="4" dy="4" in="blurOut2" result="blurOut3"/><feBlend in="SourceGraphic" in2="blurOut3" mode="normal"/></filter></defs><g><rect id="Foo1" width="185" height="174.438" x="6" y="8" fill="#FEFECE" filter="url(#fwzvmr8bfjsld)" style="stroke:#a80036;stroke-width:1.5"/><ellipse cx="78.75" cy="24" fill="#ADD1B2" rx="11" ry="11" style="stroke:#a80036;stroke-width:1"/><path d="M81.7188,29.6406 Q81.1406,29.9375 80.5,30.0781 Q79.8594,30.2344 79.1563,30.2344 Q76.6563,30.2344 75.3281,28.5938 Q74.0156,26.9375 74.0156,23.8125 Q74.0156,20.6875 75.3281,19.0313 Q76.6563,17.375 79.1563,17.375 Q79.8594,17.375 80.5,17.5313 Q81.1563,17.6875 81.7188,17.9844 L81.7188,20.7031 Q81.0938,20.125 80.5,19.8594 Q79.9063,19.5781 79.2813,19.5781 Q77.9375,19.5781 77.25,20.6563 Q76.5625,21.7188 76.5625,23.8125 Q76.5625,25.9063 77.25,26.9844 Q77.9375,28.0469 79.2813,28.0469 Q79.9063,28.0469 80.5,27.7813 Q81.0938,27.5 81.7188,26.9219 L81.7188,29.6406 Z"/><text x="99.25" y="28.154" fill="#000" font-family="sans-serif" font-size="12" lengthAdjust="spacingAndGlyphs" textLength="31">Foo1</text><line style="stroke:#a80036;stroke-width:1.5" x1="7" x2="190" y1="40" y2="40"/><text x="12" y="54.21" fill="#000" font-family="sans-serif" font-size="11" lengthAdjust="spacingAndGlyphs" textLength="70">You can use</text><text x="12" y="67.015" fill="#000" font-family="sans-serif" font-size="11" lengthAdjust="spacingAndGlyphs" textLength="73">several lines</text><line style="stroke:#a80036;stroke-width:1;stroke-dasharray:1,2" x1="7" x2="190" y1="73.609" y2="73.609"/><text x="12" y="87.82" fill="#000" font-family="sans-serif" font-size="11" lengthAdjust="spacingAndGlyphs" textLength="69">as you want</text><text x="12" y="100.624" fill="#000" font-family="sans-serif" font-size="11" lengthAdjust="spacingAndGlyphs" textLength="58">and group</text><line style="stroke:#a80036;stroke-width:1" x1="7" x2="190" y1="107.219" y2="107.219"/><line style="stroke:#a80036;stroke-width:1" x1="7" x2="190" y1="109.219" y2="109.219"/><text x="12" y="121.429" fill="#000" font-family="sans-serif" font-size="11" lengthAdjust="spacingAndGlyphs" textLength="91">things together.</text><line style="stroke:#a80036;stroke-width:1.5" x1="7" x2="190" y1="128.023" y2="128.023"/><text x="12" y="142.234" fill="#000" font-family="sans-serif" font-size="11" lengthAdjust="spacingAndGlyphs" textLength="173">You can have as many groups</text><text x="12" y="155.039" fill="#000" font-family="sans-serif" font-size="11" lengthAdjust="spacingAndGlyphs" textLength="69">as you want</text><line style="stroke:#a80036;stroke-width:1" x1="7" x2="190" y1="161.633" y2="161.633"/><text x="12" y="175.843" fill="#000" font-family="sans-serif" font-size="11" lengthAdjust="spacingAndGlyphs" textLength="70">End of class</text><rect id="User" width="106" height="171.242" x="225.5" y="9.5" fill="#FEFECE" filter="url(#fwzvmr8bfjsld)" style="stroke:#a80036;stroke-width:1.5"/><ellipse cx="260.75" cy="25.5" fill="#ADD1B2" rx="11" ry="11" style="stroke:#a80036;stroke-width:1"/><path d="M263.7188,31.1406 Q263.1406,31.4375 262.5,31.5781 Q261.8594,31.7344 261.1563,31.7344 Q258.6563,31.7344 257.3281,30.0938 Q256.0156,28.4375 256.0156,25.3125 Q256.0156,22.1875 257.3281,20.5313 Q258.6563,18.875 261.1563,18.875 Q261.8594,18.875 262.5,19.0313 Q263.1563,19.1875 263.7188,19.4844 L263.7188,22.2031 Q263.0938,21.625 262.5,21.3594 Q261.9063,21.0781 261.2813,21.0781 Q259.9375,21.0781 259.25,22.1563 Q258.5625,23.2188 258.5625,25.3125 Q258.5625,27.4063 259.25,28.4844 Q259.9375,29.5469 261.2813,29.5469 Q261.9063,29.5469 262.5,29.2813 Q263.0938,29 263.7188,28.4219 L263.7188,31.1406 Z"/><text x="279.25" y="29.654" fill="#000" font-family="sans-serif" font-size="12" lengthAdjust="spacingAndGlyphs" textLength="29">User</text><line style="stroke:#a80036;stroke-width:1.5" x1="226.5" x2="330.5" y1="41.5" y2="41.5"/><ellipse cx="236.5" cy="70.207" fill="#84BE84" rx="3" ry="3" style="stroke:#038048;stroke-width:1"/><text x="245.5" y="72.515" fill="#000" font-family="sans-serif" font-size="11" lengthAdjust="spacingAndGlyphs" textLength="59">getName()</text><ellipse cx="236.5" cy="83.012" fill="#84BE84" rx="3" ry="3" style="stroke:#038048;stroke-width:1"/><text x="245.5" y="85.32" fill="#000" font-family="sans-serif" font-size="11" lengthAdjust="spacingAndGlyphs" textLength="73">getAddress()</text><line style="stroke:#a80036;stroke-width:1;stroke-dasharray:1,2" x1="226.5" x2="239" y1="55.902" y2="55.902"/><text x="239" y="59.21" fill="#000" font-family="sans-serif" font-size="11" lengthAdjust="spacingAndGlyphs" textLength="79">Simple Getter</text><line style="stroke:#a80036;stroke-width:1;stroke-dasharray:1,2" x1="318" x2="330.5" y1="55.902" y2="55.902"/><ellipse cx="236.5" cy="112.621" fill="#84BE84" rx="3" ry="3" style="stroke:#038048;stroke-width:1"/><text x="245.5" y="114.929" fill="#000" font-family="sans-serif" font-size="11" lengthAdjust="spacingAndGlyphs" textLength="59">setName()</text><line style="stroke:#a80036;stroke-width:1;stroke-dasharray:1,2" x1="226.5" x2="243" y1="98.316" y2="98.316"/><text x="243" y="101.624" fill="#000" font-family="sans-serif" font-size="11" lengthAdjust="spacingAndGlyphs" textLength="71">Some setter</text><line style="stroke:#a80036;stroke-width:1;stroke-dasharray:1,2" x1="314" x2="330.5" y1="98.316" y2="98.316"/><text x="231.5" y="144.539" fill="#000" font-family="sans-serif" font-size="11" lengthAdjust="spacingAndGlyphs" textLength="39">int age</text><line style="stroke:#a80036;stroke-width:1.5" x1="226.5" x2="244.5" y1="127.926" y2="127.926"/><text x="244.5" y="131.234" fill="#000" font-family="sans-serif" font-size="11" lengthAdjust="spacingAndGlyphs" textLength="68">private data</text><line style="stroke:#a80036;stroke-width:1.5" x1="312.5" x2="330.5" y1="127.926" y2="127.926"/><text x="231.5" y="174.148" fill="#000" font-family="sans-serif" font-size="11" lengthAdjust="spacingAndGlyphs" textLength="94">String password</text><line style="stroke:#a80036;stroke-width:1" x1="226.5" x2="250.5" y1="157.535" y2="157.535"/><text x="250.5" y="160.843" fill="#000" font-family="sans-serif" font-size="11" lengthAdjust="spacingAndGlyphs" textLength="56">encrypted</text><line style="stroke:#a80036;stroke-width:1" x1="306.5" x2="330.5" y1="157.535" y2="157.535"/></g></svg>