<svg xmlns="http://www.w3.org/2000/svg" xmlns:xlink="http://www.w3.org/1999/xlink" width="379" height="1138" contentScriptType="application/ecmascript" contentStyleType="text/css" style="width:379px;height:1138px" preserveAspectRatio="none" version="1.1" viewBox="0 0 379 1138" zoomAndPan="magnify"><defs><filter id="f1e4kvfzo2ey7w" width="300%" height="300%" x="-1" y="-1"><feGaussianBlur result="blurOut" stdDeviation="2"/><feColorMatrix in="blurOut" result="blurOut2" type="matrix" values="0 0 0 0 0 0 0 0 0 0 0 0 0 0 0 0 0 0 .4 0"/><feOffset dx="4" dy="4" in="blurOut2" result="blurOut3"/><feBlend in="SourceGraphic" in2="blurOut3" mode="normal"/></filter></defs><g><line style="stroke:#a80036;stroke-width:1;stroke-dasharray:5,5" x1="110" x2="110" y1="38.297" y2="1098.141"/><line style="stroke:#a80036;stroke-width:1;stroke-dasharray:5,5" x1="278" x2="278" y1="38.297" y2="1098.141"/><rect style="stroke:#a80036;stroke-width:1.5" width="56" height="30.297" x="80" y="3" fill="#FEFECE" filter="url(#f1e4kvfzo2ey7w)"/><text x="87" y="22.995" fill="#000" font-family="sans-serif" font-size="14" lengthAdjust="spacingAndGlyphs" textLength="42">客户端</text><rect style="stroke:#a80036;stroke-width:1.5" width="56" height="30.297" x="80" y="1097.141" fill="#FEFECE" filter="url(#f1e4kvfzo2ey7w)"/><text x="87" y="1117.136" fill="#000" font-family="sans-serif" font-size="14" lengthAdjust="spacingAndGlyphs" textLength="42">客户端</text><rect style="stroke:#a80036;stroke-width:1.5" width="56" height="30.297" x="248" y="3" fill="#FEFECE" filter="url(#f1e4kvfzo2ey7w)"/><text x="255" y="22.995" fill="#000" font-family="sans-serif" font-size="14" lengthAdjust="spacingAndGlyphs" textLength="42">服务端</text><rect style="stroke:#a80036;stroke-width:1.5" width="56" height="30.297" x="248" y="1097.141" fill="#FEFECE" filter="url(#f1e4kvfzo2ey7w)"/><text x="255" y="1117.136" fill="#000" font-family="sans-serif" font-size="14" lengthAdjust="spacingAndGlyphs" textLength="42">服务端</text><polygon fill="#A80036" points="266 65.43 276 69.43 266 73.43 270 69.43" style="stroke:#a80036;stroke-width:1"/><line style="stroke:#a80036;stroke-width:1" x1="110" x2="272" y1="69.43" y2="69.43"/><text x="117" y="64.364" fill="#000" font-family="sans-serif" font-size="13" font-weight="bold" lengthAdjust="spacingAndGlyphs" textLength="9">1</text><text x="130" y="64.364" fill="#000" font-family="sans-serif" font-size="13" lengthAdjust="spacingAndGlyphs" textLength="68">ClientHello</text><path fill="#FBFB77" d="M39,82.4297 L39,182.4297 L177,182.4297 L177,92.4297 L167,82.4297 L39,82.4297" filter="url(#f1e4kvfzo2ey7w)" style="stroke:#a80036;stroke-width:1"/><path fill="#FBFB77" d="M167,82.4297 L167,92.4297 L177,92.4297 L167,82.4297" style="stroke:#a80036;stroke-width:1"/><text x="45" y="99.497" fill="#000" font-family="sans-serif" font-size="13" lengthAdjust="spacingAndGlyphs" textLength="78">可用的版本号</text><text x="45" y="114.629" fill="#000" font-family="sans-serif" font-size="13" lengthAdjust="spacingAndGlyphs" textLength="52">当前时间</text><text x="45" y="129.762" fill="#000" font-family="sans-serif" font-size="13" lengthAdjust="spacingAndGlyphs" textLength="78">客户端随机数</text><text x="45" y="144.895" fill="#000" font-family="sans-serif" font-size="13" lengthAdjust="spacingAndGlyphs" textLength="41">会话 id</text><text x="45" y="160.028" fill="#000" font-family="sans-serif" font-size="13" lengthAdjust="spacingAndGlyphs" textLength="117">可用的密码套件清单</text><text x="45" y="175.161" fill="#000" font-family="sans-serif" font-size="13" lengthAdjust="spacingAndGlyphs" textLength="117">可用的压缩方式清单</text><polygon fill="#A80036" points="121 209.359 111 213.359 121 217.359 117 213.359" style="stroke:#a80036;stroke-width:1"/><line style="stroke:#a80036;stroke-width:1" x1="115" x2="277" y1="213.359" y2="213.359"/><text x="127" y="208.293" fill="#000" font-family="sans-serif" font-size="13" font-weight="bold" lengthAdjust="spacingAndGlyphs" textLength="9">2</text><text x="140" y="208.293" fill="#000" font-family="sans-serif" font-size="13" lengthAdjust="spacingAndGlyphs" textLength="74">ServerHello</text><path fill="#FBFB77" d="M220,226.3594 L220,326.3594 L332,326.3594 L332,236.3594 L322,226.3594 L220,226.3594" filter="url(#f1e4kvfzo2ey7w)" style="stroke:#a80036;stroke-width:1"/><path fill="#FBFB77" d="M322,226.3594 L322,236.3594 L332,236.3594 L322,226.3594" style="stroke:#a80036;stroke-width:1"/><text x="226" y="243.426" fill="#000" font-family="sans-serif" font-size="13" lengthAdjust="spacingAndGlyphs" textLength="78">使用的版本号</text><text x="226" y="258.559" fill="#000" font-family="sans-serif" font-size="13" lengthAdjust="spacingAndGlyphs" textLength="52">当前时间</text><text x="226" y="273.692" fill="#000" font-family="sans-serif" font-size="13" lengthAdjust="spacingAndGlyphs" textLength="78">服务器随机数</text><text x="226" y="288.825" fill="#000" font-family="sans-serif" font-size="13" lengthAdjust="spacingAndGlyphs" textLength="41">会话 id</text><text x="226" y="303.957" fill="#000" font-family="sans-serif" font-size="13" lengthAdjust="spacingAndGlyphs" textLength="91">使用的密码套件</text><text x="226" y="319.09" fill="#000" font-family="sans-serif" font-size="13" lengthAdjust="spacingAndGlyphs" textLength="91">使用的压缩方式</text><polygon fill="#A80036" points="121 353.289 111 357.289 121 361.289 117 357.289" style="stroke:#a80036;stroke-width:1"/><line style="stroke:#a80036;stroke-width:1" x1="115" x2="277" y1="357.289" y2="357.289"/><text x="127" y="352.223" fill="#000" font-family="sans-serif" font-size="13" font-weight="bold" lengthAdjust="spacingAndGlyphs" textLength="9">3</text><text x="140" y="352.223" fill="#000" font-family="sans-serif" font-size="13" lengthAdjust="spacingAndGlyphs" textLength="65">Certificate</text><path fill="#FBFB77" d="M239,370.2891 L239,395.2891 L312,395.2891 L312,380.2891 L302,370.2891 L239,370.2891" filter="url(#f1e4kvfzo2ey7w)" style="stroke:#a80036;stroke-width:1"/><path fill="#FBFB77" d="M302,370.2891 L302,380.2891 L312,380.2891 L302,370.2891" style="stroke:#a80036;stroke-width:1"/><text x="245" y="387.356" fill="#000" font-family="sans-serif" font-size="13" lengthAdjust="spacingAndGlyphs" textLength="52">证书清单</text><polygon fill="#A80036" points="121 421.555 111 425.555 121 429.555 117 425.555" style="stroke:#a80036;stroke-width:1"/><line style="stroke:#a80036;stroke-width:1" x1="115" x2="277" y1="425.555" y2="425.555"/><text x="127" y="420.489" fill="#000" font-family="sans-serif" font-size="13" font-weight="bold" lengthAdjust="spacingAndGlyphs" textLength="9">4</text><text x="140" y="420.489" fill="#000" font-family="sans-serif" font-size="13" lengthAdjust="spacingAndGlyphs" textLength="127">ServerKeyExchange</text><path fill="#FBFB77" d="M184,438.5547 L184,599.5547 L367,599.5547 L367,448.5547 L357,438.5547 L184,438.5547" filter="url(#f1e4kvfzo2ey7w)" style="stroke:#a80036;stroke-width:1"/><path fill="#FBFB77" d="M357,438.5547 L357,448.5547 L367,448.5547 L357,438.5547" style="stroke:#a80036;stroke-width:1"/><text x="190" y="455.622" fill="#000" font-family="sans-serif" font-size="13" lengthAdjust="spacingAndGlyphs" textLength="46">1. RSA:</text><text x="206" y="470.754" fill="#000" font-family="sans-serif" font-size="13" lengthAdjust="spacingAndGlyphs" textLength="78">公钥密码参数</text><text x="222" y="485.887" fill="#000" font-family="sans-serif" font-size="13" lengthAdjust="spacingAndGlyphs" textLength="73">N: modulus</text><text x="222" y="501.02" fill="#000" font-family="sans-serif" font-size="13" lengthAdjust="spacingAndGlyphs" textLength="76">E: exponent</text><text x="206" y="516.153" fill="#000" font-family="sans-serif" font-size="13" lengthAdjust="spacingAndGlyphs" textLength="39">散列值</text><text x="190" y="531.286" fill="#000" font-family="sans-serif" font-size="13" lengthAdjust="spacingAndGlyphs" textLength="162">2. Diffie-Hellman 密码交换</text><text x="206" y="546.418" fill="#000" font-family="sans-serif" font-size="13" lengthAdjust="spacingAndGlyphs" textLength="78">密码交换参数</text><text x="222" y="561.551" fill="#000" font-family="sans-serif" font-size="13" lengthAdjust="spacingAndGlyphs" textLength="112">P: prime modulus</text><text x="222" y="576.684" fill="#000" font-family="sans-serif" font-size="13" lengthAdjust="spacingAndGlyphs" textLength="81">G: generator</text><text x="206" y="591.817" fill="#000" font-family="sans-serif" font-size="13" lengthAdjust="spacingAndGlyphs" textLength="39">散列值</text><polygon fill="#A80036" points="121 626.016 111 630.016 121 634.016 117 630.016" style="stroke:#a80036;stroke-width:1"/><line style="stroke:#a80036;stroke-width:1" x1="115" x2="277" y1="630.016" y2="630.016"/><text x="127" y="624.95" fill="#000" font-family="sans-serif" font-size="13" font-weight="bold" lengthAdjust="spacingAndGlyphs" textLength="9">5</text><text x="140" y="624.95" fill="#000" font-family="sans-serif" font-size="13" lengthAdjust="spacingAndGlyphs" textLength="117">CertificateRequest</text><path fill="#FBFB77" d="M213,643.0156 L213,683.0156 L338,683.0156 L338,653.0156 L328,643.0156 L213,643.0156" filter="url(#f1e4kvfzo2ey7w)" style="stroke:#a80036;stroke-width:1"/><path fill="#FBFB77" d="M328,643.0156 L328,653.0156 L338,653.0156 L328,643.0156" style="stroke:#a80036;stroke-width:1"/><text x="219" y="660.082" fill="#000" font-family="sans-serif" font-size="13" lengthAdjust="spacingAndGlyphs" textLength="78">证书类型清单</text><text x="219" y="675.215" fill="#000" font-family="sans-serif" font-size="13" lengthAdjust="spacingAndGlyphs" textLength="104">认证机构名称清单</text><polygon fill="#A80036" points="121 709.414 111 713.414 121 717.414 117 713.414" style="stroke:#a80036;stroke-width:1"/><line style="stroke:#a80036;stroke-width:1" x1="115" x2="277" y1="713.414" y2="713.414"/><text x="127" y="708.348" fill="#000" font-family="sans-serif" font-size="13" font-weight="bold" lengthAdjust="spacingAndGlyphs" textLength="9">6</text><text x="140" y="708.348" fill="#000" font-family="sans-serif" font-size="13" lengthAdjust="spacingAndGlyphs" textLength="108">ServerHelloDone</text><polygon fill="#A80036" points="266 738.547 276 742.547 266 746.547 270 742.547" style="stroke:#a80036;stroke-width:1"/><line style="stroke:#a80036;stroke-width:1" x1="110" x2="272" y1="742.547" y2="742.547"/><text x="117" y="737.481" fill="#000" font-family="sans-serif" font-size="13" font-weight="bold" lengthAdjust="spacingAndGlyphs" textLength="9">7</text><text x="130" y="737.481" fill="#000" font-family="sans-serif" font-size="13" lengthAdjust="spacingAndGlyphs" textLength="65">Certificate</text><path fill="#FBFB77" d="M71,755.5469 L71,780.5469 L144,780.5469 L144,765.5469 L134,755.5469 L71,755.5469" filter="url(#f1e4kvfzo2ey7w)" style="stroke:#a80036;stroke-width:1"/><path fill="#FBFB77" d="M134,755.5469 L134,765.5469 L144,765.5469 L134,755.5469" style="stroke:#a80036;stroke-width:1"/><text x="77" y="772.614" fill="#000" font-family="sans-serif" font-size="13" lengthAdjust="spacingAndGlyphs" textLength="52">证书清单</text><polygon fill="#A80036" points="266 806.813 276 810.813 266 814.813 270 810.813" style="stroke:#a80036;stroke-width:1"/><line style="stroke:#a80036;stroke-width:1" x1="110" x2="272" y1="810.813" y2="810.813"/><text x="117" y="805.747" fill="#000" font-family="sans-serif" font-size="13" font-weight="bold" lengthAdjust="spacingAndGlyphs" textLength="9">8</text><text x="130" y="805.747" fill="#000" font-family="sans-serif" font-size="13" lengthAdjust="spacingAndGlyphs" textLength="121">ClientKeyExchange</text><path fill="#FBFB77" d="M8,823.8125 L8,893.8125 L208,893.8125 L208,833.8125 L198,823.8125 L8,823.8125" filter="url(#f1e4kvfzo2ey7w)" style="stroke:#a80036;stroke-width:1"/><path fill="#FBFB77" d="M198,823.8125 L198,833.8125 L208,833.8125 L198,823.8125" style="stroke:#a80036;stroke-width:1"/><text x="14" y="840.879" fill="#000" font-family="sans-serif" font-size="13" lengthAdjust="spacingAndGlyphs" textLength="46">1. RSA:</text><text x="30" y="856.012" fill="#000" font-family="sans-serif" font-size="13" lengthAdjust="spacingAndGlyphs" textLength="130">经过加密的预备主密码</text><text x="14" y="871.145" fill="#000" font-family="sans-serif" font-size="13" lengthAdjust="spacingAndGlyphs" textLength="162">2. Diffie-Hellman 密钥交换</text><text x="30" y="886.278" fill="#000" font-family="sans-serif" font-size="13" lengthAdjust="spacingAndGlyphs" textLength="163">客户端的 Y(即:G^x mod P)</text><polygon fill="#A80036" points="266 920.477 276 924.477 266 928.477 270 924.477" style="stroke:#a80036;stroke-width:1"/><line style="stroke:#a80036;stroke-width:1" x1="110" x2="272" y1="924.477" y2="924.477"/><text x="117" y="919.411" fill="#000" font-family="sans-serif" font-size="13" font-weight="bold" lengthAdjust="spacingAndGlyphs" textLength="9">9</text><text x="130" y="919.411" fill="#000" font-family="sans-serif" font-size="13" lengthAdjust="spacingAndGlyphs" textLength="101">CertificateVerify</text><path fill="#FBFB77" d="M71,937.4766 L71,962.4766 L144,962.4766 L144,947.4766 L134,937.4766 L71,937.4766" filter="url(#f1e4kvfzo2ey7w)" style="stroke:#a80036;stroke-width:1"/><path fill="#FBFB77" d="M134,937.4766 L134,947.4766 L144,947.4766 L134,937.4766" style="stroke:#a80036;stroke-width:1"/><text x="77" y="954.543" fill="#000" font-family="sans-serif" font-size="13" lengthAdjust="spacingAndGlyphs" textLength="52">数字签名</text><polygon fill="#A80036" points="266 988.742 276 992.742 266 996.742 270 992.742" style="stroke:#a80036;stroke-width:1"/><line style="stroke:#a80036;stroke-width:1" x1="110" x2="272" y1="992.742" y2="992.742"/><text x="117" y="987.676" fill="#000" font-family="sans-serif" font-size="13" font-weight="bold" lengthAdjust="spacingAndGlyphs" textLength="18">10</text><text x="139" y="987.676" fill="#000" font-family="sans-serif" font-size="13" lengthAdjust="spacingAndGlyphs" textLength="122">ChangeCipherSpec</text><polygon fill="#A80036" points="266 1017.875 276 1021.875 266 1025.875 270 1021.875" style="stroke:#a80036;stroke-width:1"/><line style="stroke:#a80036;stroke-width:1" x1="110" x2="272" y1="1021.875" y2="1021.875"/><text x="117" y="1016.809" fill="#000" font-family="sans-serif" font-size="13" font-weight="bold" lengthAdjust="spacingAndGlyphs" textLength="18">11</text><text x="139" y="1016.809" fill="#000" font-family="sans-serif" font-size="13" lengthAdjust="spacingAndGlyphs" textLength="52">Finished</text><polygon fill="#A80036" points="121 1047.008 111 1051.008 121 1055.008 117 1051.008" style="stroke:#a80036;stroke-width:1"/><line style="stroke:#a80036;stroke-width:1" x1="115" x2="277" y1="1051.008" y2="1051.008"/><text x="127" y="1045.942" fill="#000" font-family="sans-serif" font-size="13" font-weight="bold" lengthAdjust="spacingAndGlyphs" textLength="18">12</text><text x="149" y="1045.942" fill="#000" font-family="sans-serif" font-size="13" lengthAdjust="spacingAndGlyphs" textLength="122">ChangeCipherSpec</text><polygon fill="#A80036" points="121 1076.141 111 1080.141 121 1084.141 117 1080.141" style="stroke:#a80036;stroke-width:1"/><line style="stroke:#a80036;stroke-width:1" x1="115" x2="277" y1="1080.141" y2="1080.141"/><text x="127" y="1075.075" fill="#000" font-family="sans-serif" font-size="13" font-weight="bold" lengthAdjust="spacingAndGlyphs" textLength="18">13</text><text x="149" y="1075.075" fill="#000" font-family="sans-serif" font-size="13" lengthAdjust="spacingAndGlyphs" textLength="52">Finished</text></g></svg>