<svg xmlns="http://www.w3.org/2000/svg" xmlns:xlink="http://www.w3.org/1999/xlink" width="171" height="204" contentScriptType="application/ecmascript" contentStyleType="text/css" style="width:171px;height:204px" preserveAspectRatio="none" version="1.1" viewBox="0 0 171 204" zoomAndPan="magnify"><defs><filter id="f1oatq7tmasgg5" width="300%" height="300%" x="-1" y="-1"><feGaussianBlur result="blurOut" stdDeviation="2"/><feColorMatrix in="blurOut" result="blurOut2" type="matrix" values="0 0 0 0 0 0 0 0 0 0 0 0 0 0 0 0 0 0 .4 0"/><feOffset dx="4" dy="4" in="blurOut2" result="blurOut3"/><feBlend in="SourceGraphic" in2="blurOut3" mode="normal"/></filter></defs><g><ellipse cx="85" cy="20" fill="#000" filter="url(#f1oatq7tmasgg5)" rx="10" ry="10" style="stroke:none;stroke-width:1"/><rect style="stroke:#a80036;stroke-width:1.5" width="88" height="33.969" x="41" y="50" fill="#FEFECE" filter="url(#f1oatq7tmasgg5)" rx="12.5" ry="12.5"/><text x="51" y="71.139" fill="#000" font-family="sans-serif" font-size="12" lengthAdjust="spacingAndGlyphs" textLength="68">Hello world</text><rect style="stroke:#a80036;stroke-width:1.5" width="150" height="47.938" x="10" y="103.969" fill="#FEFECE" filter="url(#f1oatq7tmasgg5)" rx="12.5" ry="12.5"/><text x="20" y="125.107" fill="#000" font-family="sans-serif" font-size="12" lengthAdjust="spacingAndGlyphs" textLength="130">This is on defined on</text><text x="20" y="139.076" fill="#000" font-family="sans-serif" font-size="12" lengthAdjust="spacingAndGlyphs" textLength="45">several</text><text x="69" y="139.076" fill="#000" font-family="sans-serif" font-size="12" font-weight="bold" lengthAdjust="spacingAndGlyphs" textLength="34">lines</text><ellipse cx="85" cy="182.906" fill="#FFF" filter="url(#f1oatq7tmasgg5)" rx="11" ry="11" style="stroke:#000;stroke-width:1"/><ellipse cx="85" cy="182.906" fill="#000" rx="6" ry="6" style="stroke:#7f7f7f;stroke-width:1"/><line style="stroke:#a80036;stroke-width:1.5" x1="85" x2="85" y1="30" y2="50"/><polygon fill="#A80036" points="81 40 85 50 89 40 85 44" style="stroke:#a80036;stroke-width:1"/><line style="stroke:#a80036;stroke-width:1.5" x1="85" x2="85" y1="83.969" y2="103.969"/><polygon fill="#A80036" points="81 93.969 85 103.969 89 93.969 85 97.969" style="stroke:#a80036;stroke-width:1"/><line style="stroke:#a80036;stroke-width:1.5" x1="85" x2="85" y1="151.906" y2="171.906"/><polygon fill="#A80036" points="81 161.906 85 171.906 89 161.906 85 165.906" style="stroke:#a80036;stroke-width:1"/></g></svg>