<svg xmlns="http://www.w3.org/2000/svg" xmlns:xlink="http://www.w3.org/1999/xlink" width="223" height="230" contentScriptType="application/ecmascript" contentStyleType="text/css" style="width:223px;height:230px" preserveAspectRatio="none" version="1.1" viewBox="0 0 223 230" zoomAndPan="magnify"><defs><filter id="fr342k5yeicj" width="300%" height="300%" x="-1" y="-1"><feGaussianBlur result="blurOut" stdDeviation="2"/><feColorMatrix in="blurOut" result="blurOut2" type="matrix" values="0 0 0 0 0 0 0 0 0 0 0 0 0 0 0 0 0 0 .4 0"/><feOffset dx="4" dy="4" in="blurOut2" result="blurOut3"/><feBlend in="SourceGraphic" in2="blurOut3" mode="normal"/></filter></defs><g><ellipse cx="115" cy="20" fill="#000" filter="url(#fr342k5yeicj)" rx="10" ry="10" style="stroke:none;stroke-width:1"/><rect style="stroke:#a80036;stroke-width:1.5" width="82" height="33.969" x="74" y="94" fill="#FEFECE" filter="url(#fr342k5yeicj)" rx="12.5" ry="12.5"/><text x="84" y="115.139" fill="#000" font-family="sans-serif" font-size="12" lengthAdjust="spacingAndGlyphs" textLength="62">read data</text><rect style="stroke:#a80036;stroke-width:1.5" width="140" height="33.969" x="45" y="162.969" fill="#FEFECE" filter="url(#fr342k5yeicj)" rx="12.5" ry="12.5"/><text x="55" y="184.107" fill="#000" font-family="sans-serif" font-size="12" lengthAdjust="spacingAndGlyphs" textLength="120">generate diagrams</text><polygon fill="#FEFECE" points="72.5 50 157.5 50 169.5 62 157.5 74 72.5 74 60.5 62 72.5 50" filter="url(#fr342k5yeicj)" style="stroke:#a80036;stroke-width:1.5"/><text x="72.5" y="65.808" fill="#000" font-family="sans-serif" font-size="11" lengthAdjust="spacingAndGlyphs" textLength="85">data available?</text><ellipse cx="24" cy="105" fill="#FFF" filter="url(#fr342k5yeicj)" rx="11" ry="11" style="stroke:#000;stroke-width:1"/><ellipse cx="24" cy="105" fill="#000" rx="6" ry="6" style="stroke:#7f7f7f;stroke-width:1"/><line style="stroke:#a80036;stroke-width:1.5" x1="115" x2="115" y1="127.969" y2="162.969"/><polygon fill="#A80036" points="111 152.969 115 162.969 119 152.969 115 156.969" style="stroke:#a80036;stroke-width:1"/><line style="stroke:#a80036;stroke-width:1.5" x1="115" x2="115" y1="74" y2="94"/><polygon fill="#A80036" points="111 84 115 94 119 84 115 88" style="stroke:#a80036;stroke-width:1"/><line style="stroke:#a80036;stroke-width:1.5" x1="115" x2="115" y1="196.938" y2="206.938"/><line style="stroke:#a80036;stroke-width:1.5" x1="115" x2="197" y1="206.938" y2="206.938"/><polygon fill="#A80036" points="193 143.469 197 133.469 201 143.469 197 139.469" style="stroke:#a80036;stroke-width:1.5"/><line style="stroke:#a80036;stroke-width:1.5" x1="197" x2="197" y1="62" y2="206.938"/><line style="stroke:#a80036;stroke-width:1.5" x1="197" x2="169.5" y1="62" y2="62"/><polygon fill="#A80036" points="179.5 58 169.5 62 179.5 66 175.5 62" style="stroke:#a80036;stroke-width:1"/><line style="stroke:#a80036;stroke-width:1.5" x1="60.5" x2="24" y1="62" y2="62"/><line style="stroke:#a80036;stroke-width:1.5" x1="24" x2="24" y1="62" y2="94"/><polygon fill="#A80036" points="20 84 24 94 28 84 24 88" style="stroke:#a80036;stroke-width:1"/><line style="stroke:#a80036;stroke-width:1.5" x1="115" x2="115" y1="30" y2="50"/><polygon fill="#A80036" points="111 40 115 50 119 40 115 44" style="stroke:#a80036;stroke-width:1"/></g></svg>