<svg xmlns="http://www.w3.org/2000/svg" xmlns:xlink="http://www.w3.org/1999/xlink" width="348" height="214" contentScriptType="application/ecmascript" contentStyleType="text/css" style="width:348px;height:214px" preserveAspectRatio="none" version="1.1" viewBox="0 0 348 214" zoomAndPan="magnify"><defs><filter id="f1rk2prmxtw8gs" width="300%" height="300%" x="-1" y="-1"><feGaussianBlur result="blurOut" stdDeviation="2"/><feColorMatrix in="blurOut" result="blurOut2" type="matrix" values="0 0 0 0 0 0 0 0 0 0 0 0 0 0 0 0 0 0 .4 0"/><feOffset dx="4" dy="4" in="blurOut2" result="blurOut3"/><feBlend in="SourceGraphic" in2="blurOut3" mode="normal"/></filter></defs><g><ellipse cx="140.75" cy="20" fill="#000" filter="url(#f1rk2prmxtw8gs)" rx="10" ry="10" style="stroke:none;stroke-width:1"/><polygon fill="#FEFECE" points="87.25 50 194.25 50 206.25 62 194.25 74 87.25 74 75.25 62 87.25 50" filter="url(#f1rk2prmxtw8gs)" style="stroke:#a80036;stroke-width:1.5"/><text x="87.25" y="65.808" fill="#000" font-family="sans-serif" font-size="11" lengthAdjust="spacingAndGlyphs" textLength="107">Graphviz installed?</text><text x="55.25" y="59.406" fill="#000" font-family="sans-serif" font-size="11" lengthAdjust="spacingAndGlyphs" textLength="20">yes</text><text x="206.25" y="59.406" fill="#000" font-family="sans-serif" font-size="11" lengthAdjust="spacingAndGlyphs" textLength="14">no</text><rect style="stroke:#a80036;stroke-width:1.5" width="88" height="47.938" x="10" y="84" fill="#FEFECE" filter="url(#f1rk2prmxtw8gs)" rx="12.5" ry="12.5"/><text x="20" y="105.139" fill="#000" font-family="sans-serif" font-size="12" lengthAdjust="spacingAndGlyphs" textLength="68">process all</text><text x="20" y="119.107" fill="#000" font-family="sans-serif" font-size="12" lengthAdjust="spacingAndGlyphs" textLength="58">diagrams</text><rect style="stroke:#a80036;stroke-width:1.5" width="219" height="47.938" x="118" y="84" fill="#FEFECE" filter="url(#f1rk2prmxtw8gs)" rx="12.5" ry="12.5"/><text x="128" y="105.139" fill="#000" font-family="sans-serif" font-size="12" lengthAdjust="spacingAndGlyphs" textLength="79">process only</text><text x="128" y="119.107" fill="#000" font-family="sans-serif" font-size="12" lengthAdjust="spacingAndGlyphs" text-decoration="underline" textLength="62">sequence</text><text x="194" y="119.107" fill="#000" font-family="sans-serif" font-size="12" lengthAdjust="spacingAndGlyphs" textLength="24">and</text><text x="222" y="119.107" fill="#000" font-family="sans-serif" font-size="12" lengthAdjust="spacingAndGlyphs" text-decoration="underline" textLength="43">activity</text><text x="269" y="119.107" fill="#000" font-family="sans-serif" font-size="12" lengthAdjust="spacingAndGlyphs" textLength="58">diagrams</text><polygon fill="#FEFECE" points="140.75 137.938 152.75 149.938 140.75 161.938 128.75 149.938 140.75 137.938" filter="url(#f1rk2prmxtw8gs)" style="stroke:#a80036;stroke-width:1.5"/><ellipse cx="140.75" cy="192.938" fill="#FFF" filter="url(#f1rk2prmxtw8gs)" rx="11" ry="11" style="stroke:#000;stroke-width:1"/><ellipse cx="140.75" cy="192.938" fill="#000" rx="6" ry="6" style="stroke:#7f7f7f;stroke-width:1"/><line style="stroke:#a80036;stroke-width:1.5" x1="75.25" x2="54" y1="62" y2="62"/><line style="stroke:#a80036;stroke-width:1.5" x1="54" x2="54" y1="62" y2="84"/><polygon fill="#A80036" points="50 74 54 84 58 74 54 78" style="stroke:#a80036;stroke-width:1"/><line style="stroke:#a80036;stroke-width:1.5" x1="206.25" x2="227.5" y1="62" y2="62"/><line style="stroke:#a80036;stroke-width:1.5" x1="227.5" x2="227.5" y1="62" y2="84"/><polygon fill="#A80036" points="223.5 74 227.5 84 231.5 74 227.5 78" style="stroke:#a80036;stroke-width:1"/><line style="stroke:#a80036;stroke-width:1.5" x1="54" x2="54" y1="131.938" y2="149.938"/><line style="stroke:#a80036;stroke-width:1.5" x1="54" x2="128.75" y1="149.938" y2="149.938"/><polygon fill="#A80036" points="118.75 145.938 128.75 149.938 118.75 153.938 122.75 149.938" style="stroke:#a80036;stroke-width:1"/><line style="stroke:#a80036;stroke-width:1.5" x1="227.5" x2="227.5" y1="131.938" y2="149.938"/><line style="stroke:#a80036;stroke-width:1.5" x1="227.5" x2="152.75" y1="149.938" y2="149.938"/><polygon fill="#A80036" points="162.75 145.938 152.75 149.938 162.75 153.938 158.75 149.938" style="stroke:#a80036;stroke-width:1"/><line style="stroke:#a80036;stroke-width:1.5" x1="140.75" x2="140.75" y1="30" y2="50"/><polygon fill="#A80036" points="136.75 40 140.75 50 144.75 40 140.75 44" style="stroke:#a80036;stroke-width:1"/><line style="stroke:#a80036;stroke-width:1.5" x1="140.75" x2="140.75" y1="161.938" y2="181.938"/><polygon fill="#A80036" points="136.75 171.938 140.75 181.938 144.75 171.938 140.75 175.938" style="stroke:#a80036;stroke-width:1"/></g></svg>