<svg xmlns="http://www.w3.org/2000/svg" xmlns:xlink="http://www.w3.org/1999/xlink" width="357" height="425" contentScriptType="application/ecmascript" contentStyleType="text/css" style="width:357px;height:425px" preserveAspectRatio="none" version="1.1" viewBox="0 0 357 425" zoomAndPan="magnify"><defs><filter id="f13b8x7rvse0nk" width="300%" height="300%" x="-1" y="-1"><feGaussianBlur result="blurOut" stdDeviation="2"/><feColorMatrix in="blurOut" result="blurOut2" type="matrix" values="0 0 0 0 0 0 0 0 0 0 0 0 0 0 0 0 0 0 .4 0"/><feOffset dx="4" dy="4" in="blurOut2" result="blurOut3"/><feBlend in="SourceGraphic" in2="blurOut3" mode="normal"/></filter></defs><g><rect style="stroke:#000;stroke-width:2" width="332" height="283.805" x="13" y="84.43" fill="#FFF" filter="url(#f13b8x7rvse0nk)"/><rect style="stroke:none;stroke-width:1" width="332" height="193.602" x="13" y="130.695" fill="#FFF"/><rect style="stroke:#000;stroke-width:2" width="312" height="135.664" x="23" y="181.633" fill="#FFF" filter="url(#f13b8x7rvse0nk)"/><rect style="stroke:#000;stroke-width:2" width="249" height="46.266" x="33" y="234.898" fill="#FFF" filter="url(#f13b8x7rvse0nk)"/><rect style="stroke:none;stroke-width:1" width="332" height="43.938" x="13" y="324.297" fill="#FFF"/><line style="stroke:#a80036;stroke-width:1;stroke-dasharray:5,5" x1="68" x2="68" y1="38.297" y2="385.234"/><line style="stroke:#a80036;stroke-width:1;stroke-dasharray:5,5" x1="249" x2="249" y1="38.297" y2="385.234"/><line style="stroke:#a80036;stroke-width:1;stroke-dasharray:5,5" x1="303" x2="303" y1="38.297" y2="385.234"/><rect style="stroke:#a80036;stroke-width:1.5" width="46" height="30.297" x="43" y="3" fill="#FEFECE" filter="url(#f13b8x7rvse0nk)"/><text x="50" y="22.995" fill="#000" font-family="sans-serif" font-size="14" lengthAdjust="spacingAndGlyphs" textLength="32">Alice</text><rect style="stroke:#a80036;stroke-width:1.5" width="46" height="30.297" x="43" y="384.234" fill="#FEFECE" filter="url(#f13b8x7rvse0nk)"/><text x="50" y="404.229" fill="#000" font-family="sans-serif" font-size="14" lengthAdjust="spacingAndGlyphs" textLength="32">Alice</text><rect style="stroke:#a80036;stroke-width:1.5" width="42" height="30.297" x="226" y="3" fill="#FEFECE" filter="url(#f13b8x7rvse0nk)"/><text x="233" y="22.995" fill="#000" font-family="sans-serif" font-size="14" lengthAdjust="spacingAndGlyphs" textLength="28">Bob</text><rect style="stroke:#a80036;stroke-width:1.5" width="42" height="30.297" x="226" y="384.234" fill="#FEFECE" filter="url(#f13b8x7rvse0nk)"/><text x="233" y="404.229" fill="#000" font-family="sans-serif" font-size="14" lengthAdjust="spacingAndGlyphs" textLength="28">Bob</text><rect style="stroke:#a80036;stroke-width:1.5" width="39" height="30.297" x="282" y="3" fill="#FEFECE" filter="url(#f13b8x7rvse0nk)"/><text x="289" y="22.995" fill="#000" font-family="sans-serif" font-size="14" lengthAdjust="spacingAndGlyphs" textLength="25">Log</text><rect style="stroke:#a80036;stroke-width:1.5" width="39" height="30.297" x="282" y="384.234" fill="#FEFECE" filter="url(#f13b8x7rvse0nk)"/><text x="289" y="404.229" fill="#000" font-family="sans-serif" font-size="14" lengthAdjust="spacingAndGlyphs" textLength="25">Log</text><polygon fill="#A80036" points="237 65.43 247 69.43 237 73.43 241 69.43" style="stroke:#a80036;stroke-width:1"/><line style="stroke:#a80036;stroke-width:1" x1="68" x2="243" y1="69.43" y2="69.43"/><text x="75" y="64.364" fill="#000" font-family="sans-serif" font-size="13" lengthAdjust="spacingAndGlyphs" textLength="149">Authentication Request</text><path fill="#EEE" d="M13,84.4297 L77,84.4297 L77,91.4297 L67,101.4297 L13,101.4297 L13,84.4297" style="stroke:#000;stroke-width:1"/><rect style="stroke:#000;stroke-width:2" width="332" height="283.805" x="13" y="84.43" fill="none"/><text x="28" y="97.497" fill="#000" font-family="sans-serif" font-size="13" font-weight="bold" lengthAdjust="spacingAndGlyphs" textLength="19">alt</text><text x="92" y="96.64" fill="#000" font-family="sans-serif" font-size="11" font-weight="bold" lengthAdjust="spacingAndGlyphs" textLength="112">[successful case]</text><polygon fill="#A80036" points="79 118.695 69 122.695 79 126.695 75 122.695" style="stroke:#a80036;stroke-width:1"/><line style="stroke:#a80036;stroke-width:1" x1="73" x2="248" y1="122.695" y2="122.695"/><text x="85" y="117.629" fill="#000" font-family="sans-serif" font-size="13" lengthAdjust="spacingAndGlyphs" textLength="157">Authentication Accepted</text><line style="stroke:#000;stroke-width:1;stroke-dasharray:2,2" x1="13" x2="345" y1="131.695" y2="131.695"/><text x="18" y="141.906" fill="#000" font-family="sans-serif" font-size="11" font-weight="bold" lengthAdjust="spacingAndGlyphs" textLength="138">[some kind of failure]</text><polygon fill="#A80036" points="79 162.633 69 166.633 79 170.633 75 166.633" style="stroke:#a80036;stroke-width:1"/><line style="stroke:#a80036;stroke-width:1" x1="73" x2="248" y1="166.633" y2="166.633"/><text x="85" y="161.567" fill="#000" font-family="sans-serif" font-size="13" lengthAdjust="spacingAndGlyphs" textLength="139">Authentication Failure</text><path fill="#EEE" d="M23,181.6328 L165,181.6328 L165,188.6328 L155,198.6328 L23,198.6328 L23,181.6328" style="stroke:#000;stroke-width:1"/><rect style="stroke:#000;stroke-width:2" width="312" height="135.664" x="23" y="181.633" fill="none"/><text x="38" y="194.7" fill="#000" font-family="sans-serif" font-size="13" font-weight="bold" lengthAdjust="spacingAndGlyphs" textLength="97">My own label</text><polygon fill="#A80036" points="291.5 215.898 301.5 219.898 291.5 223.898 295.5 219.898" style="stroke:#a80036;stroke-width:1"/><line style="stroke:#a80036;stroke-width:1" x1="68" x2="297.5" y1="219.898" y2="219.898"/><text x="75" y="214.833" fill="#000" font-family="sans-serif" font-size="13" lengthAdjust="spacingAndGlyphs" textLength="101">Log attack start</text><path fill="#EEE" d="M33,234.8984 L110,234.8984 L110,241.8984 L100,251.8984 L33,251.8984 L33,234.8984" style="stroke:#000;stroke-width:1"/><rect style="stroke:#000;stroke-width:2" width="249" height="46.266" x="33" y="234.898" fill="none"/><text x="48" y="247.965" fill="#000" font-family="sans-serif" font-size="13" font-weight="bold" lengthAdjust="spacingAndGlyphs" textLength="32">loop</text><text x="125" y="247.109" fill="#000" font-family="sans-serif" font-size="11" font-weight="bold" lengthAdjust="spacingAndGlyphs" textLength="81">[1000 times]</text><polygon fill="#A80036" points="237 269.164 247 273.164 237 277.164 241 273.164" style="stroke:#a80036;stroke-width:1"/><line style="stroke:#a80036;stroke-width:1" x1="68" x2="243" y1="273.164" y2="273.164"/><text x="75" y="268.098" fill="#000" font-family="sans-serif" font-size="13" lengthAdjust="spacingAndGlyphs" textLength="74">DNS Attack</text><polygon fill="#A80036" points="291.5 305.297 301.5 309.297 291.5 313.297 295.5 309.297" style="stroke:#a80036;stroke-width:1"/><line style="stroke:#a80036;stroke-width:1" x1="68" x2="297.5" y1="309.297" y2="309.297"/><text x="75" y="304.231" fill="#000" font-family="sans-serif" font-size="13" lengthAdjust="spacingAndGlyphs" textLength="95">Log attack end</text><line style="stroke:#000;stroke-width:1;stroke-dasharray:2,2" x1="13" x2="345" y1="325.297" y2="325.297"/><text x="18" y="335.507" fill="#000" font-family="sans-serif" font-size="11" font-weight="bold" lengthAdjust="spacingAndGlyphs" textLength="155">[Another type of failure]</text><polygon fill="#A80036" points="79 356.234 69 360.234 79 364.234 75 360.234" style="stroke:#a80036;stroke-width:1"/><line style="stroke:#a80036;stroke-width:1" x1="73" x2="248" y1="360.234" y2="360.234"/><text x="85" y="355.168" fill="#000" font-family="sans-serif" font-size="13" lengthAdjust="spacingAndGlyphs" textLength="88">Please repeat</text></g></svg>