<svg xmlns="http://www.w3.org/2000/svg" xmlns:xlink="http://www.w3.org/1999/xlink" width="263" height="192" contentScriptType="application/ecmascript" contentStyleType="text/css" style="width:263px;height:192px" preserveAspectRatio="none" version="1.1" viewBox="0 0 263 192" zoomAndPan="magnify"><defs><filter id="f1lmputfhfmqgy" width="300%" height="300%" x="-1" y="-1"><feGaussianBlur result="blurOut" stdDeviation="2"/><feColorMatrix in="blurOut" result="blurOut2" type="matrix" values="0 0 0 0 0 0 0 0 0 0 0 0 0 0 0 0 0 0 .4 0"/><feOffset dx="4" dy="4" in="blurOut2" result="blurOut3"/><feBlend in="SourceGraphic" in2="blurOut3" mode="normal"/></filter></defs><g><rect id="Class01" width="81" height="48" x="16.5" y="8" fill="#98FB98" filter="url(#f1lmputfhfmqgy)" style="stroke:#00ff7f;stroke-width:1.5"/><ellipse cx="31.5" cy="24" fill="#9ACD32" rx="11" ry="11" style="stroke:#00ff7f;stroke-width:1"/><path d="M34.4688,29.6406 Q33.8906,29.9375 33.25,30.0781 Q32.6094,30.2344 31.9063,30.2344 Q29.4063,30.2344 28.0781,28.5938 Q26.7656,26.9375 26.7656,23.8125 Q26.7656,20.6875 28.0781,19.0313 Q29.4063,17.375 31.9063,17.375 Q32.6094,17.375 33.25,17.5313 Q33.9063,17.6875 34.4688,17.9844 L34.4688,20.7031 Q33.8438,20.125 33.25,19.8594 Q32.6563,19.5781 32.0313,19.5781 Q30.6875,19.5781 30,20.6563 Q29.3125,21.7188 29.3125,23.8125 Q29.3125,25.9063 30,26.9844 Q30.6875,28.0469 32.0313,28.0469 Q32.6563,28.0469 33.25,27.7813 Q33.8438,27.5 34.4688,26.9219 L34.4688,29.6406 Z"/><text x="45.5" y="28.154" fill="#000" font-family="sans-serif" font-size="12" lengthAdjust="spacingAndGlyphs" textLength="49">Class01</text><line style="stroke:#00ff7f;stroke-width:1.5" x1="17.5" x2="96.5" y1="40" y2="40"/><line style="stroke:#00ff7f;stroke-width:1.5" x1="17.5" x2="96.5" y1="48" y2="48"/><rect id="Class02" width="81" height="48" x="16.5" y="133" fill="#98FB98" filter="url(#f1lmputfhfmqgy)" style="stroke:#00ff7f;stroke-width:1.5"/><ellipse cx="31.5" cy="149" fill="#9ACD32" rx="11" ry="11" style="stroke:#00ff7f;stroke-width:1"/><path d="M34.4688,154.6406 Q33.8906,154.9375 33.25,155.0781 Q32.6094,155.2344 31.9063,155.2344 Q29.4063,155.2344 28.0781,153.5938 Q26.7656,151.9375 26.7656,148.8125 Q26.7656,145.6875 28.0781,144.0313 Q29.4063,142.375 31.9063,142.375 Q32.6094,142.375 33.25,142.5313 Q33.9063,142.6875 34.4688,142.9844 L34.4688,145.7031 Q33.8438,145.125 33.25,144.8594 Q32.6563,144.5781 32.0313,144.5781 Q30.6875,144.5781 30,145.6563 Q29.3125,146.7188 29.3125,148.8125 Q29.3125,150.9063 30,151.9844 Q30.6875,153.0469 32.0313,153.0469 Q32.6563,153.0469 33.25,152.7813 Q33.8438,152.5 34.4688,151.9219 L34.4688,154.6406 Z"/><text x="45.5" y="153.154" fill="#000" font-family="sans-serif" font-size="12" lengthAdjust="spacingAndGlyphs" textLength="49">Class02</text><line style="stroke:#00ff7f;stroke-width:1.5" x1="17.5" x2="96.5" y1="165" y2="165"/><line style="stroke:#00ff7f;stroke-width:1.5" x1="17.5" x2="96.5" y1="173" y2="173"/><rect id="Class03" width="81" height="48" x="132.5" y="8" fill="#98FB98" filter="url(#f1lmputfhfmqgy)" style="stroke:#00ff7f;stroke-width:1.5"/><ellipse cx="147.5" cy="24" fill="#9ACD32" rx="11" ry="11" style="stroke:#00ff7f;stroke-width:1"/><path d="M150.4688,29.6406 Q149.8906,29.9375 149.25,30.0781 Q148.6094,30.2344 147.9063,30.2344 Q145.4063,30.2344 144.0781,28.5938 Q142.7656,26.9375 142.7656,23.8125 Q142.7656,20.6875 144.0781,19.0313 Q145.4063,17.375 147.9063,17.375 Q148.6094,17.375 149.25,17.5313 Q149.9063,17.6875 150.4688,17.9844 L150.4688,20.7031 Q149.8438,20.125 149.25,19.8594 Q148.6563,19.5781 148.0313,19.5781 Q146.6875,19.5781 146,20.6563 Q145.3125,21.7188 145.3125,23.8125 Q145.3125,25.9063 146,26.9844 Q146.6875,28.0469 148.0313,28.0469 Q148.6563,28.0469 149.25,27.7813 Q149.8438,27.5 150.4688,26.9219 L150.4688,29.6406 Z"/><text x="161.5" y="28.154" fill="#000" font-family="sans-serif" font-size="12" lengthAdjust="spacingAndGlyphs" textLength="49">Class03</text><line style="stroke:#00ff7f;stroke-width:1.5" x1="133.5" x2="212.5" y1="40" y2="40"/><line style="stroke:#00ff7f;stroke-width:1.5" x1="133.5" x2="212.5" y1="48" y2="48"/><rect id="Class04" width="81" height="48" x="132.5" y="133" fill="#98FB98" filter="url(#f1lmputfhfmqgy)" style="stroke:#00ff7f;stroke-width:1.5"/><ellipse cx="147.5" cy="149" fill="#9ACD32" rx="11" ry="11" style="stroke:#00ff7f;stroke-width:1"/><path d="M150.4688,154.6406 Q149.8906,154.9375 149.25,155.0781 Q148.6094,155.2344 147.9063,155.2344 Q145.4063,155.2344 144.0781,153.5938 Q142.7656,151.9375 142.7656,148.8125 Q142.7656,145.6875 144.0781,144.0313 Q145.4063,142.375 147.9063,142.375 Q148.6094,142.375 149.25,142.5313 Q149.9063,142.6875 150.4688,142.9844 L150.4688,145.7031 Q149.8438,145.125 149.25,144.8594 Q148.6563,144.5781 148.0313,144.5781 Q146.6875,144.5781 146,145.6563 Q145.3125,146.7188 145.3125,148.8125 Q145.3125,150.9063 146,151.9844 Q146.6875,153.0469 148.0313,153.0469 Q148.6563,153.0469 149.25,152.7813 Q149.8438,152.5 150.4688,151.9219 L150.4688,154.6406 Z"/><text x="161.5" y="153.154" fill="#000" font-family="sans-serif" font-size="12" lengthAdjust="spacingAndGlyphs" textLength="49">Class04</text><line style="stroke:#00ff7f;stroke-width:1.5" x1="133.5" x2="212.5" y1="165" y2="165"/><line style="stroke:#00ff7f;stroke-width:1.5" x1="133.5" x2="212.5" y1="173" y2="173"/><path id="Class01-Class02" fill="none" d="M57,69.2235 C57,89.8612 57,114.921 57,132.9727" style="stroke:#2e8b57;stroke-width:1"/><polygon fill="#2E8B57" points="57 56.101 53 62.101 57 68.101 61 62.101 57 56.101" style="stroke:#2e8b57;stroke-width:1"/><text x="58" y="99.067" fill="#000" font-family="sans-serif" font-size="13" lengthAdjust="spacingAndGlyphs" textLength="54">contains</text><text x="48.025" y="75.887" fill="#000" font-family="sans-serif" font-size="13" lengthAdjust="spacingAndGlyphs" textLength="8">1</text><text x="16.387" y="121.978" fill="#000" font-family="sans-serif" font-size="13" lengthAdjust="spacingAndGlyphs" textLength="36">many</text><path id="Class03-Class04" fill="none" d="M173,69.2235 C173,89.8612 173,114.921 173,132.9727" style="stroke:#2e8b57;stroke-width:1"/><polygon fill="#FFF" points="173 56.101 169 62.101 173 68.101 177 62.101 173 56.101" style="stroke:#2e8b57;stroke-width:1"/><text x="174" y="99.067" fill="#000" font-family="sans-serif" font-size="13" lengthAdjust="spacingAndGlyphs" textLength="77">aggregation</text></g></svg>