<svg xmlns="http://www.w3.org/2000/svg" xmlns:xlink="http://www.w3.org/1999/xlink" width="607" height="302" contentScriptType="application/ecmascript" contentStyleType="text/css" style="width:607px;height:302px" preserveAspectRatio="none" version="1.1" viewBox="0 0 607 302" zoomAndPan="magnify"><defs><filter id="f1oj5zwjq4wcrj" width="300%" height="300%" x="-1" y="-1"><feGaussianBlur result="blurOut" stdDeviation="2"/><feColorMatrix in="blurOut" result="blurOut2" type="matrix" values="0 0 0 0 0 0 0 0 0 0 0 0 0 0 0 0 0 0 .4 0"/><feOffset dx="4" dy="4" in="blurOut2" result="blurOut3"/><feBlend in="SourceGraphic" in2="blurOut3" mode="normal"/></filter></defs><g><line style="stroke:#a80036;stroke-width:1;stroke-dasharray:5,5" x1="31" x2="31" y1="38.297" y2="262.227"/><line style="stroke:#a80036;stroke-width:1;stroke-dasharray:5,5" x1="221" x2="221" y1="38.297" y2="262.227"/><line style="stroke:#a80036;stroke-width:1;stroke-dasharray:5,5" x1="493" x2="493" y1="38.297" y2="262.227"/><line style="stroke:#a80036;stroke-width:1;stroke-dasharray:5,5" x1="563" x2="563" y1="38.297" y2="262.227"/><rect style="stroke:#a80036;stroke-width:1.5" width="42" height="30.297" x="8" y="3" fill="#FEFECE" filter="url(#f1oj5zwjq4wcrj)"/><text x="15" y="22.995" fill="#000" font-family="sans-serif" font-size="14" lengthAdjust="spacingAndGlyphs" textLength="28">用户</text><rect style="stroke:#a80036;stroke-width:1.5" width="42" height="30.297" x="8" y="261.227" fill="#FEFECE" filter="url(#f1oj5zwjq4wcrj)"/><text x="15" y="281.222" fill="#000" font-family="sans-serif" font-size="14" lengthAdjust="spacingAndGlyphs" textLength="28">用户</text><rect style="stroke:#a80036;stroke-width:1.5" width="70" height="30.297" x="184" y="3" fill="#FEFECE" filter="url(#f1oj5zwjq4wcrj)"/><text x="191" y="22.995" fill="#000" font-family="sans-serif" font-size="14" lengthAdjust="spacingAndGlyphs" textLength="56">认证中心</text><rect style="stroke:#a80036;stroke-width:1.5" width="70" height="30.297" x="184" y="261.227" fill="#FEFECE" filter="url(#f1oj5zwjq4wcrj)"/><text x="191" y="281.222" fill="#000" font-family="sans-serif" font-size="14" lengthAdjust="spacingAndGlyphs" textLength="56">认证中心</text><rect style="stroke:#a80036;stroke-width:1.5" width="42" height="30.297" x="470" y="3" fill="#FEFECE" filter="url(#f1oj5zwjq4wcrj)"/><text x="477" y="22.995" fill="#000" font-family="sans-serif" font-size="14" lengthAdjust="spacingAndGlyphs" textLength="28">缓存</text><rect style="stroke:#a80036;stroke-width:1.5" width="42" height="30.297" x="470" y="261.227" fill="#FEFECE" filter="url(#f1oj5zwjq4wcrj)"/><text x="477" y="281.222" fill="#000" font-family="sans-serif" font-size="14" lengthAdjust="spacingAndGlyphs" textLength="28">缓存</text><rect style="stroke:#a80036;stroke-width:1.5" width="70" height="30.297" x="526" y="3" fill="#FEFECE" filter="url(#f1oj5zwjq4wcrj)"/><text x="533" y="22.995" fill="#000" font-family="sans-serif" font-size="14" lengthAdjust="spacingAndGlyphs" textLength="56">其他服务</text><rect style="stroke:#a80036;stroke-width:1.5" width="70" height="30.297" x="526" y="261.227" fill="#FEFECE" filter="url(#f1oj5zwjq4wcrj)"/><text x="533" y="281.222" fill="#000" font-family="sans-serif" font-size="14" lengthAdjust="spacingAndGlyphs" textLength="56">其他服务</text><polygon fill="#A80036" points="209 65.43 219 69.43 209 73.43 213 69.43" style="stroke:#a80036;stroke-width:1"/><line style="stroke:#a80036;stroke-width:1" x1="31" x2="215" y1="69.43" y2="69.43"/><text x="38" y="64.364" fill="#000" font-family="sans-serif" font-size="13" lengthAdjust="spacingAndGlyphs" textLength="52">登录操作</text><polygon fill="#A80036" points="481 94.563 491 98.563 481 102.563 485 98.563" style="stroke:#a80036;stroke-width:1"/><line style="stroke:#a80036;stroke-width:1" x1="221" x2="487" y1="98.563" y2="98.563"/><text x="228" y="93.497" fill="#000" font-family="sans-serif" font-size="13" lengthAdjust="spacingAndGlyphs" textLength="248">存放(key=token+ip,value=token)token</text><polygon fill="#A80036" points="42 123.695 32 127.695 42 131.695 38 127.695" style="stroke:#a80036;stroke-width:1"/><line style="stroke:#a80036;stroke-width:1" x1="36" x2="220" y1="127.695" y2="127.695"/><text x="48" y="122.629" fill="#000" font-family="sans-serif" font-size="13" lengthAdjust="spacingAndGlyphs" textLength="114">认证成功返回token</text><polygon fill="#A80036" points="209 152.828 219 156.828 209 160.828 213 156.828" style="stroke:#a80036;stroke-width:1"/><line style="stroke:#a80036;stroke-width:1" x1="31" x2="215" y1="156.828" y2="156.828"/><text x="38" y="151.762" fill="#000" font-family="sans-serif" font-size="13" lengthAdjust="spacingAndGlyphs" textLength="166">下次访问头部携带token认证</text><polygon fill="#A80036" points="232 181.961 222 185.961 232 189.961 228 185.961" style="stroke:#a80036;stroke-width:1"/><line style="stroke:#a80036;stroke-width:1" x1="226" x2="492" y1="185.961" y2="185.961"/><text x="238" y="180.895" fill="#000" font-family="sans-serif" font-size="13" lengthAdjust="spacingAndGlyphs" textLength="153">key=token+ip获取token</text><polygon fill="#A80036" points="551 211.094 561 215.094 551 219.094 555 215.094" style="stroke:#a80036;stroke-width:1"/><line style="stroke:#a80036;stroke-width:1" x1="221" x2="557" y1="215.094" y2="215.094"/><text x="228" y="210.028" fill="#000" font-family="sans-serif" font-size="13" lengthAdjust="spacingAndGlyphs" textLength="260">存在且校验成功则跳转到用户请求的其他服务</text><polygon fill="#A80036" points="42 240.227 32 244.227 42 248.227 38 244.227" style="stroke:#a80036;stroke-width:1"/><line style="stroke:#a80036;stroke-width:1" x1="36" x2="562" y1="244.227" y2="244.227"/><text x="48" y="239.161" fill="#000" font-family="sans-serif" font-size="13" lengthAdjust="spacingAndGlyphs" textLength="26">信息</text></g></svg>