<svg xmlns="http://www.w3.org/2000/svg" xmlns:xlink="http://www.w3.org/1999/xlink" width="368" height="246" contentScriptType="application/ecmascript" contentStyleType="text/css" style="width:368px;height:246px" preserveAspectRatio="none" version="1.1" viewBox="0 0 368 246" zoomAndPan="magnify"><defs><filter id="f1qjih99q0ms9v" width="300%" height="300%" x="-1" y="-1"><feGaussianBlur result="blurOut" stdDeviation="2"/><feColorMatrix in="blurOut" result="blurOut2" type="matrix" values="0 0 0 0 0 0 0 0 0 0 0 0 0 0 0 0 0 0 .4 0"/><feOffset dx="4" dy="4" in="blurOut2" result="blurOut3"/><feBlend in="SourceGraphic" in2="blurOut3" mode="normal"/></filter></defs><g><line style="stroke:#a80036;stroke-width:1;stroke-dasharray:5,5" x1="148" x2="148" y1="38.297" y2="205.961"/><line style="stroke:#a80036;stroke-width:1;stroke-dasharray:5,5" x1="206" x2="206" y1="38.297" y2="205.961"/><rect style="stroke:#a80036;stroke-width:1.5" width="46" height="30.297" x="123" y="3" fill="#FEFECE" filter="url(#f1qjih99q0ms9v)"/><text x="130" y="22.995" fill="#000" font-family="sans-serif" font-size="14" lengthAdjust="spacingAndGlyphs" textLength="32">Alice</text><rect style="stroke:#a80036;stroke-width:1.5" width="46" height="30.297" x="123" y="204.961" fill="#FEFECE" filter="url(#f1qjih99q0ms9v)"/><text x="130" y="224.956" fill="#000" font-family="sans-serif" font-size="14" lengthAdjust="spacingAndGlyphs" textLength="32">Alice</text><rect style="stroke:#a80036;stroke-width:1.5" width="42" height="30.297" x="183" y="3" fill="#FEFECE" filter="url(#f1qjih99q0ms9v)"/><text x="190" y="22.995" fill="#000" font-family="sans-serif" font-size="14" lengthAdjust="spacingAndGlyphs" textLength="28">Bob</text><rect style="stroke:#a80036;stroke-width:1.5" width="42" height="30.297" x="183" y="204.961" fill="#FEFECE" filter="url(#f1qjih99q0ms9v)"/><text x="190" y="224.956" fill="#000" font-family="sans-serif" font-size="14" lengthAdjust="spacingAndGlyphs" textLength="28">Bob</text><polygon fill="#A80036" points="194 70.43 204 74.43 194 78.43 198 74.43" style="stroke:#a80036;stroke-width:1"/><line style="stroke:#a80036;stroke-width:1" x1="148" x2="200" y1="74.43" y2="74.43"/><text x="155" y="69.364" fill="#000" font-family="sans-serif" font-size="13" lengthAdjust="spacingAndGlyphs" textLength="30">hello</text><path fill="#FBFB77" d="M8,53.2969 L8,78.2969 L139,78.2969 L139,63.2969 L129,53.2969 L8,53.2969" filter="url(#f1qjih99q0ms9v)" style="stroke:#a80036;stroke-width:1"/><path fill="#FBFB77" d="M129,53.2969 L129,63.2969 L139,63.2969 L129,53.2969" style="stroke:#a80036;stroke-width:1"/><text x="14" y="70.364" fill="#000" font-family="sans-serif" font-size="13" lengthAdjust="spacingAndGlyphs" textLength="110">this is a first note</text><polygon fill="#A80036" points="159 109.563 149 113.563 159 117.563 155 113.563" style="stroke:#a80036;stroke-width:1"/><line style="stroke:#a80036;stroke-width:1" x1="153" x2="205" y1="113.563" y2="113.563"/><text x="165" y="108.497" fill="#000" font-family="sans-serif" font-size="13" lengthAdjust="spacingAndGlyphs" textLength="15">ok</text><path fill="#FBFB77" d="M211,92.4297 L211,117.4297 L356,117.4297 L356,102.4297 L346,92.4297 L211,92.4297" filter="url(#f1qjih99q0ms9v)" style="stroke:#a80036;stroke-width:1"/><path fill="#FBFB77" d="M346,92.4297 L346,102.4297 L356,102.4297 L346,92.4297" style="stroke:#a80036;stroke-width:1"/><text x="217" y="109.497" fill="#000" font-family="sans-serif" font-size="13" lengthAdjust="spacingAndGlyphs" textLength="124">this is another note</text><line style="stroke:#a80036;stroke-width:1" x1="206" x2="248" y1="161.328" y2="161.328"/><line style="stroke:#a80036;stroke-width:1" x1="248" x2="248" y1="161.328" y2="174.328"/><line style="stroke:#a80036;stroke-width:1" x1="207" x2="248" y1="174.328" y2="174.328"/><polygon fill="#A80036" points="217 170.328 207 174.328 217 178.328 213 174.328" style="stroke:#a80036;stroke-width:1"/><text x="213" y="156.262" fill="#000" font-family="sans-serif" font-size="13" lengthAdjust="spacingAndGlyphs" textLength="82">I am thinking</text><path fill="#FBFB77" d="M52,131.5625 L52,186.5625 L197,186.5625 L197,141.5625 L187,131.5625 L52,131.5625" filter="url(#f1qjih99q0ms9v)" style="stroke:#a80036;stroke-width:1"/><path fill="#FBFB77" d="M187,131.5625 L187,141.5625 L197,141.5625 L187,131.5625" style="stroke:#a80036;stroke-width:1"/><text x="58" y="148.629" fill="#000" font-family="sans-serif" font-size="13" lengthAdjust="spacingAndGlyphs" textLength="41">a note</text><text x="58" y="163.762" fill="#000" font-family="sans-serif" font-size="13" lengthAdjust="spacingAndGlyphs" textLength="124">can also be defined</text><text x="58" y="178.895" fill="#000" font-family="sans-serif" font-size="13" lengthAdjust="spacingAndGlyphs" textLength="99">on several lines</text></g></svg>