<svg xmlns="http://www.w3.org/2000/svg" xmlns:xlink="http://www.w3.org/1999/xlink" width="345" height="273" contentScriptType="application/ecmascript" contentStyleType="text/css" style="width:345px;height:273px" preserveAspectRatio="none" version="1.1" viewBox="0 0 345 273" zoomAndPan="magnify"><defs><filter id="f1b0sbshplkr8t" width="300%" height="300%" x="-1" y="-1"><feGaussianBlur result="blurOut" stdDeviation="2"/><feColorMatrix in="blurOut" result="blurOut2" type="matrix" values="0 0 0 0 0 0 0 0 0 0 0 0 0 0 0 0 0 0 .4 0"/><feOffset dx="4" dy="4" in="blurOut2" result="blurOut3"/><feBlend in="SourceGraphic" in2="blurOut3" mode="normal"/></filter></defs><g><line style="stroke:#a80036;stroke-width:1;stroke-dasharray:5,5" x1="31" x2="31" y1="38.297" y2="233.094"/><line style="stroke:#a80036;stroke-width:1;stroke-dasharray:5,5" x1="313" x2="313" y1="38.297" y2="233.094"/><rect style="stroke:#a80036;stroke-width:1.5" width="42" height="30.297" x="8" y="3" fill="#FEFECE" filter="url(#f1b0sbshplkr8t)"/><text x="15" y="22.995" fill="#000" font-family="sans-serif" font-size="14" lengthAdjust="spacingAndGlyphs" textLength="28">Bob</text><rect style="stroke:#a80036;stroke-width:1.5" width="42" height="30.297" x="8" y="232.094" fill="#FEFECE" filter="url(#f1b0sbshplkr8t)"/><text x="15" y="252.089" fill="#000" font-family="sans-serif" font-size="14" lengthAdjust="spacingAndGlyphs" textLength="28">Bob</text><rect style="stroke:#a80036;stroke-width:1.5" width="46" height="30.297" x="288" y="3" fill="#FEFECE" filter="url(#f1b0sbshplkr8t)"/><text x="295" y="22.995" fill="#000" font-family="sans-serif" font-size="14" lengthAdjust="spacingAndGlyphs" textLength="32">Alice</text><rect style="stroke:#a80036;stroke-width:1.5" width="46" height="30.297" x="288" y="232.094" fill="#FEFECE" filter="url(#f1b0sbshplkr8t)"/><text x="295" y="252.089" fill="#000" font-family="sans-serif" font-size="14" lengthAdjust="spacingAndGlyphs" textLength="32">Alice</text><polygon fill="#A80036" points="301 65.43 311 69.43 301 73.43 305 69.43" style="stroke:#a80036;stroke-width:1"/><line style="stroke:#a80036;stroke-width:1" x1="31" x2="307" y1="69.43" y2="69.43"/><text x="38" y="64.364" fill="#000" font-family="sans-serif" font-size="13" font-weight="bold" lengthAdjust="spacingAndGlyphs" textLength="9">1</text><text x="51" y="64.364" fill="#000" font-family="sans-serif" font-size="13" lengthAdjust="spacingAndGlyphs" textLength="149">Authentication Request</text><polygon fill="#A80036" points="42 94.563 32 98.563 42 102.563 38 98.563" style="stroke:#a80036;stroke-width:1"/><line style="stroke:#a80036;stroke-width:1" x1="36" x2="312" y1="98.563" y2="98.563"/><text x="48" y="93.497" fill="#000" font-family="sans-serif" font-size="13" font-weight="bold" lengthAdjust="spacingAndGlyphs" textLength="9">2</text><text x="61" y="93.497" fill="#000" font-family="sans-serif" font-size="13" lengthAdjust="spacingAndGlyphs" textLength="159">Authentication Response</text><polygon fill="#A80036" points="301 123.695 311 127.695 301 131.695 305 127.695" style="stroke:#a80036;stroke-width:1"/><line style="stroke:#a80036;stroke-width:1" x1="31" x2="307" y1="127.695" y2="127.695"/><text x="38" y="122.629" fill="#000" font-family="sans-serif" font-size="13" font-weight="bold" lengthAdjust="spacingAndGlyphs" textLength="18">15</text><text x="60" y="122.629" fill="#000" font-family="sans-serif" font-size="13" lengthAdjust="spacingAndGlyphs" textLength="203">Another authentication Request</text><polygon fill="#A80036" points="42 152.828 32 156.828 42 160.828 38 156.828" style="stroke:#a80036;stroke-width:1"/><line style="stroke:#a80036;stroke-width:1" x1="36" x2="312" y1="156.828" y2="156.828"/><text x="48" y="151.762" fill="#000" font-family="sans-serif" font-size="13" font-weight="bold" lengthAdjust="spacingAndGlyphs" textLength="18">16</text><text x="70" y="151.762" fill="#000" font-family="sans-serif" font-size="13" lengthAdjust="spacingAndGlyphs" textLength="213">Another authentication Response</text><polygon fill="#A80036" points="301 181.961 311 185.961 301 189.961 305 185.961" style="stroke:#a80036;stroke-width:1"/><line style="stroke:#a80036;stroke-width:1" x1="31" x2="307" y1="185.961" y2="185.961"/><text x="38" y="180.895" fill="#000" font-family="sans-serif" font-size="13" font-weight="bold" lengthAdjust="spacingAndGlyphs" textLength="18">40</text><text x="60" y="180.895" fill="#000" font-family="sans-serif" font-size="13" lengthAdjust="spacingAndGlyphs" textLength="226">Yet another authentication Request</text><polygon fill="#A80036" points="42 211.094 32 215.094 42 219.094 38 215.094" style="stroke:#a80036;stroke-width:1"/><line style="stroke:#a80036;stroke-width:1" x1="36" x2="312" y1="215.094" y2="215.094"/><text x="48" y="210.028" fill="#000" font-family="sans-serif" font-size="13" font-weight="bold" lengthAdjust="spacingAndGlyphs" textLength="18">50</text><text x="70" y="210.028" fill="#000" font-family="sans-serif" font-size="13" lengthAdjust="spacingAndGlyphs" textLength="236">Yet another authentication Response</text></g></svg>