<svg xmlns="http://www.w3.org/2000/svg" xmlns:xlink="http://www.w3.org/1999/xlink" width="310" height="311" contentScriptType="application/ecmascript" contentStyleType="text/css" style="width:310px;height:311px" preserveAspectRatio="none" version="1.1" viewBox="0 0 310 311" zoomAndPan="magnify"><defs><filter id="ffh95qyjd1g7y" width="300%" height="300%" x="-1" y="-1"><feGaussianBlur result="blurOut" stdDeviation="2"/><feColorMatrix in="blurOut" result="blurOut2" type="matrix" values="0 0 0 0 0 0 0 0 0 0 0 0 0 0 0 0 0 0 .4 0"/><feOffset dx="4" dy="4" in="blurOut2" result="blurOut3"/><feBlend in="SourceGraphic" in2="blurOut3" mode="normal"/></filter></defs><g><ellipse cx="83" cy="20" fill="#000" filter="url(#ffh95qyjd1g7y)" rx="10" ry="10" style="stroke:none;stroke-width:1"/><rect style="stroke:#a80036;stroke-width:1.5" width="82" height="33.969" x="42" y="111.711" fill="#FEFECE" filter="url(#ffh95qyjd1g7y)" rx="12.5" ry="12.5"/><text x="52" y="132.85" fill="#000" font-family="sans-serif" font-size="12" lengthAdjust="spacingAndGlyphs" textLength="62">read data</text><rect style="stroke:#a80036;stroke-width:1.5" width="140" height="33.969" x="13" y="180.68" fill="#FEFECE" filter="url(#ffh95qyjd1g7y)" rx="12.5" ry="12.5"/><text x="23" y="201.818" fill="#000" font-family="sans-serif" font-size="12" lengthAdjust="spacingAndGlyphs" textLength="120">generate diagrams</text><rect style="stroke:#a80036;stroke-width:1.5" width="146" height="33.969" x="10" y="50" fill="#FEFECE" filter="url(#ffh95qyjd1g7y)" rx="12.5" ry="12.5"/><text x="20" y="71.139" fill="#000" font-family="sans-serif" font-size="12" lengthAdjust="spacingAndGlyphs" textLength="126">foo as starting label</text><polygon fill="#FEFECE" points="50.5 234.648 115.5 234.648 127.5 246.648 115.5 258.648 50.5 258.648 38.5 246.648 50.5 234.648" filter="url(#ffh95qyjd1g7y)" style="stroke:#a80036;stroke-width:1.5"/><text x="50.5" y="250.457" fill="#000" font-family="sans-serif" font-size="11" lengthAdjust="spacingAndGlyphs" textLength="65">more data?</text><rect style="stroke:#a80036;stroke-width:1.5" width="123" height="33.969" x="176" y="141.211" fill="#FEFECE" filter="url(#ffh95qyjd1g7y)" rx="12.5" ry="12.5"/><text x="186" y="162.35" fill="#000" font-family="sans-serif" font-size="12" lengthAdjust="spacingAndGlyphs" textLength="103">This is backward</text><ellipse cx="83" cy="289.648" fill="#FFF" filter="url(#ffh95qyjd1g7y)" rx="11" ry="11" style="stroke:#000;stroke-width:1"/><ellipse cx="83" cy="289.648" fill="#000" rx="6" ry="6" style="stroke:#7f7f7f;stroke-width:1"/><line style="stroke:#a80036;stroke-width:1.5" x1="83" x2="83" y1="145.68" y2="180.68"/><polygon fill="#A80036" points="79 170.68 83 180.68 87 170.68 83 174.68" style="stroke:#a80036;stroke-width:1"/><line style="stroke:#a80036;stroke-width:1.5" x1="83" x2="83" y1="83.969" y2="111.711"/><polygon fill="#A80036" points="79 101.711 83 111.711 87 101.711 83 105.711" style="stroke:#a80036;stroke-width:1"/><line style="stroke:#a80036;stroke-width:1.5" x1="127.5" x2="237.5" y1="246.648" y2="246.648"/><line style="stroke:#a80036;stroke-width:1.5" x1="237.5" x2="237.5" y1="175.18" y2="246.648"/><polygon fill="#A80036" points="233.5 185.18 237.5 175.18 241.5 185.18 237.5 181.18" style="stroke:#a80036;stroke-width:1"/><polygon fill="#A80036" points="233.5 103.969 237.5 93.969 241.5 103.969 237.5 99.969" style="stroke:#a80036;stroke-width:1.5"/><line style="stroke:#a80036;stroke-width:1.5" x1="237.5" x2="237.5" y1="66.984" y2="141.211"/><line style="stroke:#a80036;stroke-width:1.5" x1="237.5" x2="156" y1="66.984" y2="66.984"/><polygon fill="#A80036" points="166 62.984 156 66.984 166 70.984 162 66.984" style="stroke:#a80036;stroke-width:1"/><line style="stroke:#a80036;stroke-width:1.5" x1="83" x2="83" y1="214.648" y2="234.648"/><polygon fill="#A80036" points="79 224.648 83 234.648 87 224.648 83 228.648" style="stroke:#a80036;stroke-width:1"/><line style="stroke:#a80036;stroke-width:1.5" x1="83" x2="83" y1="30" y2="50"/><polygon fill="#A80036" points="79 40 83 50 87 40 83 44" style="stroke:#a80036;stroke-width:1"/><line style="stroke:#a80036;stroke-width:1.5" x1="83" x2="83" y1="258.648" y2="278.648"/><polygon fill="#A80036" points="79 268.648 83 278.648 87 268.648 83 272.648" style="stroke:#a80036;stroke-width:1"/></g></svg>