<svg xmlns="http://www.w3.org/2000/svg" xmlns:xlink="http://www.w3.org/1999/xlink" width="126" height="114" contentScriptType="application/ecmascript" contentStyleType="text/css" style="width:126px;height:114px" preserveAspectRatio="none" version="1.1" viewBox="0 0 126 114" zoomAndPan="magnify"><defs><filter id="fmmzwq5oiczje" width="300%" height="300%" x="-1" y="-1"><feGaussianBlur result="blurOut" stdDeviation="2"/><feColorMatrix in="blurOut" result="blurOut2" type="matrix" values="0 0 0 0 0 0 0 0 0 0 0 0 0 0 0 0 0 0 .4 0"/><feOffset dx="4" dy="4" in="blurOut2" result="blurOut3"/><feBlend in="SourceGraphic" in2="blurOut3" mode="normal"/></filter></defs><g><ellipse cx="62" cy="20" fill="#000" filter="url(#fmmzwq5oiczje)" rx="10" ry="10" style="stroke:none;stroke-width:1"/><line style="stroke:#a80036;stroke-width:1.5" x1="24" x2="100" y1="50" y2="50"/><rect style="stroke:#a80036;stroke-width:1.5" width="28" height="33.969" x="10" y="70" fill="#FEFECE" filter="url(#fmmzwq5oiczje)" rx="12.5" ry="12.5"/><text x="20" y="91.139" fill="#000" font-family="sans-serif" font-size="12" lengthAdjust="spacingAndGlyphs" textLength="8">A</text><rect style="stroke:#a80036;stroke-width:1.5" width="28" height="33.969" x="48" y="70" fill="#FEFECE" filter="url(#fmmzwq5oiczje)" rx="12.5" ry="12.5"/><text x="58" y="91.139" fill="#000" font-family="sans-serif" font-size="12" lengthAdjust="spacingAndGlyphs" textLength="8">B</text><rect style="stroke:#a80036;stroke-width:1.5" width="28" height="33.969" x="86" y="70" fill="#FEFECE" filter="url(#fmmzwq5oiczje)" rx="12.5" ry="12.5"/><text x="96" y="91.139" fill="#000" font-family="sans-serif" font-size="12" lengthAdjust="spacingAndGlyphs" textLength="8">C</text><line style="stroke:#a80036;stroke-width:1.5" x1="24" x2="24" y1="51.5" y2="70"/><polygon fill="#A80036" points="20 60 24 70 28 60 24 64" style="stroke:#a80036;stroke-width:1"/><line style="stroke:#a80036;stroke-width:1.5" x1="62" x2="62" y1="51.5" y2="70"/><polygon fill="#A80036" points="58 60 62 70 66 60 62 64" style="stroke:#a80036;stroke-width:1"/><line style="stroke:#a80036;stroke-width:1.5" x1="100" x2="100" y1="51.5" y2="70"/><polygon fill="#A80036" points="96 60 100 70 104 60 100 64" style="stroke:#a80036;stroke-width:1"/><line style="stroke:#a80036;stroke-width:1.5" x1="62" x2="62" y1="30" y2="50"/><polygon fill="#A80036" points="58 40 62 50 66 40 62 44" style="stroke:#a80036;stroke-width:1"/></g></svg>