<svg xmlns="http://www.w3.org/2000/svg" xmlns:xlink="http://www.w3.org/1999/xlink" width="188" height="286" contentScriptType="application/ecmascript" contentStyleType="text/css" style="width:188px;height:286px" preserveAspectRatio="none" version="1.1" viewBox="0 0 188 286" zoomAndPan="magnify"><defs><filter id="f13r8ndtyzbiid" width="300%" height="300%" x="-1" y="-1"><feGaussianBlur result="blurOut" stdDeviation="2"/><feColorMatrix in="blurOut" result="blurOut2" type="matrix" values="0 0 0 0 0 0 0 0 0 0 0 0 0 0 0 0 0 0 .4 0"/><feOffset dx="4" dy="4" in="blurOut2" result="blurOut3"/><feBlend in="SourceGraphic" in2="blurOut3" mode="normal"/></filter></defs><g><ellipse cx="80" cy="20" fill="#000" filter="url(#f13r8ndtyzbiid)" rx="10" ry="10" style="stroke:none;stroke-width:1"/><rect style="stroke:#a80036;stroke-width:1.5" width="82" height="33.969" x="39" y="94" fill="#FEFECE" filter="url(#f13r8ndtyzbiid)" rx="12.5" ry="12.5"/><text x="49" y="115.139" fill="#000" font-family="sans-serif" font-size="12" lengthAdjust="spacingAndGlyphs" textLength="62">read data</text><rect style="stroke:#a80036;stroke-width:1.5" width="140" height="33.969" x="10" y="155.469" fill="#FEFECE" filter="url(#f13r8ndtyzbiid)" rx="12.5" ry="12.5"/><text x="20" y="176.607" fill="#000" font-family="sans-serif" font-size="12" lengthAdjust="spacingAndGlyphs" textLength="120">generate diagrams</text><polygon fill="#FEFECE" points="80 50 92 62 80 74 68 62 80 50" filter="url(#f13r8ndtyzbiid)" style="stroke:#a80036;stroke-width:1.5"/><polygon fill="#FEFECE" points="47.5 209.438 112.5 209.438 124.5 221.438 112.5 233.438 47.5 233.438 35.5 221.438 47.5 209.438" filter="url(#f13r8ndtyzbiid)" style="stroke:#a80036;stroke-width:1.5"/><text x="47.5" y="225.246" fill="#000" font-family="sans-serif" font-size="11" lengthAdjust="spacingAndGlyphs" textLength="65">more data?</text><ellipse cx="80" cy="264.438" fill="#FFF" filter="url(#f13r8ndtyzbiid)" rx="11" ry="11" style="stroke:#000;stroke-width:1"/><ellipse cx="80" cy="264.438" fill="#000" rx="6" ry="6" style="stroke:#7f7f7f;stroke-width:1"/><line style="stroke:#a80036;stroke-width:1.5" x1="80" x2="80" y1="127.969" y2="155.469"/><polygon fill="#A80036" points="76 145.469 80 155.469 84 145.469 80 149.469" style="stroke:#a80036;stroke-width:1"/><line style="stroke:#a80036;stroke-width:1.5" x1="80" x2="80" y1="74" y2="94"/><polygon fill="#A80036" points="76 84 80 94 84 84 80 88" style="stroke:#a80036;stroke-width:1"/><line style="stroke:#a80036;stroke-width:1.5" x1="124.5" x2="162" y1="221.438" y2="221.438"/><polygon fill="#A80036" points="158 147.969 162 137.969 166 147.969 162 143.969" style="stroke:#a80036;stroke-width:1.5"/><line style="stroke:#a80036;stroke-width:1.5" x1="162" x2="162" y1="62" y2="221.438"/><line style="stroke:#a80036;stroke-width:1.5" x1="162" x2="92" y1="62" y2="62"/><polygon fill="#A80036" points="102 58 92 62 102 66 98 62" style="stroke:#a80036;stroke-width:1"/><line style="stroke:#a80036;stroke-width:1.5" x1="80" x2="80" y1="189.438" y2="209.438"/><polygon fill="#A80036" points="76 199.438 80 209.438 84 199.438 80 203.438" style="stroke:#a80036;stroke-width:1"/><line style="stroke:#a80036;stroke-width:1.5" x1="80" x2="80" y1="30" y2="50"/><polygon fill="#A80036" points="76 40 80 50 84 40 80 44" style="stroke:#a80036;stroke-width:1"/><line style="stroke:#a80036;stroke-width:1.5" x1="80" x2="80" y1="233.438" y2="253.438"/><polygon fill="#A80036" points="76 243.438 80 253.438 84 243.438 80 247.438" style="stroke:#a80036;stroke-width:1"/></g></svg>