<svg xmlns="http://www.w3.org/2000/svg" xmlns:xlink="http://www.w3.org/1999/xlink" width="168" height="157" contentScriptType="application/ecmascript" contentStyleType="text/css" style="width:168px;height:157px" preserveAspectRatio="none" version="1.1" viewBox="0 0 168 157" zoomAndPan="magnify"><defs><filter id="f19766jcq4s6ji" width="300%" height="300%" x="-1" y="-1"><feGaussianBlur result="blurOut" stdDeviation="2"/><feColorMatrix in="blurOut" result="blurOut2" type="matrix" values="0 0 0 0 0 0 0 0 0 0 0 0 0 0 0 0 0 0 .4 0"/><feOffset dx="4" dy="4" in="blurOut2" result="blurOut3"/><feBlend in="SourceGraphic" in2="blurOut3" mode="normal"/></filter></defs><g><line style="stroke:#a80036;stroke-width:1;stroke-dasharray:5,5" x1="33" x2="33" y1="38.297" y2="117.563"/><line style="stroke:#a80036;stroke-width:1;stroke-dasharray:5,5" x1="128" x2="128" y1="38.297" y2="117.563"/><rect style="stroke:#a80036;stroke-width:1.5" width="46" height="30.297" x="8" y="3" fill="#FEFECE" filter="url(#f19766jcq4s6ji)"/><text x="15" y="22.995" fill="#000" font-family="sans-serif" font-size="14" lengthAdjust="spacingAndGlyphs" textLength="32">Alice</text><rect style="stroke:#a80036;stroke-width:1.5" width="46" height="30.297" x="8" y="116.563" fill="#FEFECE" filter="url(#f19766jcq4s6ji)"/><text x="15" y="136.558" fill="#000" font-family="sans-serif" font-size="14" lengthAdjust="spacingAndGlyphs" textLength="32">Alice</text><rect style="stroke:#a80036;stroke-width:1.5" width="42" height="30.297" x="105" y="3" fill="#FEFECE" filter="url(#f19766jcq4s6ji)"/><text x="112" y="22.995" fill="#000" font-family="sans-serif" font-size="14" lengthAdjust="spacingAndGlyphs" textLength="28">Bob</text><rect style="stroke:#a80036;stroke-width:1.5" width="42" height="30.297" x="105" y="116.563" fill="#FEFECE" filter="url(#f19766jcq4s6ji)"/><text x="112" y="136.558" fill="#000" font-family="sans-serif" font-size="14" lengthAdjust="spacingAndGlyphs" textLength="28">Bob</text><polygon fill="#A80036" points="116 65.43 126 69.43 116 73.43 120 69.43" style="stroke:#a80036;stroke-width:1"/><line style="stroke:#a80036;stroke-width:1" x1="33" x2="122" y1="69.43" y2="69.43"/><text x="40" y="64.364" fill="#000" font-family="sans-serif" font-size="13" lengthAdjust="spacingAndGlyphs" textLength="71">message 1</text><polygon fill="#A80036" points="116 94.563 126 98.563 116 102.563 120 98.563" style="stroke:#a80036;stroke-width:1"/><line style="stroke:#a80036;stroke-width:1" x1="33" x2="122" y1="98.563" y2="98.563"/><text x="40" y="93.497" fill="#000" font-family="sans-serif" font-size="13" lengthAdjust="spacingAndGlyphs" textLength="71">message 2</text><line style="stroke:#000;stroke-width:1;stroke-dasharray:2,2" x1="3" x2="156" y1="106.563" y2="106.563"/></g></svg>