<svg xmlns="http://www.w3.org/2000/svg" xmlns:xlink="http://www.w3.org/1999/xlink" width="628" height="389" contentScriptType="application/ecmascript" contentStyleType="text/css" style="width:628px;height:389px" preserveAspectRatio="none" version="1.1" viewBox="0 0 628 389" zoomAndPan="magnify"><defs><filter id="fln0d5r918i02" width="300%" height="300%" x="-1" y="-1"><feGaussianBlur result="blurOut" stdDeviation="2"/><feColorMatrix in="blurOut" result="blurOut2" type="matrix" values="0 0 0 0 0 0 0 0 0 0 0 0 0 0 0 0 0 0 .4 0"/><feOffset dx="4" dy="4" in="blurOut2" result="blurOut3"/><feBlend in="SourceGraphic" in2="blurOut3" mode="normal"/></filter></defs><g><rect id="Object" width="90" height="53.938" x="309.5" y="116" fill="#FEFECE" filter="url(#fln0d5r918i02)" style="stroke:#a80036;stroke-width:1.5"/><ellipse cx="324.5" cy="134.969" fill="#ADD1B2" rx="11" ry="11" style="stroke:#a80036;stroke-width:1"/><path d="M327.4688,140.6094 Q326.8906,140.9063 326.25,141.0469 Q325.6094,141.2031 324.9063,141.2031 Q322.4063,141.2031 321.0781,139.5625 Q319.7656,137.9063 319.7656,134.7813 Q319.7656,131.6563 321.0781,130 Q322.4063,128.3438 324.9063,128.3438 Q325.6094,128.3438 326.25,128.5 Q326.9063,128.6563 327.4688,128.9531 L327.4688,131.6719 Q326.8438,131.0938 326.25,130.8281 Q325.6563,130.5469 325.0313,130.5469 Q323.6875,130.5469 323,131.625 Q322.3125,132.6875 322.3125,134.7813 Q322.3125,136.875 323,137.9531 Q323.6875,139.0156 325.0313,139.0156 Q325.6563,139.0156 326.25,138.75 Q326.8438,138.4688 327.4688,137.8906 L327.4688,140.6094 Z"/><text x="336.5" y="132.139" fill="#000" font-family="sans-serif" font-size="12" font-style="italic" lengthAdjust="spacingAndGlyphs" textLength="62">«general»</text><text x="347.5" y="146.107" fill="#000" font-family="sans-serif" font-size="12" lengthAdjust="spacingAndGlyphs" textLength="40">Object</text><line style="stroke:#a80036;stroke-width:1.5" x1="310.5" x2="398.5" y1="153.938" y2="153.938"/><line style="stroke:#a80036;stroke-width:1.5" x1="310.5" x2="398.5" y1="161.938" y2="161.938"/><rect id="ArrayList" width="85" height="48" x="312" y="330" fill="#FEFECE" filter="url(#fln0d5r918i02)" style="stroke:#a80036;stroke-width:1.5"/><ellipse cx="327" cy="346" fill="#ADD1B2" rx="11" ry="11" style="stroke:#a80036;stroke-width:1"/><path d="M329.9688,351.6406 Q329.3906,351.9375 328.75,352.0781 Q328.1094,352.2344 327.4063,352.2344 Q324.9063,352.2344 323.5781,350.5938 Q322.2656,348.9375 322.2656,345.8125 Q322.2656,342.6875 323.5781,341.0313 Q324.9063,339.375 327.4063,339.375 Q328.1094,339.375 328.75,339.5313 Q329.4063,339.6875 329.9688,339.9844 L329.9688,342.7031 Q329.3438,342.125 328.75,341.8594 Q328.1563,341.5781 327.5313,341.5781 Q326.1875,341.5781 325.5,342.6563 Q324.8125,343.7188 324.8125,345.8125 Q324.8125,347.9063 325.5,348.9844 Q326.1875,350.0469 327.5313,350.0469 Q328.1563,350.0469 328.75,349.7813 Q329.3438,349.5 329.9688,348.9219 L329.9688,351.6406 Z"/><text x="341" y="350.154" fill="#000" font-family="sans-serif" font-size="12" lengthAdjust="spacingAndGlyphs" textLength="53">ArrayList</text><line style="stroke:#a80036;stroke-width:1.5" x1="313" x2="396" y1="362" y2="362"/><line style="stroke:#a80036;stroke-width:1.5" x1="313" x2="396" y1="370" y2="370"/><path fill="#FBFB77" d="M284,12 L284,52.2656 A0,0 0 0 0 284,52.2656 L350.5,52.2656 L354.5,115.9473 L358.5,52.2656 L425,52.2656 A0,0 0 0 0 425,52.2656 L425,22 L415,12 L284,12 A0,0 0 0 0 284,12" filter="url(#fln0d5r918i02)" style="stroke:#a80036;stroke-width:1"/><path fill="#FBFB77" d="M415,12 L415,22 L425,22 L415,12" style="stroke:#a80036;stroke-width:1"/><text x="290" y="29.067" fill="#000" font-family="sans-serif" font-size="13" lengthAdjust="spacingAndGlyphs" textLength="120">In java, every class</text><text x="290" y="44.2" fill="#000" font-family="sans-serif" font-size="13" lengthAdjust="spacingAndGlyphs" textLength="110">extends this one.</text><path fill="#FBFB77" d="M460.5,19.5 L460.5,44.6328 L616.5,44.6328 L616.5,29.5 L606.5,19.5 L460.5,19.5" filter="url(#fln0d5r918i02)" style="stroke:#a80036;stroke-width:1"/><path fill="#FBFB77" d="M606.5,19.5 L606.5,29.5 L616.5,29.5 L606.5,19.5" style="stroke:#a80036;stroke-width:1"/><text x="466.5" y="36.567" fill="#000" font-family="sans-serif" font-size="13" lengthAdjust="spacingAndGlyphs" textLength="135">This is a floating note</text><path fill="#FBFB77" d="M340.5,230 L340.5,270.2656 L504.5,270.2656 L504.5,240 L494.5,230 L340.5,230" filter="url(#fln0d5r918i02)" style="stroke:#a80036;stroke-width:1"/><path fill="#FBFB77" d="M494.5,230 L494.5,240 L504.5,240 L494.5,230" style="stroke:#a80036;stroke-width:1"/><text x="346.5" y="247.067" fill="#000" font-family="sans-serif" font-size="13" lengthAdjust="spacingAndGlyphs" textLength="143">This note is connected</text><text x="346.5" y="262.2" fill="#000" font-family="sans-serif" font-size="13" lengthAdjust="spacingAndGlyphs" textLength="117">to several objects.</text><rect id="Foo" width="55" height="48" x="194" y="8" fill="#FEFECE" filter="url(#fln0d5r918i02)" style="stroke:#a80036;stroke-width:1.5"/><ellipse cx="209" cy="24" fill="#ADD1B2" rx="11" ry="11" style="stroke:#a80036;stroke-width:1"/><path d="M211.9688,29.6406 Q211.3906,29.9375 210.75,30.0781 Q210.1094,30.2344 209.4063,30.2344 Q206.9063,30.2344 205.5781,28.5938 Q204.2656,26.9375 204.2656,23.8125 Q204.2656,20.6875 205.5781,19.0313 Q206.9063,17.375 209.4063,17.375 Q210.1094,17.375 210.75,17.5313 Q211.4063,17.6875 211.9688,17.9844 L211.9688,20.7031 Q211.3438,20.125 210.75,19.8594 Q210.1563,19.5781 209.5313,19.5781 Q208.1875,19.5781 207.5,20.6563 Q206.8125,21.7188 206.8125,23.8125 Q206.8125,25.9063 207.5,26.9844 Q208.1875,28.0469 209.5313,28.0469 Q210.1563,28.0469 210.75,27.7813 Q211.3438,27.5 211.9688,26.9219 L211.9688,29.6406 Z"/><text x="223" y="28.154" fill="#000" font-family="sans-serif" font-size="12" lengthAdjust="spacingAndGlyphs" textLength="23">Foo</text><line style="stroke:#a80036;stroke-width:1.5" x1="195" x2="248" y1="40" y2="40"/><line style="stroke:#a80036;stroke-width:1.5" x1="195" x2="248" y1="48" y2="48"/><path fill="#FBFB77" d="M6,19.5 L6,44.6328 A0,0 0 0 0 6,44.6328 L159,44.6328 A0,0 0 0 0 159,44.6328 L159,37.5 L193.6941,32 L159,29.5 L159,29.5 L149,19.5 L6,19.5 A0,0 0 0 0 6,19.5" filter="url(#fln0d5r918i02)" style="stroke:#a80036;stroke-width:1"/><path fill="#FBFB77" d="M149,19.5 L149,29.5 L159,29.5 L149,19.5" style="stroke:#a80036;stroke-width:1"/><text x="12" y="36.567" fill="#000" font-family="sans-serif" font-size="13" lengthAdjust="spacingAndGlyphs" textLength="132">On last defined class</text><path id="Object-ArrayList" fill="none" d="M333.756,188.9921 C325.3615,212.984 318.6601,242.9065 323.5,270 C327.2177,290.8114 335.7343,313.2177 342.9018,329.6508" style="stroke:#a80036;stroke-width:1"/><polygon fill="none" points="327.36 186.126 341.155 170.042 340.402 191.218 327.36 186.126" style="stroke:#a80036;stroke-width:1"/><path id="Object-N2" fill="none" d="M371.6593,170.0006 C383.4627,188.5736 398.8887,212.847 409.6398,229.7641" style="stroke:#a80036;stroke-width:1;stroke-dasharray:7,7"/><path id="N2-ArrayList" fill="none" d="M409.3889,270.0522 C398.1967,287.1697 382.0739,311.8281 370.1966,329.9934" style="stroke:#a80036;stroke-width:1;stroke-dasharray:7,7"/></g></svg>