<svg xmlns="http://www.w3.org/2000/svg" xmlns:xlink="http://www.w3.org/1999/xlink" width="370" height="398" contentScriptType="application/ecmascript" contentStyleType="text/css" style="width:370px;height:398px" preserveAspectRatio="none" version="1.1" viewBox="0 0 370 398" zoomAndPan="magnify"><defs><filter id="fdxu63edihdqi" width="300%" height="300%" x="-1" y="-1"><feGaussianBlur result="blurOut" stdDeviation="2"/><feColorMatrix in="blurOut" result="blurOut2" type="matrix" values="0 0 0 0 0 0 0 0 0 0 0 0 0 0 0 0 0 0 .4 0"/><feOffset dx="4" dy="4" in="blurOut2" result="blurOut3"/><feBlend in="SourceGraphic" in2="blurOut3" mode="normal"/></filter></defs><g><rect style="stroke:#a80036;stroke-width:1" width="10" height="175.93" x="95" y="117.43" fill="#FFF" filter="url(#fdxu63edihdqi)"/><rect style="stroke:#a80036;stroke-width:1" width="10" height="102.531" x="205" y="161.695" fill="#FFF" filter="url(#fdxu63edihdqi)"/><rect style="stroke:#a80036;stroke-width:1" width="10" height="29.133" x="314.5" y="190.828" fill="#FFF" filter="url(#fdxu63edihdqi)"/><line style="stroke:#a80036;stroke-width:1;stroke-dasharray:5,5" x1="27" x2="27" y1="86.297" y2="311.359"/><line style="stroke:#a80036;stroke-width:1;stroke-dasharray:5,5" x1="100" x2="100" y1="86.297" y2="311.359"/><line style="stroke:#a80036;stroke-width:1;stroke-dasharray:5,5" x1="210" x2="210" y1="86.297" y2="311.359"/><line style="stroke:#a80036;stroke-width:1;stroke-dasharray:5,5" x1="319" x2="319" y1="86.297" y2="311.359"/><text x="8" y="82.995" fill="#000" font-family="sans-serif" font-size="14" lengthAdjust="spacingAndGlyphs" text-decoration="underline" textLength="32">User</text><ellipse cx="27" cy="13" fill="#FEFECE" filter="url(#fdxu63edihdqi)" rx="8" ry="8" style="stroke:#a80036;stroke-width:2"/><path fill="none" d="M27,21 L27,48 M14,29 L40,29 M27,48 L14,63 M27,48 L40,63" filter="url(#fdxu63edihdqi)" style="stroke:#a80036;stroke-width:2"/><text x="8" y="323.354" fill="#000" font-family="sans-serif" font-size="14" lengthAdjust="spacingAndGlyphs" text-decoration="underline" textLength="32">User</text><ellipse cx="27" cy="336.656" fill="#FEFECE" filter="url(#fdxu63edihdqi)" rx="8" ry="8" style="stroke:#a80036;stroke-width:2"/><path fill="none" d="M27,344.6563 L27,371.6563 M14,352.6563 L40,352.6563 M27,371.6563 L14,386.6563 M27,371.6563 L40,386.6563" filter="url(#fdxu63edihdqi)" style="stroke:#a80036;stroke-width:2"/><rect style="stroke:#a80036;stroke-width:1.5" width="84" height="30.297" x="56" y="51" fill="#FEFECE" filter="url(#fdxu63edihdqi)" rx="10" ry="10"/><text x="63" y="70.995" fill="#000" font-family="sans-serif" font-size="14" lengthAdjust="spacingAndGlyphs" text-decoration="underline" textLength="70">First Class</text><rect style="stroke:#a80036;stroke-width:1.5" width="84" height="30.297" x="56" y="310.359" fill="#FEFECE" filter="url(#fdxu63edihdqi)" rx="10" ry="10"/><text x="63" y="330.354" fill="#000" font-family="sans-serif" font-size="14" lengthAdjust="spacingAndGlyphs" text-decoration="underline" textLength="70">First Class</text><rect style="stroke:#a80036;stroke-width:1.5" width="108" height="30.297" x="154" y="51" fill="#FEFECE" filter="url(#fdxu63edihdqi)" rx="10" ry="10"/><text x="161" y="70.995" fill="#000" font-family="sans-serif" font-size="14" lengthAdjust="spacingAndGlyphs" text-decoration="underline" textLength="94">Second Class</text><rect style="stroke:#a80036;stroke-width:1.5" width="108" height="30.297" x="154" y="310.359" fill="#FEFECE" filter="url(#fdxu63edihdqi)" rx="10" ry="10"/><text x="161" y="330.354" fill="#000" font-family="sans-serif" font-size="14" lengthAdjust="spacingAndGlyphs" text-decoration="underline" textLength="94">Second Class</text><rect style="stroke:#a80036;stroke-width:1.5" width="83" height="30.297" x="276" y="51" fill="#FEFECE" filter="url(#fdxu63edihdqi)" rx="10" ry="10"/><text x="283" y="70.995" fill="#000" font-family="sans-serif" font-size="14" lengthAdjust="spacingAndGlyphs" text-decoration="underline" textLength="69">Last Class</text><rect style="stroke:#a80036;stroke-width:1.5" width="83" height="30.297" x="276" y="310.359" fill="#FEFECE" filter="url(#fdxu63edihdqi)" rx="10" ry="10"/><text x="283" y="330.354" fill="#000" font-family="sans-serif" font-size="14" lengthAdjust="spacingAndGlyphs" text-decoration="underline" textLength="69">Last Class</text><rect style="stroke:#a80036;stroke-width:1" width="10" height="175.93" x="95" y="117.43" fill="#FFF" filter="url(#fdxu63edihdqi)"/><rect style="stroke:#a80036;stroke-width:1" width="10" height="102.531" x="205" y="161.695" fill="#FFF" filter="url(#fdxu63edihdqi)"/><rect style="stroke:#a80036;stroke-width:1" width="10" height="29.133" x="314.5" y="190.828" fill="#FFF" filter="url(#fdxu63edihdqi)"/><polygon fill="#A80036" points="83 113.43 93 117.43 83 121.43 87 117.43" style="stroke:#a80036;stroke-width:1"/><line style="stroke:#a80036;stroke-width:2" x1="27" x2="89" y1="117.43" y2="117.43"/><text x="34" y="112.364" fill="#000" font-family="sans-serif" font-size="13" lengthAdjust="spacingAndGlyphs" textLength="49">DoWork</text><polygon fill="#A80036" points="193 157.695 203 161.695 193 165.695 197 161.695" style="stroke:#a80036;stroke-width:1"/><line style="stroke:#a80036;stroke-width:2" x1="105" x2="199" y1="161.695" y2="161.695"/><text x="112" y="141.497" fill="#000" font-family="sans-serif" font-size="13" lengthAdjust="spacingAndGlyphs" textLength="43">Create</text><text x="112" y="156.629" fill="#000" font-family="sans-serif" font-size="13" lengthAdjust="spacingAndGlyphs" textLength="52">Request</text><polygon fill="#A80036" points="302.5 186.828 312.5 190.828 302.5 194.828 306.5 190.828" style="stroke:#a80036;stroke-width:1"/><line style="stroke:#a80036;stroke-width:2" x1="215" x2="308.5" y1="190.828" y2="190.828"/><text x="222" y="185.762" fill="#000" font-family="sans-serif" font-size="13" lengthAdjust="spacingAndGlyphs" textLength="49">DoWork</text><polygon fill="#A80036" points="226 215.961 216 219.961 226 223.961 222 219.961" style="stroke:#a80036;stroke-width:1"/><line style="stroke:#a80036;stroke-width:2;stroke-dasharray:2,2" x1="220" x2="318.5" y1="219.961" y2="219.961"/><text x="232" y="214.895" fill="#000" font-family="sans-serif" font-size="13" lengthAdjust="spacingAndGlyphs" textLength="65">WorkDone</text><line style="stroke:#a80036;stroke-width:2" x1="310.5" x2="328.5" y1="210.961" y2="228.961"/><line style="stroke:#a80036;stroke-width:2" x1="310.5" x2="328.5" y1="228.961" y2="210.961"/><polygon fill="#A80036" points="116 260.227 106 264.227 116 268.227 112 264.227" style="stroke:#a80036;stroke-width:1"/><line style="stroke:#a80036;stroke-width:2;stroke-dasharray:2,2" x1="110" x2="209" y1="264.227" y2="264.227"/><text x="122" y="244.028" fill="#000" font-family="sans-serif" font-size="13" lengthAdjust="spacingAndGlyphs" textLength="52">Request</text><text x="122" y="259.161" fill="#000" font-family="sans-serif" font-size="13" lengthAdjust="spacingAndGlyphs" textLength="51">Created</text><polygon fill="#A80036" points="38 289.359 28 293.359 38 297.359 34 293.359" style="stroke:#a80036;stroke-width:1"/><line style="stroke:#a80036;stroke-width:2;stroke-dasharray:2,2" x1="32" x2="99" y1="293.359" y2="293.359"/><text x="44" y="288.293" fill="#000" font-family="sans-serif" font-size="13" lengthAdjust="spacingAndGlyphs" textLength="34">Done</text></g></svg>