<svg xmlns="http://www.w3.org/2000/svg" xmlns:xlink="http://www.w3.org/1999/xlink" width="383" height="339" contentScriptType="application/ecmascript" contentStyleType="text/css" style="width:383px;height:339px" preserveAspectRatio="none" version="1.1" viewBox="0 0 383 339" zoomAndPan="magnify"><defs><filter id="f12w6r7cq439e9" width="300%" height="300%" x="-1" y="-1"><feGaussianBlur result="blurOut" stdDeviation="2"/><feColorMatrix in="blurOut" result="blurOut2" type="matrix" values="0 0 0 0 0 0 0 0 0 0 0 0 0 0 0 0 0 0 .4 0"/><feOffset dx="4" dy="4" in="blurOut2" result="blurOut3"/><feBlend in="SourceGraphic" in2="blurOut3" mode="normal"/></filter></defs><g><line style="stroke:#a80036;stroke-width:1;stroke-dasharray:5,5" x1="28" x2="28" y1="86.297" y2="251.961"/><line style="stroke:#a80036;stroke-width:1;stroke-dasharray:5,5" x1="131" x2="131" y1="86.297" y2="251.961"/><line style="stroke:#a80036;stroke-width:1;stroke-dasharray:5,5" x1="186" x2="186" y1="86.297" y2="251.961"/><line style="stroke:#a80036;stroke-width:1;stroke-dasharray:5,5" x1="237" x2="237" y1="86.297" y2="251.961"/><line style="stroke:#a80036;stroke-width:1;stroke-dasharray:5,5" x1="288" x2="288" y1="86.297" y2="251.961"/><line style="stroke:#a80036;stroke-width:1;stroke-dasharray:5,5" x1="347" x2="347" y1="86.297" y2="251.961"/><text x="8" y="82.995" fill="#000" font-family="sans-serif" font-size="14" lengthAdjust="spacingAndGlyphs" textLength="35">Foo1</text><ellipse cx="28.5" cy="13" fill="#FEFECE" filter="url(#f12w6r7cq439e9)" rx="8" ry="8" style="stroke:#a80036;stroke-width:2"/><path fill="none" d="M28.5,21 L28.5,48 M15.5,29 L41.5,29 M28.5,48 L15.5,63 M28.5,48 L41.5,63" filter="url(#f12w6r7cq439e9)" style="stroke:#a80036;stroke-width:2"/><text x="8" y="263.956" fill="#000" font-family="sans-serif" font-size="14" lengthAdjust="spacingAndGlyphs" textLength="35">Foo1</text><ellipse cx="28.5" cy="277.258" fill="#FEFECE" filter="url(#f12w6r7cq439e9)" rx="8" ry="8" style="stroke:#a80036;stroke-width:2"/><path fill="none" d="M28.5,285.2578 L28.5,312.2578 M15.5,293.2578 L41.5,293.2578 M28.5,312.2578 L15.5,327.2578 M28.5,312.2578 L41.5,327.2578" filter="url(#f12w6r7cq439e9)" style="stroke:#a80036;stroke-width:2"/><text x="111" y="82.995" fill="#000" font-family="sans-serif" font-size="14" lengthAdjust="spacingAndGlyphs" textLength="35">Foo2</text><path fill="none" d="M111,42 L111,66 M111,54 L128,54" filter="url(#f12w6r7cq439e9)" style="stroke:#a80036;stroke-width:2"/><ellipse cx="140" cy="54" fill="#FEFECE" filter="url(#f12w6r7cq439e9)" rx="12" ry="12" style="stroke:#a80036;stroke-width:2"/><text x="111" y="263.956" fill="#000" font-family="sans-serif" font-size="14" lengthAdjust="spacingAndGlyphs" textLength="35">Foo2</text><path fill="none" d="M111,271.2578 L111,295.2578 M111,283.2578 L128,283.2578" filter="url(#f12w6r7cq439e9)" style="stroke:#a80036;stroke-width:2"/><ellipse cx="140" cy="283.258" fill="#FEFECE" filter="url(#f12w6r7cq439e9)" rx="12" ry="12" style="stroke:#a80036;stroke-width:2"/><text x="166" y="82.995" fill="#000" font-family="sans-serif" font-size="14" lengthAdjust="spacingAndGlyphs" textLength="35">Foo3</text><ellipse cx="186.5" cy="54" fill="#FEFECE" filter="url(#f12w6r7cq439e9)" rx="12" ry="12" style="stroke:#a80036;stroke-width:2"/><polygon fill="#A80036" points="182.5 42 188.5 37 186.5 42 188.5 47 182.5 42" style="stroke:#a80036;stroke-width:1"/><text x="166" y="263.956" fill="#000" font-family="sans-serif" font-size="14" lengthAdjust="spacingAndGlyphs" textLength="35">Foo3</text><ellipse cx="186.5" cy="283.258" fill="#FEFECE" filter="url(#f12w6r7cq439e9)" rx="12" ry="12" style="stroke:#a80036;stroke-width:2"/><polygon fill="#A80036" points="182.5 271.258 188.5 266.258 186.5 271.258 188.5 276.258 182.5 271.258" style="stroke:#a80036;stroke-width:1"/><text x="217" y="82.995" fill="#000" font-family="sans-serif" font-size="14" lengthAdjust="spacingAndGlyphs" textLength="35">Foo4</text><ellipse cx="237.5" cy="54" fill="#FEFECE" filter="url(#f12w6r7cq439e9)" rx="12" ry="12" style="stroke:#a80036;stroke-width:2"/><line style="stroke:#a80036;stroke-width:2" x1="225.5" x2="249.5" y1="68" y2="68"/><text x="217" y="263.956" fill="#000" font-family="sans-serif" font-size="14" lengthAdjust="spacingAndGlyphs" textLength="35">Foo4</text><ellipse cx="237.5" cy="283.258" fill="#FEFECE" filter="url(#f12w6r7cq439e9)" rx="12" ry="12" style="stroke:#a80036;stroke-width:2"/><line style="stroke:#a80036;stroke-width:2" x1="225.5" x2="249.5" y1="297.258" y2="297.258"/><text x="268" y="82.995" fill="#000" font-family="sans-serif" font-size="14" lengthAdjust="spacingAndGlyphs" textLength="35">Foo5</text><path fill="#FEFECE" d="M270.5,34 C270.5,24 288.5,24 288.5,24 C288.5,24 306.5,24 306.5,34 L306.5,60 C306.5,70 288.5,70 288.5,70 C288.5,70 270.5,70 270.5,60 L270.5,34" filter="url(#f12w6r7cq439e9)" style="stroke:#000;stroke-width:1.5"/><path fill="none" d="M270.5,34 C270.5,44 288.5,44 288.5,44 C288.5,44 306.5,44 306.5,34" style="stroke:#000;stroke-width:1.5"/><text x="268" y="263.956" fill="#000" font-family="sans-serif" font-size="14" lengthAdjust="spacingAndGlyphs" textLength="35">Foo5</text><path fill="#FEFECE" d="M270.5,277.2578 C270.5,267.2578 288.5,267.2578 288.5,267.2578 C288.5,267.2578 306.5,267.2578 306.5,277.2578 L306.5,303.2578 C306.5,313.2578 288.5,313.2578 288.5,313.2578 C288.5,313.2578 270.5,313.2578 270.5,303.2578 L270.5,277.2578" filter="url(#f12w6r7cq439e9)" style="stroke:#000;stroke-width:1.5"/><path fill="none" d="M270.5,277.2578 C270.5,287.2578 288.5,287.2578 288.5,287.2578 C288.5,287.2578 306.5,287.2578 306.5,277.2578" style="stroke:#000;stroke-width:1.5"/><rect style="stroke:#a80036;stroke-width:1.5" width="49" height="30.297" x="323" y="47" fill="#FEFECE" filter="url(#f12w6r7cq439e9)"/><rect style="stroke:#a80036;stroke-width:1.5" width="49" height="30.297" x="319" y="51" fill="#FEFECE" filter="url(#f12w6r7cq439e9)"/><text x="326" y="70.995" fill="#000" font-family="sans-serif" font-size="14" lengthAdjust="spacingAndGlyphs" textLength="35">Foo6</text><rect style="stroke:#a80036;stroke-width:1.5" width="49" height="30.297" x="323" y="250.961" fill="#FEFECE" filter="url(#f12w6r7cq439e9)"/><rect style="stroke:#a80036;stroke-width:1.5" width="49" height="30.297" x="319" y="254.961" fill="#FEFECE" filter="url(#f12w6r7cq439e9)"/><text x="326" y="274.956" fill="#000" font-family="sans-serif" font-size="14" lengthAdjust="spacingAndGlyphs" textLength="35">Foo6</text><polygon fill="#A80036" points="119.5 113.43 129.5 117.43 119.5 121.43 123.5 117.43" style="stroke:#a80036;stroke-width:1"/><line style="stroke:#a80036;stroke-width:1" x1="28.5" x2="125.5" y1="117.43" y2="117.43"/><text x="35.5" y="112.364" fill="#000" font-family="sans-serif" font-size="13" lengthAdjust="spacingAndGlyphs" textLength="79">To boundary</text><polygon fill="#A80036" points="174.5 142.563 184.5 146.563 174.5 150.563 178.5 146.563" style="stroke:#a80036;stroke-width:1"/><line style="stroke:#a80036;stroke-width:1" x1="28.5" x2="180.5" y1="146.563" y2="146.563"/><text x="35.5" y="141.497" fill="#000" font-family="sans-serif" font-size="13" lengthAdjust="spacingAndGlyphs" textLength="63">To control</text><polygon fill="#A80036" points="225.5 171.695 235.5 175.695 225.5 179.695 229.5 175.695" style="stroke:#a80036;stroke-width:1"/><line style="stroke:#a80036;stroke-width:1" x1="28.5" x2="231.5" y1="175.695" y2="175.695"/><text x="35.5" y="170.629" fill="#000" font-family="sans-serif" font-size="13" lengthAdjust="spacingAndGlyphs" textLength="55">To entity</text><polygon fill="#A80036" points="276.5 200.828 286.5 204.828 276.5 208.828 280.5 204.828" style="stroke:#a80036;stroke-width:1"/><line style="stroke:#a80036;stroke-width:1" x1="28.5" x2="282.5" y1="204.828" y2="204.828"/><text x="35.5" y="199.762" fill="#000" font-family="sans-serif" font-size="13" lengthAdjust="spacingAndGlyphs" textLength="79">To database</text><polygon fill="#A80036" points="335.5 229.961 345.5 233.961 335.5 237.961 339.5 233.961" style="stroke:#a80036;stroke-width:1"/><line style="stroke:#a80036;stroke-width:1" x1="28.5" x2="341.5" y1="233.961" y2="233.961"/><text x="35.5" y="228.895" fill="#000" font-family="sans-serif" font-size="13" lengthAdjust="spacingAndGlyphs" textLength="86">To collections</text></g></svg>