<svg xmlns="http://www.w3.org/2000/svg" xmlns:xlink="http://www.w3.org/1999/xlink" width="192" height="188" contentScriptType="application/ecmascript" contentStyleType="text/css" style="width:192px;height:188px" preserveAspectRatio="none" version="1.1" viewBox="0 0 192 188" zoomAndPan="magnify"><defs><filter id="fmrfos47plmcr" width="300%" height="300%" x="-1" y="-1"><feGaussianBlur result="blurOut" stdDeviation="2"/><feColorMatrix in="blurOut" result="blurOut2" type="matrix" values="0 0 0 0 0 0 0 0 0 0 0 0 0 0 0 0 0 0 .4 0"/><feOffset dx="4" dy="4" in="blurOut2" result="blurOut3"/><feBlend in="SourceGraphic" in2="blurOut3" mode="normal"/></filter></defs><g><rect style="stroke:#a80036;stroke-width:1.5" width="71" height="33.969" x="64" y="67.609" fill="#FEFECE" filter="url(#fmrfos47plmcr)" rx="12.5" ry="12.5"/><text x="74" y="88.748" fill="#000" font-family="sans-serif" font-size="12" lengthAdjust="spacingAndGlyphs" textLength="51">read file</text><polygon fill="#FEFECE" points="57 11.899 142 11.899 154 23.899 142 35.899 57 35.899 45 23.899 57 11.899" filter="url(#fmrfos47plmcr)" style="stroke:#a80036;stroke-width:1.5"/><text x="103.5" y="46.109" fill="#000" font-family="sans-serif" font-size="11" lengthAdjust="spacingAndGlyphs" textLength="57">not empty</text><text x="57" y="27.707" fill="#000" font-family="sans-serif" font-size="11" lengthAdjust="spacingAndGlyphs" textLength="85">check filesize ?</text><text x="10" y="21.305" fill="#000" font-family="sans-serif" font-size="11" lengthAdjust="spacingAndGlyphs" textLength="35">empty</text><rect style="stroke:#a80036;stroke-width:1.5" width="75" height="33.969" x="62" y="143.578" fill="#FEFECE" filter="url(#fmrfos47plmcr)" rx="12.5" ry="12.5"/><text x="72" y="164.717" fill="#000" font-family="sans-serif" font-size="12" lengthAdjust="spacingAndGlyphs" textLength="55">close file</text><line style="stroke:#a80036;stroke-width:1.5" x1="99.5" x2="99.5" y1="35.899" y2="67.609"/><polygon fill="#A80036" points="95.5 57.609 99.5 67.609 103.5 57.609 99.5 61.609" style="stroke:#a80036;stroke-width:1"/><line style="stroke:#a80036;stroke-width:1.5" x1="99.5" x2="99.5" y1="101.578" y2="111.578"/><line style="stroke:#a80036;stroke-width:1.5" x1="99.5" x2="166" y1="111.578" y2="111.578"/><polygon fill="#A80036" points="162 76.191 166 66.191 170 76.191 166 72.191" style="stroke:#a80036;stroke-width:1.5"/><line style="stroke:#a80036;stroke-width:1.5" x1="166" x2="166" y1="23.899" y2="111.578"/><line style="stroke:#a80036;stroke-width:1.5" x1="166" x2="154" y1="23.899" y2="23.899"/><polygon fill="#A80036" points="164 19.899 154 23.899 164 27.899 160 23.899" style="stroke:#a80036;stroke-width:1"/><line style="stroke:#a80036;stroke-width:1.5" x1="45" x2="33" y1="23.899" y2="23.899"/><polygon fill="#A80036" points="29 62.191 33 72.191 37 62.191 33 66.191" style="stroke:#a80036;stroke-width:1.5"/><line style="stroke:#a80036;stroke-width:1.5" x1="33" x2="33" y1="23.899" y2="123.578"/><line style="stroke:#a80036;stroke-width:1.5" x1="33" x2="99.5" y1="123.578" y2="123.578"/><line style="stroke:#a80036;stroke-width:1.5" x1="99.5" x2="99.5" y1="123.578" y2="143.578"/><polygon fill="#A80036" points="95.5 133.578 99.5 143.578 103.5 133.578 99.5 137.578" style="stroke:#a80036;stroke-width:1"/></g></svg>