<svg xmlns="http://www.w3.org/2000/svg" xmlns:xlink="http://www.w3.org/1999/xlink" width="386" height="228" contentScriptType="application/ecmascript" contentStyleType="text/css" style="width:386px;height:228px" preserveAspectRatio="none" version="1.1" viewBox="0 0 386 228" zoomAndPan="magnify"><defs><filter id="f1n7x3hm4aqnaz" width="300%" height="300%" x="-1" y="-1"><feGaussianBlur result="blurOut" stdDeviation="2"/><feColorMatrix in="blurOut" result="blurOut2" type="matrix" values="0 0 0 0 0 0 0 0 0 0 0 0 0 0 0 0 0 0 .4 0"/><feOffset dx="4" dy="4" in="blurOut2" result="blurOut3"/><feBlend in="SourceGraphic" in2="blurOut3" mode="normal"/></filter></defs><g><ellipse cx="229.75" cy="20" fill="#000" filter="url(#f1n7x3hm4aqnaz)" rx="10" ry="10" style="stroke:none;stroke-width:1"/><polygon fill="#FEFECE" points="183.75 50 275.75 50 287.75 62 275.75 74 183.75 74 171.75 62 183.75 50" filter="url(#f1n7x3hm4aqnaz)" style="stroke:#a80036;stroke-width:1.5"/><text x="183.75" y="65.808" fill="#000" font-family="sans-serif" font-size="11" lengthAdjust="spacingAndGlyphs" textLength="92">multiprocessor?</text><text x="151.75" y="59.406" fill="#000" font-family="sans-serif" font-size="11" lengthAdjust="spacingAndGlyphs" textLength="20">yes</text><text x="287.75" y="59.406" fill="#000" font-family="sans-serif" font-size="11" lengthAdjust="spacingAndGlyphs" textLength="57">monoproc</text><rect style="stroke:#000;stroke-width:1" width="248" height="6" x="10" y="84" fill="#000" filter="url(#f1n7x3hm4aqnaz)" rx="2.5" ry="2.5"/><rect style="stroke:#a80036;stroke-width:1.5" width="97" height="33.969" x="22" y="110" fill="#FEFECE" filter="url(#f1n7x3hm4aqnaz)" rx="12.5" ry="12.5"/><text x="32" y="131.139" fill="#000" font-family="sans-serif" font-size="12" lengthAdjust="spacingAndGlyphs" textLength="77">Treatment 1</text><rect style="stroke:#a80036;stroke-width:1.5" width="97" height="33.969" x="147" y="110" fill="#FEFECE" filter="url(#f1n7x3hm4aqnaz)" rx="12.5" ry="12.5"/><text x="157" y="131.139" fill="#000" font-family="sans-serif" font-size="12" lengthAdjust="spacingAndGlyphs" textLength="77">Treatment 2</text><rect style="stroke:#000;stroke-width:1" width="248" height="6" x="10" y="163.969" fill="#000" filter="url(#f1n7x3hm4aqnaz)" rx="2.5" ry="2.5"/><rect style="stroke:#a80036;stroke-width:1.5" width="97" height="33.969" x="278" y="84" fill="#FEFECE" filter="url(#f1n7x3hm4aqnaz)" rx="12.5" ry="12.5"/><text x="288" y="105.139" fill="#000" font-family="sans-serif" font-size="12" lengthAdjust="spacingAndGlyphs" textLength="77">Treatment 1</text><rect style="stroke:#a80036;stroke-width:1.5" width="97" height="33.969" x="278" y="152.969" fill="#FEFECE" filter="url(#f1n7x3hm4aqnaz)" rx="12.5" ry="12.5"/><text x="288" y="174.107" fill="#000" font-family="sans-serif" font-size="12" lengthAdjust="spacingAndGlyphs" textLength="77">Treatment 2</text><polygon fill="#FEFECE" points="229.75 192.938 241.75 204.938 229.75 216.938 217.75 204.938 229.75 192.938" filter="url(#f1n7x3hm4aqnaz)" style="stroke:#a80036;stroke-width:1.5"/><line style="stroke:#a80036;stroke-width:1.5" x1="70.5" x2="70.5" y1="90" y2="110"/><polygon fill="#A80036" points="66.5 100 70.5 110 74.5 100 70.5 104" style="stroke:#a80036;stroke-width:1"/><line style="stroke:#a80036;stroke-width:1.5" x1="195.5" x2="195.5" y1="90" y2="110"/><polygon fill="#A80036" points="191.5 100 195.5 110 199.5 100 195.5 104" style="stroke:#a80036;stroke-width:1"/><line style="stroke:#a80036;stroke-width:1.5" x1="70.5" x2="70.5" y1="143.969" y2="163.969"/><polygon fill="#A80036" points="66.5 153.969 70.5 163.969 74.5 153.969 70.5 157.969" style="stroke:#a80036;stroke-width:1"/><line style="stroke:#a80036;stroke-width:1.5" x1="195.5" x2="195.5" y1="143.969" y2="163.969"/><polygon fill="#A80036" points="191.5 153.969 195.5 163.969 199.5 153.969 195.5 157.969" style="stroke:#a80036;stroke-width:1"/><line style="stroke:#a80036;stroke-width:1.5" x1="326.5" x2="326.5" y1="117.969" y2="152.969"/><polygon fill="#A80036" points="322.5 142.969 326.5 152.969 330.5 142.969 326.5 146.969" style="stroke:#a80036;stroke-width:1"/><line style="stroke:#a80036;stroke-width:1.5" x1="171.75" x2="133" y1="62" y2="62"/><line style="stroke:#a80036;stroke-width:1.5" x1="133" x2="133" y1="62" y2="84"/><polygon fill="#A80036" points="129 74 133 84 137 74 133 78" style="stroke:#a80036;stroke-width:1"/><line style="stroke:#a80036;stroke-width:1.5" x1="287.75" x2="326.5" y1="62" y2="62"/><line style="stroke:#a80036;stroke-width:1.5" x1="326.5" x2="326.5" y1="62" y2="84"/><polygon fill="#A80036" points="322.5 74 326.5 84 330.5 74 326.5 78" style="stroke:#a80036;stroke-width:1"/><line style="stroke:#a80036;stroke-width:1.5" x1="133" x2="133" y1="169.969" y2="204.938"/><line style="stroke:#a80036;stroke-width:1.5" x1="133" x2="217.75" y1="204.938" y2="204.938"/><polygon fill="#A80036" points="207.75 200.938 217.75 204.938 207.75 208.938 211.75 204.938" style="stroke:#a80036;stroke-width:1"/><line style="stroke:#a80036;stroke-width:1.5" x1="326.5" x2="326.5" y1="186.938" y2="204.938"/><line style="stroke:#a80036;stroke-width:1.5" x1="326.5" x2="241.75" y1="204.938" y2="204.938"/><polygon fill="#A80036" points="251.75 200.938 241.75 204.938 251.75 208.938 247.75 204.938" style="stroke:#a80036;stroke-width:1"/><line style="stroke:#a80036;stroke-width:1.5" x1="229.75" x2="229.75" y1="30" y2="50"/><polygon fill="#A80036" points="225.75 40 229.75 50 233.75 40 229.75 44" style="stroke:#a80036;stroke-width:1"/></g></svg>