<svg xmlns="http://www.w3.org/2000/svg" xmlns:xlink="http://www.w3.org/1999/xlink" width="299" height="551" contentScriptType="application/ecmascript" contentStyleType="text/css" style="width:299px;height:551px" preserveAspectRatio="none" version="1.1" viewBox="0 0 299 551" zoomAndPan="magnify"><defs><filter id="f1wca5zgvb7ntg" width="300%" height="300%" x="-1" y="-1"><feGaussianBlur result="blurOut" stdDeviation="2"/><feColorMatrix in="blurOut" result="blurOut2" type="matrix" values="0 0 0 0 0 0 0 0 0 0 0 0 0 0 0 0 0 0 .4 0"/><feOffset dx="4" dy="4" in="blurOut2" result="blurOut3"/><feBlend in="SourceGraphic" in2="blurOut3" mode="normal"/></filter></defs><g><ellipse cx="140.5" cy="20" fill="#000" filter="url(#f1wca5zgvb7ntg)" rx="10" ry="10" style="stroke:none;stroke-width:1"/><rect style="stroke:#a80036;stroke-width:1.5" width="117" height="33.969" x="82" y="94" fill="#FEFECE" filter="url(#f1wca5zgvb7ntg)" rx="12.5" ry="12.5"/><text x="92" y="115.139" fill="#000" font-family="sans-serif" font-size="12" lengthAdjust="spacingAndGlyphs" textLength="97">Test something</text><rect style="stroke:#a80036;stroke-width:1.5" width="36" height="33.969" x="122.5" y="196.371" fill="#98FB98" filter="url(#f1wca5zgvb7ntg)" rx="12.5" ry="12.5"/><text x="132.5" y="217.51" fill="#000" font-family="sans-serif" font-size="12" lengthAdjust="spacingAndGlyphs" textLength="16">OK</text><polygon fill="#FEFECE" points="72 147.969 209 147.969 221 159.969 209 171.969 72 171.969 60 159.969 72 147.969" filter="url(#f1wca5zgvb7ntg)" style="stroke:#a80036;stroke-width:1.5"/><text x="144.5" y="182.179" fill="#000" font-family="sans-serif" font-size="11" lengthAdjust="spacingAndGlyphs" textLength="14">no</text><text x="72" y="163.777" fill="#000" font-family="sans-serif" font-size="11" lengthAdjust="spacingAndGlyphs" textLength="137">Something went wrong?</text><rect style="stroke:#a80036;stroke-width:1.5" width="182" height="33.969" x="49.5" y="301.657" fill="#FEFECE" filter="url(#f1wca5zgvb7ntg)" rx="12.5" ry="12.5"/><text x="59.5" y="322.795" fill="#000" font-family="sans-serif" font-size="12" lengthAdjust="spacingAndGlyphs" textLength="162">Alert &quot;Error with long text&quot;</text><polygon fill="#FEFECE" points="140.5 50 152.5 62 140.5 74 128.5 62 140.5 50" filter="url(#f1wca5zgvb7ntg)" style="stroke:#a80036;stroke-width:1.5"/><polygon fill="#FEFECE" points="32 355.625 249 355.625 261 367.625 249 379.625 32 379.625 20 367.625 32 355.625" filter="url(#f1wca5zgvb7ntg)" style="stroke:#a80036;stroke-width:1.5"/><text x="32" y="371.434" fill="#000" font-family="sans-serif" font-size="11" lengthAdjust="spacingAndGlyphs" textLength="217">Something went wrong with long text?</text><text x="261" y="365.031" fill="#000" font-family="sans-serif" font-size="11" lengthAdjust="spacingAndGlyphs" textLength="20">yes</text><polygon fill="#FEFECE" points="140.5 399.625 152.5 411.625 140.5 423.625 128.5 411.625 140.5 399.625" filter="url(#f1wca5zgvb7ntg)" style="stroke:#a80036;stroke-width:1.5"/><rect style="stroke:#a80036;stroke-width:1.5" width="108" height="33.969" x="86.5" y="465.024" fill="#FEFECE" filter="url(#f1wca5zgvb7ntg)" rx="12.5" ry="12.5"/><text x="96.5" y="486.163" fill="#000" font-family="sans-serif" font-size="12" lengthAdjust="spacingAndGlyphs" textLength="88">Alert &quot;Sucess&quot;</text><ellipse cx="140.5" cy="529.993" fill="#FFF" filter="url(#f1wca5zgvb7ntg)" rx="11" ry="11" style="stroke:#000;stroke-width:1"/><ellipse cx="140.5" cy="529.993" fill="#000" rx="6" ry="6" style="stroke:#7f7f7f;stroke-width:1"/><line style="stroke:#a80036;stroke-width:1.5" x1="140.5" x2="140.5" y1="230.34" y2="243.258"/><line style="stroke:#a80036;stroke-width:1.5" x1="140.5" x2="10" y1="243.258" y2="243.258"/><line style="stroke:#a80036;stroke-width:1.5" x1="10" x2="10" y1="243.258" y2="411.625"/><line style="stroke:#a80036;stroke-width:1.5" x1="10" x2="128.5" y1="411.625" y2="411.625"/><polygon fill="#A80036" points="118.5 407.625 128.5 411.625 118.5 415.625 122.5 411.625" style="stroke:#a80036;stroke-width:1"/><line style="stroke:#a80036;stroke-width:1.5" x1="140.5" x2="140.5" y1="171.969" y2="196.371"/><polygon fill="#A80036" points="136.5 186.371 140.5 196.371 144.5 186.371 140.5 190.371" style="stroke:#a80036;stroke-width:1"/><line style="stroke:#a80036;stroke-width:1.5" x1="221" x2="233" y1="159.969" y2="159.969"/><polygon fill="#A80036" points="229 217.856 233 227.856 237 217.856 233 221.856" style="stroke:#a80036;stroke-width:1.5"/><line style="stroke:#a80036;stroke-width:1.5" x1="233" x2="233" y1="159.969" y2="260.258"/><line style="stroke:#a80036;stroke-width:1.5" x1="233" x2="140.5" y1="260.258" y2="260.258"/><line style="stroke:#a80036;stroke-width:1.5" x1="140.5" x2="140.5" y1="127.969" y2="147.969"/><polygon fill="#A80036" points="136.5 137.969 140.5 147.969 144.5 137.969 140.5 141.969" style="stroke:#a80036;stroke-width:1"/><line style="stroke:#a80036;stroke-width:1.5" x1="140.5" x2="140.5" y1="260.258" y2="301.657"/><polygon fill="#A80036" points="136.5 291.657 140.5 301.657 144.5 291.657 140.5 295.657" style="stroke:#a80036;stroke-width:1"/><text x="144.5" y="281.563" fill="#000" font-family="sans-serif" font-size="11" lengthAdjust="spacingAndGlyphs" textLength="24">NOK</text><line style="stroke:#a80036;stroke-width:1.5" x1="140.5" x2="140.5" y1="74" y2="94"/><polygon fill="#A80036" points="136.5 84 140.5 94 144.5 84 140.5 88" style="stroke:#a80036;stroke-width:1"/><line style="stroke:#a80036;stroke-width:1.5" x1="261" x2="273" y1="367.625" y2="367.625"/><polygon fill="#A80036" points="269 238.258 273 228.258 277 238.258 273 234.258" style="stroke:#a80036;stroke-width:1.5"/><line style="stroke:#a80036;stroke-width:1.5" x1="273" x2="273" y1="62" y2="367.625"/><line style="stroke:#a80036;stroke-width:1.5" x1="273" x2="152.5" y1="62" y2="62"/><polygon fill="#A80036" points="162.5 58 152.5 62 162.5 66 158.5 62" style="stroke:#a80036;stroke-width:1"/><line style="stroke:#a80036;stroke-width:1.5" x1="140.5" x2="140.5" y1="335.625" y2="355.625"/><polygon fill="#A80036" points="136.5 345.625 140.5 355.625 144.5 345.625 140.5 349.625" style="stroke:#a80036;stroke-width:1"/><line style="stroke:#a80036;stroke-width:1.5" x1="140.5" x2="140.5" y1="379.625" y2="399.625"/><polygon fill="#A80036" points="136.5 389.625 140.5 399.625 144.5 389.625 140.5 393.625" style="stroke:#a80036;stroke-width:1"/><line style="stroke:#a80036;stroke-width:1.5" x1="140.5" x2="140.5" y1="30" y2="50"/><polygon fill="#A80036" points="136.5 40 140.5 50 144.5 40 140.5 44" style="stroke:#a80036;stroke-width:1"/><line style="stroke:#a80036;stroke-width:1.5" x1="140.5" x2="140.5" y1="423.625" y2="465.024"/><polygon fill="#A80036" points="136.5 455.024 140.5 465.024 144.5 455.024 140.5 459.024" style="stroke:#a80036;stroke-width:1"/><text x="144.5" y="444.93" fill="#000" font-family="sans-serif" font-size="11" lengthAdjust="spacingAndGlyphs" textLength="14">no</text><line style="stroke:#a80036;stroke-width:1.5" x1="140.5" x2="140.5" y1="498.993" y2="518.993"/><polygon fill="#A80036" points="136.5 508.993 140.5 518.993 144.5 508.993 140.5 512.993" style="stroke:#a80036;stroke-width:1"/></g></svg>