<svg xmlns="http://www.w3.org/2000/svg" xmlns:xlink="http://www.w3.org/1999/xlink" width="139" height="174" contentScriptType="application/ecmascript" contentStyleType="text/css" style="width:139px;height:174px" preserveAspectRatio="none" version="1.1" viewBox="0 0 139 174" zoomAndPan="magnify"><defs><filter id="fflcdlhsw0c19" width="300%" height="300%" x="-1" y="-1"><feGaussianBlur result="blurOut" stdDeviation="2"/><feColorMatrix in="blurOut" result="blurOut2" type="matrix" values="0 0 0 0 0 0 0 0 0 0 0 0 0 0 0 0 0 0 .4 0"/><feOffset dx="4" dy="4" in="blurOut2" result="blurOut3"/><feBlend in="SourceGraphic" in2="blurOut3" mode="normal"/></filter></defs><g><rect style="stroke:#a80036;stroke-width:1.5" width="51" height="33.969" x="35" y="54" fill="pink" filter="url(#fflcdlhsw0c19)" rx="12.5" ry="12.5"/><text x="45" y="75.139" fill="#000" font-family="sans-serif" font-size="12" lengthAdjust="spacingAndGlyphs" textLength="31">error</text><polygon fill="#FEFECE" points="32 10 89 10 101 22 89 34 32 34 20 22 32 10" filter="url(#fflcdlhsw0c19)" style="stroke:#a80036;stroke-width:1.5"/><text x="32" y="25.808" fill="#000" font-family="sans-serif" font-size="11" lengthAdjust="spacingAndGlyphs" textLength="57">condition?</text><rect style="stroke:#a80036;stroke-width:1.5" width="59" height="33.969" x="31" y="129.969" fill="#98FB98" filter="url(#fflcdlhsw0c19)" rx="12.5" ry="12.5"/><text x="41" y="151.107" fill="#000" font-family="sans-serif" font-size="12" lengthAdjust="spacingAndGlyphs" textLength="39">action</text><line style="stroke:#a80036;stroke-width:1.5" x1="60.5" x2="60.5" y1="34" y2="54"/><polygon fill="#A80036" points="56.5 44 60.5 54 64.5 44 60.5 48" style="stroke:#a80036;stroke-width:1"/><line style="stroke:#a80036;stroke-width:1.5" x1="101" x2="113" y1="22" y2="22"/><polygon fill="#A80036" points="109 57.984 113 67.984 117 57.984 113 61.984" style="stroke:#a80036;stroke-width:1.5"/><line style="stroke:#a80036;stroke-width:1.5" x1="113" x2="113" y1="22" y2="109.969"/><line style="stroke:#a80036;stroke-width:1.5" x1="113" x2="60.5" y1="109.969" y2="109.969"/><line style="stroke:#a80036;stroke-width:1.5" x1="60.5" x2="60.5" y1="109.969" y2="129.969"/><polygon fill="#A80036" points="56.5 119.969 60.5 129.969 64.5 119.969 60.5 123.969" style="stroke:#a80036;stroke-width:1"/></g></svg>