<svg xmlns="http://www.w3.org/2000/svg" xmlns:xlink="http://www.w3.org/1999/xlink" width="364" height="219" contentScriptType="application/ecmascript" contentStyleType="text/css" style="width:364px;height:219px" preserveAspectRatio="none" version="1.1" viewBox="0 0 364 219" zoomAndPan="magnify"><defs><filter id="f1qbljl01lul1a" width="300%" height="300%" x="-1" y="-1"><feGaussianBlur result="blurOut" stdDeviation="2"/><feColorMatrix in="blurOut" result="blurOut2" type="matrix" values="0 0 0 0 0 0 0 0 0 0 0 0 0 0 0 0 0 0 .4 0"/><feOffset dx="4" dy="4" in="blurOut2" result="blurOut3"/><feBlend in="SourceGraphic" in2="blurOut3" mode="normal"/></filter></defs><g><polygon fill="#DDD" points="14 16 108 16 115 38.297 118 38.297 118 207 14 207 14 16" filter="url(#f1qbljl01lul1a)" style="stroke:#000;stroke-width:1.5"/><line style="stroke:#000;stroke-width:1.5" x1="14" x2="115" y1="38.297" y2="38.297"/><text x="18" y="30.995" fill="#000" font-family="sans-serif" font-size="14" font-weight="bold" lengthAdjust="spacingAndGlyphs" textLength="88">net.dummy</text><polygon fill="#FFF" points="131 124 194 124 201 146.297 223 146.297 223 207 131 207 131 124" filter="url(#f1qbljl01lul1a)" style="stroke:#000;stroke-width:1.5"/><line style="stroke:#000;stroke-width:1.5" x1="131" x2="201" y1="146.297" y2="146.297"/><text x="135" y="138.995" fill="#000" font-family="sans-serif" font-size="14" font-weight="bold" lengthAdjust="spacingAndGlyphs" textLength="57">net.foo</text><polygon fill="#FFF" points="236 124 332 124 339 146.297 342 146.297 342 207 236 207 236 124" filter="url(#f1qbljl01lul1a)" style="stroke:#000;stroke-width:1.5"/><line style="stroke:#000;stroke-width:1.5" x1="236" x2="339" y1="146.297" y2="146.297"/><text x="240" y="138.995" fill="#000" font-family="sans-serif" font-size="14" font-weight="bold" lengthAdjust="spacingAndGlyphs" textLength="90">net.unused</text><rect id="net.dummy.Person" width="76" height="48" x="28" y="151" fill="#FEFECE" filter="url(#f1qbljl01lul1a)" style="stroke:#a80036;stroke-width:1.5"/><ellipse cx="43" cy="167" fill="#ADD1B2" rx="11" ry="11" style="stroke:#a80036;stroke-width:1"/><path d="M45.9688,172.6406 Q45.3906,172.9375 44.75,173.0781 Q44.1094,173.2344 43.4063,173.2344 Q40.9063,173.2344 39.5781,171.5938 Q38.2656,169.9375 38.2656,166.8125 Q38.2656,163.6875 39.5781,162.0313 Q40.9063,160.375 43.4063,160.375 Q44.1094,160.375 44.75,160.5313 Q45.4063,160.6875 45.9688,160.9844 L45.9688,163.7031 Q45.3438,163.125 44.75,162.8594 Q44.1563,162.5781 43.5313,162.5781 Q42.1875,162.5781 41.5,163.6563 Q40.8125,164.7188 40.8125,166.8125 Q40.8125,168.9063 41.5,169.9844 Q42.1875,171.0469 43.5313,171.0469 Q44.1563,171.0469 44.75,170.7813 Q45.3438,170.5 45.9688,169.9219 L45.9688,172.6406 Z"/><text x="57" y="171.154" fill="#000" font-family="sans-serif" font-size="12" lengthAdjust="spacingAndGlyphs" textLength="44">Person</text><line style="stroke:#a80036;stroke-width:1.5" x1="29" x2="103" y1="183" y2="183"/><line style="stroke:#a80036;stroke-width:1.5" x1="29" x2="103" y1="191" y2="191"/><rect id="net.dummy.Meeting" width="82" height="48" x="25" y="43" fill="#FEFECE" filter="url(#f1qbljl01lul1a)" style="stroke:#a80036;stroke-width:1.5"/><ellipse cx="40" cy="59" fill="#ADD1B2" rx="11" ry="11" style="stroke:#a80036;stroke-width:1"/><path d="M42.9688,64.6406 Q42.3906,64.9375 41.75,65.0781 Q41.1094,65.2344 40.4063,65.2344 Q37.9063,65.2344 36.5781,63.5938 Q35.2656,61.9375 35.2656,58.8125 Q35.2656,55.6875 36.5781,54.0313 Q37.9063,52.375 40.4063,52.375 Q41.1094,52.375 41.75,52.5313 Q42.4063,52.6875 42.9688,52.9844 L42.9688,55.7031 Q42.3438,55.125 41.75,54.8594 Q41.1563,54.5781 40.5313,54.5781 Q39.1875,54.5781 38.5,55.6563 Q37.8125,56.7188 37.8125,58.8125 Q37.8125,60.9063 38.5,61.9844 Q39.1875,63.0469 40.5313,63.0469 Q41.1563,63.0469 41.75,62.7813 Q42.3438,62.5 42.9688,61.9219 L42.9688,64.6406 Z"/><text x="54" y="63.154" fill="#000" font-family="sans-serif" font-size="12" lengthAdjust="spacingAndGlyphs" textLength="50">Meeting</text><line style="stroke:#a80036;stroke-width:1.5" x1="26" x2="106" y1="75" y2="75"/><line style="stroke:#a80036;stroke-width:1.5" x1="26" x2="106" y1="83" y2="83"/><rect id="net.foo.Person" width="76" height="48" x="139" y="151" fill="#FEFECE" filter="url(#f1qbljl01lul1a)" style="stroke:#a80036;stroke-width:1.5"/><ellipse cx="154" cy="167" fill="#ADD1B2" rx="11" ry="11" style="stroke:#a80036;stroke-width:1"/><path d="M156.9688,172.6406 Q156.3906,172.9375 155.75,173.0781 Q155.1094,173.2344 154.4063,173.2344 Q151.9063,173.2344 150.5781,171.5938 Q149.2656,169.9375 149.2656,166.8125 Q149.2656,163.6875 150.5781,162.0313 Q151.9063,160.375 154.4063,160.375 Q155.1094,160.375 155.75,160.5313 Q156.4063,160.6875 156.9688,160.9844 L156.9688,163.7031 Q156.3438,163.125 155.75,162.8594 Q155.1563,162.5781 154.5313,162.5781 Q153.1875,162.5781 152.5,163.6563 Q151.8125,164.7188 151.8125,166.8125 Q151.8125,168.9063 152.5,169.9844 Q153.1875,171.0469 154.5313,171.0469 Q155.1563,171.0469 155.75,170.7813 Q156.3438,170.5 156.9688,169.9219 L156.9688,172.6406 Z"/><text x="168" y="171.154" fill="#000" font-family="sans-serif" font-size="12" lengthAdjust="spacingAndGlyphs" textLength="44">Person</text><line style="stroke:#a80036;stroke-width:1.5" x1="140" x2="214" y1="183" y2="183"/><line style="stroke:#a80036;stroke-width:1.5" x1="140" x2="214" y1="191" y2="191"/><rect id="net.unused.Person" width="76" height="48" x="250" y="151" fill="#FEFECE" filter="url(#f1qbljl01lul1a)" style="stroke:#a80036;stroke-width:1.5"/><ellipse cx="265" cy="167" fill="#ADD1B2" rx="11" ry="11" style="stroke:#a80036;stroke-width:1"/><path d="M267.9688,172.6406 Q267.3906,172.9375 266.75,173.0781 Q266.1094,173.2344 265.4063,173.2344 Q262.9063,173.2344 261.5781,171.5938 Q260.2656,169.9375 260.2656,166.8125 Q260.2656,163.6875 261.5781,162.0313 Q262.9063,160.375 265.4063,160.375 Q266.1094,160.375 266.75,160.5313 Q267.4063,160.6875 267.9688,160.9844 L267.9688,163.7031 Q267.3438,163.125 266.75,162.8594 Q266.1563,162.5781 265.5313,162.5781 Q264.1875,162.5781 263.5,163.6563 Q262.8125,164.7188 262.8125,166.8125 Q262.8125,168.9063 263.5,169.9844 Q264.1875,171.0469 265.5313,171.0469 Q266.1563,171.0469 266.75,170.7813 Q267.3438,170.5 267.9688,169.9219 L267.9688,172.6406 Z"/><text x="279" y="171.154" fill="#000" font-family="sans-serif" font-size="12" lengthAdjust="spacingAndGlyphs" textLength="44">Person</text><line style="stroke:#a80036;stroke-width:1.5" x1="251" x2="325" y1="183" y2="183"/><line style="stroke:#a80036;stroke-width:1.5" x1="251" x2="325" y1="191" y2="191"/><rect id="BaseClass" width="96" height="48" x="142" y="43" fill="#FEFECE" filter="url(#f1qbljl01lul1a)" style="stroke:#a80036;stroke-width:1.5"/><ellipse cx="157" cy="59" fill="#ADD1B2" rx="11" ry="11" style="stroke:#a80036;stroke-width:1"/><path d="M159.9688,64.6406 Q159.3906,64.9375 158.75,65.0781 Q158.1094,65.2344 157.4063,65.2344 Q154.9063,65.2344 153.5781,63.5938 Q152.2656,61.9375 152.2656,58.8125 Q152.2656,55.6875 153.5781,54.0313 Q154.9063,52.375 157.4063,52.375 Q158.1094,52.375 158.75,52.5313 Q159.4063,52.6875 159.9688,52.9844 L159.9688,55.7031 Q159.3438,55.125 158.75,54.8594 Q158.1563,54.5781 157.5313,54.5781 Q156.1875,54.5781 155.5,55.6563 Q154.8125,56.7188 154.8125,58.8125 Q154.8125,60.9063 155.5,61.9844 Q156.1875,63.0469 157.5313,63.0469 Q158.1563,63.0469 158.75,62.7813 Q159.3438,62.5 159.9688,61.9219 L159.9688,64.6406 Z"/><text x="171" y="63.154" fill="#000" font-family="sans-serif" font-size="12" lengthAdjust="spacingAndGlyphs" textLength="64">BaseClass</text><line style="stroke:#a80036;stroke-width:1.5" x1="143" x2="237" y1="75" y2="75"/><line style="stroke:#a80036;stroke-width:1.5" x1="143" x2="237" y1="83" y2="83"/><path id="BaseClass-net.dummy.Person" fill="none" d="M145.6386,104.4709 C138.058,110.951 130.2821,117.6464 123,124 C112.9944,132.7299 102.1081,142.4216 92.556,150.9915" style="stroke:#a80036;stroke-width:1"/><polygon fill="none" points="141.405 98.882 161.174 91.253 150.478 109.545 141.405 98.882" style="stroke:#a80036;stroke-width:1"/><path id="net.dummy.Meeting-net.dummy.Person" fill="none" d="M66,104.6145 C66,119.9531 66,137.2402 66,150.8436" style="stroke:#a80036;stroke-width:1"/><polygon fill="#FFF" points="66 91.237 62 97.237 66 103.237 70 97.237 66 91.237" style="stroke:#a80036;stroke-width:1"/><path id="BaseClass-net.dummy.Meeting" fill="none" d="M121.777,67 C116.9086,67 112.0403,67 107.1719,67" style="stroke:#a80036;stroke-width:1"/><polygon fill="none" points="121.791 60 141.791 67 121.791 74 121.791 60" style="stroke:#a80036;stroke-width:1"/><path id="net.dummy.Person-net.foo.Person" fill="none" d="M124.2256,175 C129.1074,175 133.9891,175 138.8708,175" style="stroke:#a80036;stroke-width:1"/><polygon fill="none" points="124.156 182 104.156 175 124.156 168 124.156 182" style="stroke:#a80036;stroke-width:1"/><path id="BaseClass-net.foo.Person" fill="none" d="M184.6687,111.2911 C183.0405,124.8171 181.3112,139.1835 179.9077,150.8436" style="stroke:#a80036;stroke-width:1"/><polygon fill="none" points="177.743 110.257 187.083 91.237 191.642 111.931 177.743 110.257" style="stroke:#a80036;stroke-width:1"/><path id="net.dummy.Meeting-net.foo.Person" fill="none" d="M101.4301,100.3718 C109.5415,108.0913 118.1,116.3 126,124 C134.8773,132.6526 144.5156,142.24 152.9988,150.7453" style="stroke:#a80036;stroke-width:1"/><polygon fill="#FFF" points="91.832 91.265 93.431 98.297 100.537 99.525 98.938 92.493 91.832 91.265" style="stroke:#a80036;stroke-width:1"/><path id="BaseClass-net.unused.Person" fill="none" d="M225.8445,106.5021 C239.325,121.3582 254.2403,137.7954 266.0803,150.8436" style="stroke:#a80036;stroke-width:1"/><polygon fill="none" points="220.249 110.752 211.993 91.237 230.617 101.345 220.249 110.752" style="stroke:#a80036;stroke-width:1"/></g></svg>